RisingSun-Regular.ufo
<glyph name="exclam" format="2">
  <advance width="262"/>
  <unicode hex="0021"/>
  <outline>
    <contour>
      <point x="165" y="240" type="line"/>
      <point x="175" y="717" type="line"/>
      <point x="87" y="717" type="line"/>
      <point x="97" y="240" type="line"/>
    </contour>
    <contour>
      <point x="69" y="52" type="curve" smooth="yes"/>
      <point x="69" y="18"/>
      <point x="97" y="-10"/>
      <point x="131" y="-10" type="curve" smooth="yes"/>
      <point x="165" y="-10"/>
      <point x="193" y="18"/>
      <point x="193" y="52" type="curve" smooth="yes"/>
      <point x="193" y="86"/>
      <point x="165" y="113"/>
      <point x="131" y="113" type="curve" smooth="yes"/>
      <point x="97" y="113"/>
      <point x="69" y="86"/>
    </contour>
  </outline>
</glyph>
<glyph name="dollar" format="2">
  <advance width="622"/>
  <unicode hex="0024"/>
  <outline>
    <contour>
      <point x="285" y="-107" type="line"/>
      <point x="341" y="-107" type="line"/>
      <point x="341" y="38" type="line"/>
      <point x="285" y="39" type="line"/>
    </contour>
    <contour>
      <point x="335" y="48" type="line"/>
      <point x="335" y="666" type="line"/>
      <point x="290" y="659" type="line"/>
      <point x="290" y="50" type="line"/>
    </contour>
    <contour>
      <point x="285" y="665" type="line"/>
      <point x="341" y="672" type="line"/>
      <point x="341" y="815" type="line"/>
      <point x="285" y="815" type="line"/>
    </contour>
    <contour>
      <point x="550" y="634" type="line"/>
      <point x="528" y="652"/>
      <point x="476" y="682"/>
      <point x="417" y="703"/>
      <point x="353" y="715"/>
      <point x="317" y="715" type="qcurve" smooth="yes"/>
      <point x="262" y="715"/>
      <point x="168" y="688"/>
      <point x="100" y="634"/>
      <point x="62" y="556"/>
      <point x="62" y="505" type="qcurve" smooth="yes"/>
      <point x="62" y="463"/>
      <point x="90" y="403"/>
      <point x="145" y="361"/>
      <point x="227" y="331"/>
      <point x="281" y="318" type="qcurve" smooth="yes"/>
      <point x="331" y="306"/>
      <point x="407" y="283"/>
      <point x="459" y="253"/>
      <point x="486" y="212"/>
      <point x="486" y="182" type="qcurve" smooth="yes"/>
      <point x="486" y="128"/>
      <point x="402" y="74"/>
      <point x="326" y="74" type="qcurve" smooth="yes"/>
      <point x="286" y="74"/>
      <point x="210" y="91"/>
      <point x="145" y="118"/>
      <point x="94" y="152"/>
      <point x="78" y="169" type="qcurve"/>
      <point x="35" y="93" type="line"/>
      <point x="65" y="69"/>
      <point x="132" y="31"/>
      <point x="205" y="6"/>
      <point x="283" y="-7"/>
      <point x="324" y="-7" type="qcurve" smooth="yes"/>
      <point x="379" y="-7"/>
      <point x="473" y="16"/>
      <point x="542" y="65"/>
      <point x="582" y="140"/>
      <point x="582" y="191" type="qcurve" smooth="yes"/>
      <point x="582" y="239"/>
      <point x="549" y="305"/>
      <point x="486" y="351"/>
      <point x="398" y="382"/>
      <point x="342" y="394" type="qcurve" smooth="yes"/>
      <point x="294" y="405"/>
      <point x="224" y="425"/>
      <point x="177" y="452"/>
      <point x="155" y="491"/>
      <point x="155" y="519" type="qcurve" smooth="yes"/>
      <point x="155" y="573"/>
      <point x="233" y="635"/>
      <point x="315" y="635" type="qcurve" smooth="yes"/>
      <point x="347" y="635"/>
      <point x="406" y="622"/>
      <point x="456" y="601"/>
      <point x="496" y="575"/>
      <point x="508" y="561" type="qcurve"/>
    </contour>
  </outline>
</glyph>
<glyph name="ampersand" format="2">
  <advance width="681"/>
  <unicode hex="0026"/>
  <outline>
    <contour>
      <point x="279" y="652" type="curve" smooth="yes"/>
      <point x="226" y="652"/>
      <point x="177" y="618"/>
      <point x="177" y="561" type="curve" smooth="yes"/>
      <point x="177" y="515"/>
      <point x="248" y="448"/>
      <point x="279" y="415" type="curve" smooth="yes"/>
      <point x="676" y="0" type="line"/>
      <point x="560" y="0" type="line"/>
      <point x="212" y="367" type="line" smooth="yes"/>
      <point x="164" y="418"/>
      <point x="96" y="484"/>
      <point x="96" y="559" type="curve" smooth="yes"/>
      <point x="96" y="660"/>
      <point x="185" y="719"/>
      <point x="279" y="719" type="curve" smooth="yes"/>
      <point x="370" y="719"/>
      <point x="446" y="673"/>
      <point x="486" y="591" type="curve"/>
      <point x="422" y="561" type="line"/>
      <point x="393" y="614"/>
      <point x="342" y="652"/>
    </contour>
    <contour>
      <point x="220" y="418" type="curve"/>
      <point x="272" y="365" type="line"/>
      <point x="210" y="326"/>
      <point x="130" y="269"/>
      <point x="130" y="187" type="curve" smooth="yes"/>
      <point x="130" y="103"/>
      <point x="209" y="60"/>
      <point x="284" y="60" type="curve" smooth="yes"/>
      <point x="442" y="60"/>
      <point x="527" y="226"/>
      <point x="527" y="366" type="curve"/>
      <point x="600" y="366" type="line"/>
      <point x="600" y="179"/>
      <point x="478" y="-10"/>
      <point x="275" y="-10" type="curve" smooth="yes"/>
      <point x="159" y="-10"/>
      <point x="45" y="62"/>
      <point x="45" y="188" type="curve" smooth="yes"/>
      <point x="45" y="299"/>
      <point x="136" y="364"/>
    </contour>
  </outline>
</glyph>
<glyph name="quotesingle" format="2">
  <advance width="210"/>
  <unicode hex="0027"/>
  <outline>
    <contour>
      <point x="117" y="510" type="line"/>
      <point x="187" y="717" type="line"/>
      <point x="104" y="717" type="line"/>
      <point x="74" y="510" type="line"/>
    </contour>
  </outline>
</glyph>
<glyph name="parenleft" format="2">
  <advance width="283"/>
  <unicode hex="0028"/>
  <outline>
    <contour>
      <point x="42" y="346" type="qcurve" smooth="yes"/>
      <point x="42" y="298"/>
      <point x="63" y="199"/>
      <point x="101" y="102"/>
      <point x="154" y="5"/>
      <point x="185" y="-42" type="qcurve"/>
      <point x="250" y="-8" type="line"/>
      <point x="221" y="37"/>
      <point x="175" y="129"/>
      <point x="142" y="218"/>
      <point x="124" y="304"/>
      <point x="124" y="343" type="qcurve" smooth="yes"/>
      <point x="124" y="392"/>
      <point x="150" y="499"/>
      <point x="188" y="599"/>
      <point x="233" y="686"/>
      <point x="252" y="714" type="qcurve"/>
      <point x="184" y="744" type="line"/>
      <point x="154" y="694"/>
      <point x="103" y="596"/>
      <point x="64" y="497"/>
      <point x="42" y="397"/>
    </contour>
  </outline>
</glyph>
<glyph name="parenright" format="2">
  <advance width="283"/>
  <unicode hex="0029"/>
  <outline>
    <contour>
      <point x="241" y="346" type="qcurve" smooth="yes"/>
      <point x="241" y="397"/>
      <point x="219" y="497"/>
      <point x="180" y="596"/>
      <point x="129" y="694"/>
      <point x="99" y="744" type="qcurve"/>
      <point x="31" y="714" type="line"/>
      <point x="50" y="686"/>
      <point x="95" y="599"/>
      <point x="133" y="499"/>
      <point x="159" y="392"/>
      <point x="159" y="343" type="qcurve" smooth="yes"/>
      <point x="159" y="304"/>
      <point x="141" y="218"/>
      <point x="108" y="129"/>
      <point x="62" y="37"/>
      <point x="33" y="-8" type="qcurve"/>
      <point x="98" y="-42" type="line"/>
      <point x="130" y="5"/>
      <point x="182" y="102"/>
      <point x="220" y="199"/>
      <point x="241" y="298"/>
    </contour>
  </outline>
</glyph>
<glyph name="comma" format="2">
  <advance width="268"/>
  <unicode hex="002C"/>
  <outline>
    <contour>
      <point x="75" y="-171" type="line"/>
      <point x="177" y="90" type="line"/>
      <point x="87" y="102" type="line"/>
      <point x="30" y="-160" type="line"/>
    </contour>
  </outline>
</glyph>
<glyph name="period" format="2">
  <advance width="268"/>
  <unicode hex="002E"/>
  <outline>
    <contour>
      <point x="77" y="46" type="qcurve" smooth="yes"/>
      <point x="77" y="23"/>
      <point x="110" y="-10"/>
      <point x="133" y="-10" type="qcurve" smooth="yes"/>
      <point x="156" y="-10"/>
      <point x="189" y="23"/>
      <point x="189" y="46" type="qcurve" smooth="yes"/>
      <point x="189" y="69"/>
      <point x="156" y="102"/>
      <point x="133" y="102" type="qcurve" smooth="yes"/>
      <point x="110" y="102"/>
      <point x="77" y="69"/>
    </contour>
  </outline>
</glyph>
<glyph name="zero.tnum" format="2">
  <advance width="586"/>
  <unicode hex="0030"/>
  <outline>
    <contour>
      <point x="293" y="-10" type="qcurve"/>
      <point x="356" y="-9"/>
      <point x="454" y="55"/>
      <point x="489" y="106" type="qcurve" smooth="yes"/>
      <point x="524" y="157"/>
      <point x="560" y="284"/>
      <point x="560" y="350" type="qcurve" smooth="yes"/>
      <point x="560" y="408"/>
      <point x="526" y="534"/>
      <point x="493" y="588" type="qcurve" smooth="yes"/>
      <point x="459" y="642"/>
      <point x="360" y="710"/>
      <point x="293" y="710" type="qcurve" smooth="yes"/>
      <point x="230" y="710"/>
      <point x="133" y="646"/>
      <point x="98" y="595" type="qcurve" smooth="yes"/>
      <point x="63" y="543"/>
      <point x="26" y="414"/>
      <point x="26" y="350" type="qcurve" smooth="yes"/>
      <point x="26" y="290"/>
      <point x="60" y="165"/>
      <point x="94" y="112" type="qcurve" smooth="yes"/>
      <point x="128" y="59"/>
      <point x="227" y="-9"/>
    </contour>
    <contour>
      <point x="117" y="350" type="qcurve"/>
      <point x="117" y="395"/>
      <point x="139" y="492"/>
      <point x="161" y="534" type="qcurve" smooth="yes"/>
      <point x="182" y="576"/>
      <point x="248" y="629"/>
      <point x="293" y="629" type="qcurve" smooth="yes"/>
      <point x="336" y="629"/>
      <point x="401" y="578"/>
      <point x="424" y="538" type="qcurve" smooth="yes"/>
      <point x="447" y="498"/>
      <point x="469" y="399"/>
      <point x="469" y="350" type="qcurve" smooth="yes"/>
      <point x="469" y="305"/>
      <point x="448" y="209"/>
      <point x="427" y="167" type="qcurve" smooth="yes"/>
      <point x="405" y="125"/>
      <point x="339" y="71"/>
      <point x="293" y="71" type="qcurve" smooth="yes"/>
      <point x="250" y="71"/>
      <point x="185" y="122"/>
      <point x="163" y="162" type="qcurve" smooth="yes"/>
      <point x="141" y="202"/>
      <point x="119" y="301"/>
    </contour>
  </outline>
</glyph>
<glyph name="one" format="2">
  <advance width="586"/>
  <unicode hex="0031"/>
  <outline>
    <contour>
      <point x="338" y="79" type="line"/>
      <point x="338" y="718" type="line"/>
      <point x="257" y="718" type="line"/>
      <point x="256" y="717"/>
      <point x="229" y="686"/>
      <point x="208" y="668" type="qcurve" smooth="yes"/>
      <point x="187" y="650"/>
      <point x="138" y="621"/>
      <point x="113" y="621" type="qcurve"/>
      <point x="113" y="538" type="line"/>
      <point x="131" y="538"/>
      <point x="175" y="556"/>
      <point x="196" y="570" type="qcurve" smooth="yes"/>
      <point x="216" y="584"/>
      <point x="249" y="613"/>
      <point x="257" y="625" type="qcurve"/>
      <point x="257" y="79" type="line"/>
      <point x="44" y="79" type="line"/>
      <point x="44" y="-1" type="line"/>
      <point x="542" y="-1" type="line"/>
      <point x="542" y="79" type="line"/>
    </contour>
  </outline>
</glyph>
<glyph name="two.tnum" format="2">
  <advance width="586"/>
  <unicode hex="0032"/>
  <outline>
    <contour>
      <point x="529" y="-2" type="line"/>
      <point x="529" y="78" type="line"/>
      <point x="146" y="78" type="line"/>
      <point x="147" y="106"/>
      <point x="160" y="154"/>
      <point x="198" y="201"/>
      <point x="270" y="251"/>
      <point x="331" y="281" type="qcurve" smooth="yes"/>
      <point x="364" y="298"/>
      <point x="433" y="335"/>
      <point x="491" y="387"/>
      <point x="528" y="461"/>
      <point x="528" y="512" type="qcurve" smooth="yes"/>
      <point x="528" y="554"/>
      <point x="500" y="630"/>
      <point x="445" y="686"/>
      <point x="363" y="719"/>
      <point x="307" y="719" type="qcurve" smooth="yes"/>
      <point x="252" y="719"/>
      <point x="167" y="689"/>
      <point x="102" y="646"/>
      <point x="63" y="606"/>
      <point x="54" y="596" type="qcurve"/>
      <point x="111" y="539" type="line"/>
      <point x="123" y="554"/>
      <point x="159" y="587"/>
      <point x="206" y="616"/>
      <point x="264" y="635"/>
      <point x="297" y="635" type="qcurve" smooth="yes"/>
      <point x="331" y="635"/>
      <point x="381" y="615"/>
      <point x="414" y="581"/>
      <point x="430" y="535"/>
      <point x="430" y="509" type="qcurve" smooth="yes"/>
      <point x="430" y="465"/>
      <point x="388" y="407"/>
      <point x="322" y="363"/>
      <point x="241" y="326"/>
      <point x="203" y="303" type="qcurve" smooth="yes"/>
      <point x="167" y="281"/>
      <point x="110" y="225"/>
      <point x="71" y="151"/>
      <point x="49" y="58"/>
      <point x="49" y="-2" type="qcurve"/>
    </contour>
  </outline>
</glyph>
<glyph name="three.tnum" format="2">
  <advance width="586"/>
  <unicode hex="0033"/>
  <outline>
    <contour>
      <point x="276" y="-11" type="curve" smooth="yes"/>
      <point x="392" y="-11"/>
      <point x="528" y="50"/>
      <point x="528" y="184" type="curve" smooth="yes"/>
      <point x="528" y="274"/>
      <point x="466" y="351"/>
      <point x="376" y="367" type="curve"/>
      <point x="456" y="386"/>
      <point x="511" y="436"/>
      <point x="511" y="523" type="curve" smooth="yes"/>
      <point x="511" y="650"/>
      <point x="394" y="719"/>
      <point x="278" y="719" type="curve" smooth="yes"/>
      <point x="192" y="719"/>
      <point x="101" y="682"/>
      <point x="56" y="605" type="curve"/>
      <point x="113" y="544" type="line"/>
      <point x="142" y="608"/>
      <point x="211" y="639"/>
      <point x="278" y="639" type="curve" smooth="yes"/>
      <point x="348" y="639"/>
      <point x="418" y="596"/>
      <point x="418" y="519" type="curve" smooth="yes"/>
      <point x="418" y="404"/>
      <point x="273" y="401"/>
      <point x="191" y="401" type="curve"/>
      <point x="191" y="324" type="line"/>
      <point x="229" y="324"/>
      <point x="282" y="323"/>
      <point x="329" y="311" type="curve" smooth="yes"/>
      <point x="387" y="296"/>
      <point x="437" y="264"/>
      <point x="437" y="197" type="curve" smooth="yes"/>
      <point x="437" y="110"/>
      <point x="349" y="71"/>
      <point x="274" y="71" type="curve" smooth="yes"/>
      <point x="205" y="71"/>
      <point x="145" y="97"/>
      <point x="111" y="159" type="curve"/>
      <point x="54" y="100" type="line"/>
      <point x="102" y="22"/>
      <point x="187" y="-11"/>
    </contour>
  </outline>
</glyph>
<glyph name="four" format="2">
  <advance width="577"/>
  <unicode hex="0034"/>
  <outline>
    <contour>
      <point x="449" y="0" type="line"/>
      <point x="449" y="181" type="line"/>
      <point x="537" y="181" type="line"/>
      <point x="537" y="261" type="line"/>
      <point x="449" y="261" type="line"/>
      <point x="449" y="710" type="line"/>
      <point x="388" y="710" type="line"/>
      <point x="27" y="260" type="line"/>
      <point x="27" y="181" type="line"/>
      <point x="361" y="181" type="line"/>
      <point x="361" y="0" type="line"/>
    </contour>
    <contour>
      <point x="370" y="575" type="line"/>
      <point x="370" y="261" type="line"/>
      <point x="119" y="261" type="line"/>
    </contour>
  </outline>
</glyph>
<glyph name="four.tnum" format="2">
  <advance width="586"/>
  <unicode hex="0034"/>
  <outline>
    <contour>
      <point x="449" y="0" type="line"/>
      <point x="449" y="181" type="line"/>
      <point x="534" y="181" type="line"/>
      <point x="534" y="261" type="line"/>
      <point x="449" y="261" type="line"/>
      <point x="449" y="710" type="line"/>
      <point x="390" y="710" type="line"/>
      <point x="43" y="260" type="line"/>
      <point x="43" y="181" type="line"/>
      <point x="364" y="181" type="line"/>
      <point x="364" y="0" type="line"/>
    </contour>
    <contour>
      <point x="372" y="575" type="line"/>
      <point x="372" y="261" type="line"/>
      <point x="130" y="261" type="line"/>
    </contour>
  </outline>
</glyph>
<glyph name="seven" format="2">
  <advance width="534"/>
  <unicode hex="0037"/>
  <outline>
    <contour>
      <point x="79" y="0" type="line"/>
      <point x="178" y="0" type="line"/>
      <point x="536" y="710" type="line"/>
      <point x="32" y="710" type="line"/>
      <point x="32" y="629" type="line"/>
      <point x="396" y="629" type="line"/>
    </contour>
  </outline>
</glyph>
<glyph name="eight.tnum" format="2">
  <advance width="586"/>
  <unicode hex="0038"/>
  <outline>
    <contour>
      <point x="540" y="201" type="qcurve" smooth="yes"/>
      <point x="540" y="233"/>
      <point x="518" y="290"/>
      <point x="482" y="336"/>
      <point x="433" y="370"/>
      <point x="407" y="380" type="qcurve"/>
      <point x="429" y="389"/>
      <point x="469" y="418"/>
      <point x="499" y="456"/>
      <point x="516" y="501"/>
      <point x="516" y="525" type="qcurve" smooth="yes"/>
      <point x="516" y="570"/>
      <point x="477" y="639"/>
      <point x="413" y="686"/>
      <point x="333" y="710"/>
      <point x="293" y="710" type="qcurve" smooth="yes"/>
      <point x="254" y="710"/>
      <point x="174" y="686"/>
      <point x="110" y="638"/>
      <point x="70" y="569"/>
      <point x="70" y="524" type="qcurve" smooth="yes"/>
      <point x="70" y="499"/>
      <point x="87" y="455"/>
      <point x="117" y="418"/>
      <point x="157" y="389"/>
      <point x="179" y="380" type="qcurve"/>
      <point x="155" y="371"/>
      <point x="107" y="339"/>
      <point x="70" y="294"/>
      <point x="46" y="238"/>
      <point x="46" y="205" type="qcurve" smooth="yes"/>
      <point x="46" y="160"/>
      <point x="83" y="82"/>
      <point x="149" y="25"/>
      <point x="239" y="-8"/>
      <point x="291" y="-8" type="qcurve" smooth="yes"/>
      <point x="341" y="-8"/>
      <point x="432" y="22"/>
      <point x="501" y="76"/>
      <point x="540" y="153"/>
    </contour>
    <contour>
      <point x="450" y="207" type="qcurve" smooth="yes"/>
      <point x="450" y="177"/>
      <point x="424" y="127"/>
      <point x="380" y="91"/>
      <point x="323" y="71"/>
      <point x="294" y="71" type="qcurve" smooth="yes"/>
      <point x="266" y="71"/>
      <point x="209" y="90"/>
      <point x="164" y="124"/>
      <point x="136" y="175"/>
      <point x="136" y="206" type="qcurve" smooth="yes"/>
      <point x="136" y="238"/>
      <point x="162" y="288"/>
      <point x="206" y="324"/>
      <point x="263" y="343"/>
      <point x="292" y="343" type="qcurve" smooth="yes"/>
      <point x="321" y="343"/>
      <point x="378" y="325"/>
      <point x="423" y="290"/>
      <point x="450" y="239"/>
    </contour>
    <contour>
      <point x="160" y="521" type="qcurve" smooth="yes"/>
      <point x="160" y="547"/>
      <point x="181" y="587"/>
      <point x="218" y="616"/>
      <point x="266" y="631"/>
      <point x="292" y="631" type="qcurve" smooth="yes"/>
      <point x="319" y="631"/>
      <point x="368" y="616"/>
      <point x="405" y="588"/>
      <point x="426" y="548"/>
      <point x="426" y="523" type="qcurve" smooth="yes"/>
      <point x="426" y="496"/>
      <point x="403" y="454"/>
      <point x="365" y="426"/>
      <point x="317" y="411"/>
      <point x="293" y="411" type="qcurve" smooth="yes"/>
      <point x="269" y="411"/>
      <point x="221" y="425"/>
      <point x="183" y="453"/>
      <point x="160" y="494"/>
    </contour>
  </outline>
</glyph>
<glyph name="nine" format="2">
  <advance width="586"/>
  <unicode hex="0039"/>
  <outline>
    <contour>
      <point x="41" y="468" type="curve" smooth="yes"/>
      <point x="41" y="608"/>
      <point x="151" y="715"/>
      <point x="290" y="715" type="curve" smooth="yes"/>
      <point x="463" y="715"/>
      <point x="539" y="565"/>
      <point x="539" y="410" type="curve" smooth="yes"/>
      <point x="539" y="242"/>
      <point x="498" y="-12"/>
      <point x="281" y="-12" type="curve" smooth="yes"/>
      <point x="190" y="-12"/>
      <point x="114" y="36"/>
      <point x="72" y="117" type="curve"/>
      <point x="120" y="168" type="line"/>
      <point x="149" y="104"/>
      <point x="208" y="68"/>
      <point x="278" y="68" type="curve" smooth="yes"/>
      <point x="421" y="68"/>
      <point x="456" y="231"/>
      <point x="456" y="345" type="curve"/>
      <point x="425" y="270"/>
      <point x="359" y="229"/>
      <point x="279" y="229" type="curve" smooth="yes"/>
      <point x="146" y="229"/>
      <point x="41" y="335"/>
    </contour>
    <contour>
      <point x="290" y="638" type="curve" smooth="yes"/>
      <point x="199" y="638"/>
      <point x="127" y="560"/>
      <point x="127" y="470" type="curve" smooth="yes"/>
      <point x="127" y="382"/>
      <point x="200" y="303"/>
      <point x="289" y="303" type="curve" smooth="yes"/>
      <point x="380" y="303"/>
      <point x="451" y="380"/>
      <point x="451" y="470" type="curve" smooth="yes"/>
      <point x="451" y="559"/>
      <point x="381" y="638"/>
    </contour>
  </outline>
</glyph>
<glyph name="question" format="2">
  <advance width="479"/>
  <unicode hex="003F"/>
  <outline>
    <contour>
      <point x="218" y="211" type="line"/>
      <point x="218" y="299"/>
      <point x="267" y="324"/>
      <point x="316" y="351" type="curve" smooth="yes"/>
      <point x="383" y="388"/>
      <point x="442" y="426"/>
      <point x="442" y="527" type="curve" smooth="yes"/>
      <point x="442" y="658"/>
      <point x="342" y="719"/>
      <point x="243" y="719" type="curve" smooth="yes"/>
      <point x="155" y="719"/>
      <point x="70" y="672"/>
      <point x="34" y="590" type="curve"/>
      <point x="93" y="551" type="line"/>
      <point x="120" y="602"/>
      <point x="174" y="646"/>
      <point x="241" y="646" type="curve" smooth="yes"/>
      <point x="304" y="646"/>
      <point x="364" y="606"/>
      <point x="364" y="531" type="curve" smooth="yes"/>
      <point x="364" y="440"/>
      <point x="277" y="406"/>
      <point x="228" y="375" type="curve" smooth="yes"/>
      <point x="167" y="336"/>
      <point x="144" y="283"/>
      <point x="144" y="211" type="curve"/>
    </contour>
    <contour>
      <point x="126" y="46" type="curve" smooth="yes"/>
      <point x="126" y="15"/>
      <point x="151" y="-10"/>
      <point x="182" y="-10" type="curve" smooth="yes"/>
      <point x="213" y="-10"/>
      <point x="238" y="15"/>
      <point x="238" y="46" type="curve" smooth="yes"/>
      <point x="238" y="77"/>
      <point x="213" y="102"/>
      <point x="182" y="102" type="curve" smooth="yes"/>
      <point x="151" y="102"/>
      <point x="126" y="77"/>
    </contour>
  </outline>
</glyph>
<glyph name="at" format="2">
  <advance width="840"/>
  <unicode hex="0040"/>
  <outline>
    <contour>
      <point x="419" y="603" type="qcurve" smooth="yes"/>
      <point x="346" y="603"/>
      <point x="211" y="551"/>
      <point x="108" y="454"/>
      <point x="46" y="316"/>
      <point x="46" y="230" type="qcurve" smooth="yes"/>
      <point x="46" y="148"/>
      <point x="103" y="10"/>
      <point x="202" y="-90"/>
      <point x="334" y="-146"/>
      <point x="409" y="-146" type="qcurve" smooth="yes"/>
      <point x="452" y="-146"/>
      <point x="537" y="-126"/>
      <point x="578" y="-106" type="qcurve"/>
      <point x="564" y="-68" type="line"/>
      <point x="527" y="-85"/>
      <point x="454" y="-106"/>
      <point x="410" y="-106" type="qcurve" smooth="yes"/>
      <point x="340" y="-106"/>
      <point x="222" y="-53"/>
      <point x="136" y="38"/>
      <point x="88" y="160"/>
      <point x="88" y="230" type="qcurve" smooth="yes"/>
      <point x="88" y="302"/>
      <point x="139" y="425"/>
      <point x="228" y="513"/>
      <point x="348" y="563"/>
      <point x="417" y="563" type="qcurve" smooth="yes"/>
      <point x="488" y="563"/>
      <point x="607" y="511"/>
      <point x="695" y="419"/>
      <point x="744" y="296"/>
      <point x="744" y="224" type="qcurve" smooth="yes"/>
      <point x="744" y="199"/>
      <point x="736" y="131"/>
      <point x="713" y="70"/>
      <point x="675" y="28"/>
      <point x="645" y="28" type="qcurve" smooth="yes"/>
      <point x="628" y="28"/>
      <point x="608" y="44"/>
      <point x="597" y="72"/>
      <point x="594" y="110"/>
      <point x="594" y="132" type="qcurve" smooth="yes"/>
      <point x="594" y="251" type="line" smooth="yes"/>
      <point x="594" y="286"/>
      <point x="585" y="359"/>
      <point x="551" y="419"/>
      <point x="484" y="457"/>
      <point x="425" y="457" type="qcurve" smooth="yes"/>
      <point x="378" y="457"/>
      <point x="295" y="430"/>
      <point x="259" y="406" type="qcurve"/>
      <point x="279" y="357" type="line"/>
      <point x="307" y="378"/>
      <point x="377" y="403"/>
      <point x="417" y="403" type="qcurve" smooth="yes"/>
      <point x="453" y="403"/>
      <point x="500" y="381"/>
      <point x="527" y="342"/>
      <point x="538" y="287"/>
      <point x="538" y="254" type="qcurve"/>
      <point x="522" y="260"/>
      <point x="458" y="277"/>
      <point x="415" y="277" type="qcurve" smooth="yes"/>
      <point x="382" y="277"/>
      <point x="315" y="263"/>
      <point x="261" y="231"/>
      <point x="228" y="177"/>
      <point x="228" y="138" type="qcurve" smooth="yes"/>
      <point x="228" y="79"/>
      <point x="307" y="2"/>
      <point x="380" y="2" type="qcurve" smooth="yes"/>
      <point x="433" y="2"/>
      <point x="521" y="43"/>
      <point x="550" y="73" type="qcurve"/>
      <point x="552" y="56"/>
      <point x="560" y="24"/>
      <point x="579" y="-1"/>
      <point x="612" y="-16"/>
      <point x="637" y="-16" type="qcurve" smooth="yes"/>
      <point x="689" y="-16"/>
      <point x="748" y="42"/>
      <point x="778" y="121"/>
      <point x="786" y="201"/>
      <point x="786" y="222" type="qcurve" smooth="yes"/>
      <point x="786" y="309"/>
      <point x="727" y="450"/>
      <point x="626" y="549"/>
      <point x="493" y="603"/>
    </contour>
    <contour>
      <point x="476" y="76" type="qcurve" smooth="yes"/>
      <point x="457" y="67"/>
      <point x="408" y="54"/>
      <point x="384" y="54" type="qcurve" smooth="yes"/>
      <point x="362" y="54"/>
      <point x="325" y="67"/>
      <point x="299" y="91"/>
      <point x="285" y="123"/>
      <point x="285" y="142" type="qcurve" smooth="yes"/>
      <point x="285" y="167"/>
      <point x="306" y="200"/>
      <point x="342" y="221"/>
      <point x="389" y="230"/>
      <point x="414" y="230" type="qcurve" smooth="yes"/>
      <point x="437" y="230"/>
      <point x="476" y="224"/>
      <point x="507" y="216"/>
      <point x="531" y="209"/>
      <point x="537" y="208" type="qcurve"/>
      <point x="537" y="171" type="line" smooth="yes"/>
      <point x="537" y="158"/>
      <point x="533" y="132"/>
      <point x="519" y="107"/>
      <point x="496" y="85"/>
    </contour>
  </outline>
</glyph>
<glyph name="B" format="2">
  <advance width="671"/>
  <unicode hex="0042"/>
  <outline>
    <contour>
      <point x="630" y="183" type="qcurve" smooth="yes"/>
      <point x="630" y="216"/>
      <point x="612" y="274"/>
      <point x="577" y="321"/>
      <point x="528" y="355"/>
      <point x="498" y="364" type="qcurve"/>
      <point x="547" y="386"/>
      <point x="600" y="476"/>
      <point x="600" y="529" type="qcurve" smooth="yes"/>
      <point x="600" y="562"/>
      <point x="578" y="627"/>
      <point x="536" y="678"/>
      <point x="476" y="710"/>
      <point x="438" y="710" type="qcurve" smooth="yes"/>
      <point x="85" y="710" type="line"/>
      <point x="85" y="0" type="line"/>
      <point x="422" y="0" type="line" smooth="yes"/>
      <point x="465" y="0"/>
      <point x="540" y="26"/>
      <point x="597" y="74"/>
      <point x="630" y="142"/>
    </contour>
    <contour>
      <point x="539" y="199" type="qcurve" smooth="yes"/>
      <point x="539" y="175"/>
      <point x="521" y="131"/>
      <point x="490" y="98"/>
      <point x="447" y="78"/>
      <point x="422" y="78" type="qcurve" smooth="yes"/>
      <point x="175" y="78" type="line"/>
      <point x="175" y="322" type="line"/>
      <point x="429" y="322" type="line" smooth="yes"/>
      <point x="453" y="322"/>
      <point x="493" y="302"/>
      <point x="522" y="268"/>
      <point x="539" y="223"/>
    </contour>
    <contour>
      <point x="407" y="632" type="line" smooth="yes"/>
      <point x="430" y="632"/>
      <point x="468" y="614"/>
      <point x="495" y="582"/>
      <point x="511" y="538"/>
      <point x="511" y="513" type="qcurve" smooth="yes"/>
      <point x="511" y="489"/>
      <point x="494" y="446"/>
      <point x="465" y="414"/>
      <point x="425" y="395"/>
      <point x="401" y="395" type="qcurve" smooth="yes"/>
      <point x="175" y="395" type="line"/>
      <point x="175" y="632" type="line"/>
    </contour>
  </outline>
</glyph>
<glyph name="D" format="2">
  <advance width="716"/>
  <unicode hex="0044"/>
  <outline>
    <contour>
      <point x="331" y="0" type="line" smooth="yes"/>
      <point x="409" y="0"/>
      <point x="536" y="51"/>
      <point x="626" y="144"/>
      <point x="674" y="275"/>
      <point x="674" y="356" type="qcurve" smooth="yes"/>
      <point x="674" y="430"/>
      <point x="631" y="559"/>
      <point x="545" y="655"/>
      <point x="417" y="710"/>
      <point x="331" y="710" type="qcurve" smooth="yes"/>
      <point x="85" y="710" type="line"/>
      <point x="85" y="0" type="line"/>
    </contour>
    <contour>
      <point x="583" y="356" type="qcurve" smooth="yes"/>
      <point x="583" y="297"/>
      <point x="550" y="196"/>
      <point x="487" y="122"/>
      <point x="393" y="80"/>
      <point x="331" y="80" type="qcurve" smooth="yes"/>
      <point x="175" y="80" type="line"/>
      <point x="175" y="630" type="line"/>
      <point x="331" y="630" type="line" smooth="yes"/>
      <point x="391" y="630"/>
      <point x="485" y="589"/>
      <point x="550" y="517"/>
      <point x="583" y="416"/>
    </contour>
  </outline>
</glyph>
<glyph name="G" format="2">
  <advance width="730"/>
  <unicode hex="0047"/>
  <outline>
    <contour>
      <point x="381" y="-5" type="curve" smooth="yes"/>
      <point x="491" y="-5"/>
      <point x="592" y="34"/>
      <point x="665" y="120" type="curve"/>
      <point x="665" y="357" type="line"/>
      <point x="375" y="357" type="line"/>
      <point x="375" y="277" type="line"/>
      <point x="575" y="277" type="line"/>
      <point x="575" y="149" type="line"/>
      <point x="531" y="98"/>
      <point x="471" y="76"/>
      <point x="374" y="76" type="curve" smooth="yes"/>
      <point x="224" y="76"/>
      <point x="131" y="217"/>
      <point x="131" y="354" type="curve" smooth="yes"/>
      <point x="131" y="493"/>
      <point x="224" y="634"/>
      <point x="374" y="634" type="curve" smooth="yes"/>
      <point x="475" y="634"/>
      <point x="544" y="565"/>
      <point x="579" y="506" type="curve"/>
      <point x="650" y="563" type="line"/>
      <point x="594" y="655"/>
      <point x="498" y="715"/>
      <point x="379" y="715" type="curve" smooth="yes"/>
      <point x="178" y="715"/>
      <point x="40" y="543"/>
      <point x="40" y="358" type="curve" smooth="yes"/>
      <point x="40" y="172"/>
      <point x="181" y="-5"/>
    </contour>
  </outline>
</glyph>
<glyph name="H" format="2">
  <advance width="741"/>
  <unicode hex="0048"/>
  <outline>
    <contour>
      <point x="566" y="710" type="line"/>
      <point x="566" y="403" type="line"/>
      <point x="175" y="403" type="line"/>
      <point x="175" y="710" type="line"/>
      <point x="85" y="710" type="line"/>
      <point x="85" y="0" type="line"/>
      <point x="175" y="0" type="line"/>
      <point x="175" y="323" type="line"/>
      <point x="566" y="323" type="line"/>
      <point x="566" y="0" type="line"/>
      <point x="656" y="0" type="line"/>
      <point x="656" y="710" type="line"/>
    </contour>
  </outline>
</glyph>
<glyph name="J" format="2">
  <advance width="533"/>
  <unicode hex="004A"/>
  <outline>
    <contour>
      <point x="213" y="-10" type="qcurve" smooth="yes"/>
      <point x="179" y="-10"/>
      <point x="114" y="10"/>
      <point x="59" y="47"/>
      <point x="17" y="100"/>
      <point x="5" y="132" type="qcurve"/>
      <point x="87" y="170" type="line"/>
      <point x="95" y="149"/>
      <point x="119" y="113"/>
      <point x="150" y="86"/>
      <point x="189" y="71"/>
      <point x="213" y="71" type="qcurve" smooth="yes"/>
      <point x="251" y="71"/>
      <point x="305" y="101"/>
      <point x="339" y="150"/>
      <point x="355" y="214"/>
      <point x="355" y="247" type="qcurve" smooth="yes"/>
      <point x="355" y="710" type="line"/>
      <point x="448" y="710" type="line"/>
      <point x="448" y="215" type="line" smooth="yes"/>
      <point x="448" y="163"/>
      <point x="412" y="80"/>
      <point x="349" y="22"/>
      <point x="263" y="-10"/>
    </contour>
  </outline>
</glyph>
<glyph name="L" format="2">
  <advance width="584"/>
  <unicode hex="004C"/>
  <outline>
    <contour>
      <point x="571" y="0" type="line"/>
      <point x="571" y="80" type="line"/>
      <point x="175" y="80" type="line"/>
      <point x="175" y="710" type="line"/>
      <point x="85" y="710" type="line"/>
      <point x="85" y="0" type="line"/>
    </contour>
  </outline>
</glyph>
<glyph name="N" format="2">
  <advance width="770"/>
  <unicode hex="004E"/>
  <outline>
    <contour>
      <point x="603" y="0" type="line"/>
      <point x="685" y="0" type="line"/>
      <point x="685" y="709" type="line"/>
      <point x="595" y="709" type="line"/>
      <point x="595" y="155" type="line"/>
      <point x="161" y="710" type="line"/>
      <point x="85" y="710" type="line"/>
      <point x="85" y="0" type="line"/>
      <point x="175" y="0" type="line"/>
      <point x="175" y="544" type="line"/>
    </contour>
  </outline>
</glyph>
<glyph name="Q" format="2">
  <advance width="746"/>
  <unicode hex="0051"/>
  <outline>
    <contour>
      <point x="373" y="-5" type="qcurve" smooth="yes"/>
      <point x="445" y="-5"/>
      <point x="568" y="54"/>
      <point x="657" y="153"/>
      <point x="708" y="283"/>
      <point x="708" y="354" type="qcurve" smooth="yes"/>
      <point x="708" y="421"/>
      <point x="660" y="550"/>
      <point x="572" y="652"/>
      <point x="450" y="715"/>
      <point x="375" y="715" type="qcurve" smooth="yes"/>
      <point x="303" y="715"/>
      <point x="180" y="656"/>
      <point x="90" y="556"/>
      <point x="39" y="426"/>
      <point x="39" y="355" type="qcurve" smooth="yes"/>
      <point x="39" y="287"/>
      <point x="87" y="157"/>
      <point x="175" y="57"/>
      <point x="298" y="-5"/>
    </contour>
    <contour>
      <point x="374" y="76" type="qcurve" smooth="yes"/>
      <point x="319" y="76"/>
      <point x="229" y="122"/>
      <point x="165" y="200"/>
      <point x="130" y="301"/>
      <point x="130" y="355" type="qcurve" smooth="yes"/>
      <point x="130" y="407"/>
      <point x="164" y="507"/>
      <point x="227" y="586"/>
      <point x="317" y="634"/>
      <point x="374" y="634" type="qcurve" smooth="yes"/>
      <point x="428" y="634"/>
      <point x="517" y="588"/>
      <point x="582" y="510"/>
      <point x="617" y="409"/>
      <point x="617" y="355" type="qcurve" smooth="yes"/>
      <point x="617" y="304"/>
      <point x="584" y="204"/>
      <point x="521" y="125"/>
      <point x="431" y="76"/>
    </contour>
    <contour>
      <point x="670" y="-16" type="line"/>
      <point x="727" y="41" type="line"/>
      <point x="449" y="313" type="line"/>
      <point x="392" y="256" type="line"/>
    </contour>
  </outline>
</glyph>
<glyph name="R" format="2">
  <advance width="657"/>
  <unicode hex="0052"/>
  <outline>
    <contour>
      <point x="175" y="0" type="line"/>
      <point x="175" y="255" type="line"/>
      <point x="363" y="255" type="line"/>
      <point x="525" y="0" type="line"/>
      <point x="627" y="0" type="line"/>
      <point x="455" y="272" type="line"/>
      <point x="489" y="281"/>
      <point x="544" y="321"/>
      <point x="583" y="377"/>
      <point x="604" y="446"/>
      <point x="604" y="483" type="qcurve" smooth="yes"/>
      <point x="604" y="525"/>
      <point x="572" y="606"/>
      <point x="515" y="671"/>
      <point x="436" y="710"/>
      <point x="389" y="710" type="qcurve" smooth="yes"/>
      <point x="85" y="710" type="line"/>
      <point x="85" y="0" type="line"/>
    </contour>
    <contour>
      <point x="175" y="630" type="line"/>
      <point x="384" y="630" type="line" smooth="yes"/>
      <point x="410" y="630"/>
      <point x="457" y="607"/>
      <point x="492" y="566"/>
      <point x="513" y="513"/>
      <point x="513" y="483" type="qcurve" smooth="yes"/>
      <point x="513" y="454"/>
      <point x="495" y="400"/>
      <point x="463" y="359"/>
      <point x="418" y="335"/>
      <point x="390" y="335" type="qcurve" smooth="yes"/>
      <point x="175" y="335" type="line"/>
    </contour>
  </outline>
</glyph>
<glyph name="S" format="2">
  <advance width="609"/>
  <unicode hex="0053"/>
  <outline>
    <contour>
      <point x="544" y="634" type="line"/>
      <point x="522" y="652"/>
      <point x="470" y="682"/>
      <point x="411" y="703"/>
      <point x="347" y="715"/>
      <point x="311" y="715" type="qcurve" smooth="yes"/>
      <point x="256" y="715"/>
      <point x="162" y="688"/>
      <point x="94" y="634"/>
      <point x="56" y="556"/>
      <point x="56" y="505" type="qcurve" smooth="yes"/>
      <point x="56" y="463"/>
      <point x="84" y="403"/>
      <point x="139" y="361"/>
      <point x="221" y="331"/>
      <point x="275" y="318" type="qcurve" smooth="yes"/>
      <point x="325" y="306"/>
      <point x="401" y="283"/>
      <point x="453" y="253"/>
      <point x="480" y="212"/>
      <point x="480" y="182" type="qcurve" smooth="yes"/>
      <point x="480" y="128"/>
      <point x="396" y="74"/>
      <point x="320" y="74" type="qcurve" smooth="yes"/>
      <point x="280" y="74"/>
      <point x="204" y="91"/>
      <point x="139" y="118"/>
      <point x="88" y="152"/>
      <point x="72" y="169" type="qcurve"/>
      <point x="29" y="93" type="line"/>
      <point x="59" y="69"/>
      <point x="126" y="31"/>
      <point x="199" y="6"/>
      <point x="277" y="-7"/>
      <point x="318" y="-7" type="qcurve" smooth="yes"/>
      <point x="373" y="-7"/>
      <point x="467" y="16"/>
      <point x="536" y="65"/>
      <point x="576" y="140"/>
      <point x="576" y="191" type="qcurve" smooth="yes"/>
      <point x="576" y="239"/>
      <point x="543" y="305"/>
      <point x="480" y="351"/>
      <point x="392" y="382"/>
      <point x="336" y="394" type="qcurve" smooth="yes"/>
      <point x="288" y="405"/>
      <point x="218" y="425"/>
      <point x="171" y="452"/>
      <point x="149" y="491"/>
      <point x="149" y="519" type="qcurve" smooth="yes"/>
      <point x="149" y="573"/>
      <point x="227" y="635"/>
      <point x="309" y="635" type="qcurve" smooth="yes"/>
      <point x="341" y="635"/>
      <point x="400" y="622"/>
      <point x="450" y="601"/>
      <point x="490" y="575"/>
      <point x="502" y="561" type="qcurve"/>
    </contour>
  </outline>
</glyph>
<glyph name="U" format="2">
  <advance width="755"/>
  <unicode hex="0055"/>
  <outline>
    <contour>
      <point x="378" y="-5" type="qcurve" smooth="yes"/>
      <point x="460" y="-5"/>
      <point x="575" y="52"/>
      <point x="647" y="150"/>
      <point x="680" y="279"/>
      <point x="680" y="351" type="qcurve" smooth="yes"/>
      <point x="680" y="710" type="line"/>
      <point x="590" y="710" type="line"/>
      <point x="590" y="351" type="line" smooth="yes"/>
      <point x="590" y="300"/>
      <point x="570" y="201"/>
      <point x="521" y="124"/>
      <point x="439" y="76"/>
      <point x="377" y="76" type="qcurve" smooth="yes"/>
      <point x="316" y="76"/>
      <point x="235" y="123"/>
      <point x="186" y="199"/>
      <point x="165" y="299"/>
      <point x="165" y="351" type="qcurve" smooth="yes"/>
      <point x="165" y="710" type="line"/>
      <point x="75" y="710" type="line"/>
      <point x="75" y="351" type="line" smooth="yes"/>
      <point x="75" y="283"/>
      <point x="106" y="154"/>
      <point x="177" y="55"/>
      <point x="293" y="-5"/>
    </contour>
  </outline>
</glyph>
<glyph name="W" format="2">
  <advance width="1077"/>
  <unicode hex="0057"/>
  <outline>
    <contour>
      <point x="243" y="0" type="line"/>
      <point x="337" y="0" type="line"/>
      <point x="536" y="563" type="line"/>
      <point x="740" y="0" type="line"/>
      <point x="834" y="0" type="line"/>
      <point x="1059" y="710" type="line"/>
      <point x="957" y="710" type="line"/>
      <point x="779" y="133" type="line"/>
      <point x="584" y="710" type="line"/>
      <point x="486" y="710" type="line"/>
      <point x="298" y="133" type="line"/>
      <point x="119" y="710" type="line"/>
      <point x="18" y="710" type="line"/>
    </contour>
  </outline>
</glyph>
<glyph name="a" format="2">
  <advance width="549"/>
  <unicode hex="0061"/>
  <outline>
    <contour>
      <point x="484" y="0" type="line"/>
      <point x="484" y="321" type="line" smooth="yes"/>
      <point x="484" y="368"/>
      <point x="456" y="446"/>
      <point x="400" y="501"/>
      <point x="319" y="531"/>
      <point x="266" y="531" type="qcurve" smooth="yes"/>
      <point x="209" y="531"/>
      <point x="108" y="493"/>
      <point x="63" y="463" type="qcurve"/>
      <point x="92" y="406" type="line"/>
      <point x="135" y="436"/>
      <point x="217" y="467"/>
      <point x="258" y="467" type="qcurve" smooth="yes"/>
      <point x="291" y="467"/>
      <point x="342" y="448"/>
      <point x="377" y="412"/>
      <point x="396" y="361"/>
      <point x="396" y="330" type="qcurve" smooth="yes"/>
      <point x="396" y="288" type="line"/>
      <point x="376" y="297"/>
      <point x="301" y="314"/>
      <point x="250" y="314" type="qcurve" smooth="yes"/>
      <point x="210" y="314"/>
      <point x="131" y="295"/>
      <point x="68" y="255"/>
      <point x="30" y="194"/>
      <point x="30" y="153" type="qcurve" smooth="yes"/>
      <point x="30" y="119"/>
      <point x="57" y="59"/>
      <point x="104" y="15"/>
      <point x="168" y="-10"/>
      <point x="205" y="-10" type="qcurve" smooth="yes"/>
      <point x="262" y="-10"/>
      <point x="365" y="33"/>
      <point x="399" y="79" type="qcurve"/>
      <point x="399" y="0" type="line"/>
    </contour>
    <contour>
      <point x="377" y="120" type="qcurve"/>
      <point x="365" y="104"/>
      <point x="331" y="79"/>
      <point x="291" y="64"/>
      <point x="248" y="56"/>
      <point x="228" y="56" type="qcurve" smooth="yes"/>
      <point x="205" y="56"/>
      <point x="164" y="71"/>
      <point x="132" y="98"/>
      <point x="114" y="137"/>
      <point x="114" y="160" type="qcurve" smooth="yes"/>
      <point x="114" y="187"/>
      <point x="141" y="225"/>
      <point x="184" y="250"/>
      <point x="237" y="261"/>
      <point x="263" y="261" type="qcurve" smooth="yes"/>
      <point x="295" y="261"/>
      <point x="364" y="249"/>
      <point x="396" y="236" type="qcurve"/>
      <point x="396" y="159" type="line" smooth="yes"/>
      <point x="396" y="150"/>
      <point x="386" y="130"/>
    </contour>
  </outline>
</glyph>
<glyph name="b" format="2">
  <advance width="623"/>
  <unicode hex="0062"/>
  <outline>
    <contour>
      <point x="339" y="-10" type="qcurve" smooth="yes"/>
      <point x="392" y="-10"/>
      <point x="482" y="33"/>
      <point x="548" y="106"/>
      <point x="586" y="204"/>
      <point x="586" y="259" type="qcurve" smooth="yes"/>
      <point x="586" y="312"/>
      <point x="553" y="410"/>
      <point x="492" y="485"/>
      <point x="406" y="531"/>
      <point x="352" y="531" type="qcurve" smooth="yes"/>
      <point x="288" y="531"/>
      <point x="192" y="469"/>
      <point x="159" y="418" type="qcurve"/>
      <point x="159" y="730" type="line"/>
      <point x="71" y="730" type="line"/>
      <point x="71" y="0" type="line"/>
      <point x="149" y="0" type="line"/>
      <point x="149" y="98" type="line"/>
      <point x="163" y="74"/>
      <point x="203" y="34"/>
      <point x="252" y="6"/>
      <point x="309" y="-10"/>
    </contour>
    <contour>
      <point x="317" y="66" type="qcurve" smooth="yes"/>
      <point x="293" y="66"/>
      <point x="242" y="84"/>
      <point x="197" y="115"/>
      <point x="164" y="157"/>
      <point x="159" y="182" type="qcurve"/>
      <point x="159" y="333" type="line"/>
      <point x="171" y="358"/>
      <point x="204" y="402"/>
      <point x="247" y="435"/>
      <point x="297" y="455"/>
      <point x="325" y="455" type="qcurve" smooth="yes"/>
      <point x="363" y="455"/>
      <point x="426" y="422"/>
      <point x="471" y="368"/>
      <point x="496" y="297"/>
      <point x="496" y="259" type="qcurve" smooth="yes"/>
      <point x="496" y="222"/>
      <point x="470" y="152"/>
      <point x="422" y="98"/>
      <point x="356" y="66"/>
    </contour>
  </outline>
</glyph>
<glyph name="c" format="2">
  <advance width="554"/>
  <unicode hex="0063"/>
  <outline>
    <contour>
      <point x="302" y="-10" type="qcurve" smooth="yes"/>
      <point x="341" y="-10"/>
      <point x="412" y="10"/>
      <point x="470" y="44"/>
      <point x="513" y="93"/>
      <point x="525" y="121" type="qcurve"/>
      <point x="439" y="147" type="line"/>
      <point x="433" y="131"/>
      <point x="405" y="101"/>
      <point x="368" y="79"/>
      <point x="323" y="66"/>
      <point x="300" y="66" type="qcurve" smooth="yes"/>
      <point x="264" y="66"/>
      <point x="201" y="96"/>
      <point x="154" y="149"/>
      <point x="126" y="221"/>
      <point x="126" y="262" type="qcurve" smooth="yes"/>
      <point x="126" y="304"/>
      <point x="153" y="374"/>
      <point x="199" y="426"/>
      <point x="263" y="455"/>
      <point x="299" y="455" type="qcurve" smooth="yes"/>
      <point x="343" y="455"/>
      <point x="415" y="414"/>
      <point x="435" y="377" type="qcurve"/>
      <point x="521" y="404" type="line"/>
      <point x="492" y="462"/>
      <point x="379" y="531"/>
      <point x="301" y="531" type="qcurve" smooth="yes"/>
      <point x="241" y="531"/>
      <point x="144" y="488"/>
      <point x="74" y="415"/>
      <point x="36" y="317"/>
      <point x="36" y="262" type="qcurve" smooth="yes"/>
      <point x="36" y="207"/>
      <point x="75" y="108"/>
      <point x="145" y="34"/>
      <point x="243" y="-10"/>
    </contour>
  </outline>
</glyph>
<glyph name="e" format="2">
  <advance width="591"/>
  <unicode hex="0065"/>
  <outline>
    <contour>
      <point x="302" y="-10" type="qcurve" smooth="yes"/>
      <point x="341" y="-10"/>
      <point x="413" y="10"/>
      <point x="472" y="45"/>
      <point x="517" y="93"/>
      <point x="530" y="122" type="qcurve"/>
      <point x="454" y="143" type="line"/>
      <point x="446" y="124"/>
      <point x="415" y="91"/>
      <point x="375" y="69"/>
      <point x="329" y="56"/>
      <point x="305" y="56" type="qcurve" smooth="yes"/>
      <point x="271" y="56"/>
      <point x="210" y="82"/>
      <point x="162" y="128"/>
      <point x="132" y="192"/>
      <point x="129" y="231" type="qcurve"/>
      <point x="562" y="231" type="line"/>
      <point x="563" y="236"/>
      <point x="564" y="254"/>
      <point x="564" y="265" type="qcurve" smooth="yes"/>
      <point x="564" y="318"/>
      <point x="527" y="414"/>
      <point x="459" y="487"/>
      <point x="362" y="531"/>
      <point x="303" y="531" type="qcurve" smooth="yes"/>
      <point x="244" y="531"/>
      <point x="146" y="488"/>
      <point x="75" y="414"/>
      <point x="36" y="316"/>
      <point x="36" y="261" type="qcurve" smooth="yes"/>
      <point x="36" y="206"/>
      <point x="75" y="107"/>
      <point x="145" y="33"/>
      <point x="243" y="-10"/>
    </contour>
    <contour>
      <point x="126" y="292" type="line"/>
      <point x="129" y="330"/>
      <point x="158" y="393"/>
      <point x="206" y="439"/>
      <point x="268" y="465"/>
      <point x="303" y="465" type="qcurve" smooth="yes"/>
      <point x="338" y="465"/>
      <point x="400" y="440"/>
      <point x="448" y="394"/>
      <point x="479" y="330"/>
      <point x="482" y="292" type="qcurve"/>
    </contour>
  </outline>
</glyph>
<glyph name="f" format="2">
  <advance width="343"/>
  <unicode hex="0066"/>
  <outline>
    <contour>
      <point x="187" y="0" type="line"/>
      <point x="187" y="453" type="line"/>
      <point x="326" y="453" type="line"/>
      <point x="326" y="522" type="line"/>
      <point x="187" y="522" type="line"/>
      <point x="187" y="536" type="line" smooth="yes"/>
      <point x="187" y="599"/>
      <point x="233" y="665"/>
      <point x="277" y="665" type="qcurve" smooth="yes"/>
      <point x="297" y="665"/>
      <point x="338" y="653"/>
      <point x="352" y="643" type="qcurve"/>
      <point x="374" y="708" type="line"/>
      <point x="350" y="723"/>
      <point x="290" y="740"/>
      <point x="259" y="740" type="qcurve" smooth="yes"/>
      <point x="222" y="740"/>
      <point x="163" y="711"/>
      <point x="121" y="658"/>
      <point x="99" y="581"/>
      <point x="99" y="533" type="qcurve" smooth="yes"/>
      <point x="99" y="522" type="line"/>
      <point x="28" y="522" type="line"/>
      <point x="28" y="453" type="line"/>
      <point x="99" y="453" type="line"/>
      <point x="99" y="0" type="line"/>
    </contour>
  </outline>
</glyph>
<glyph name="g" format="2">
  <advance width="624"/>
  <unicode hex="0067"/>
  <outline>
    <contour>
      <point x="279" y="-6" type="qcurve" smooth="yes"/>
      <point x="335" y="-6"/>
      <point x="436" y="50"/>
      <point x="465" y="98" type="qcurve"/>
      <point x="465" y="6" type="line" smooth="yes"/>
      <point x="465" y="-35"/>
      <point x="436" y="-95"/>
      <point x="388" y="-135"/>
      <point x="323" y="-155"/>
      <point x="287" y="-155" type="qcurve" smooth="yes"/>
      <point x="230" y="-155"/>
      <point x="132" y="-109"/>
      <point x="101" y="-63" type="qcurve"/>
      <point x="50" y="-108" type="line"/>
      <point x="87" y="-161"/>
      <point x="199" y="-223"/>
      <point x="287" y="-223" type="qcurve" smooth="yes"/>
      <point x="343" y="-223"/>
      <point x="440" y="-193"/>
      <point x="512" y="-135"/>
      <point x="553" y="-50"/>
      <point x="553" y="6" type="qcurve" smooth="yes"/>
      <point x="553" y="522" type="line"/>
      <point x="475" y="522" type="line"/>
      <point x="475" y="418" type="line"/>
      <point x="459" y="442"/>
      <point x="418" y="484"/>
      <point x="369" y="514"/>
      <point x="313" y="531"/>
      <point x="280" y="531" type="qcurve" smooth="yes"/>
      <point x="226" y="531"/>
      <point x="137" y="488"/>
      <point x="73" y="414"/>
      <point x="38" y="315"/>
      <point x="38" y="260" type="qcurve" smooth="yes"/>
      <point x="38" y="208"/>
      <point x="73" y="112"/>
      <point x="137" y="38"/>
      <point x="226" y="-6"/>
    </contour>
    <contour>
      <point x="306" y="66" type="qcurve" smooth="yes"/>
      <point x="269" y="66"/>
      <point x="203" y="97"/>
      <point x="155" y="149"/>
      <point x="127" y="219"/>
      <point x="127" y="258" type="qcurve" smooth="yes"/>
      <point x="127" y="294"/>
      <point x="151" y="365"/>
      <point x="195" y="421"/>
      <point x="258" y="455"/>
      <point x="298" y="455" type="qcurve" smooth="yes"/>
      <point x="324" y="455"/>
      <point x="375" y="437"/>
      <point x="419" y="404"/>
      <point x="455" y="360"/>
      <point x="465" y="333" type="qcurve"/>
      <point x="465" y="183" type="line"/>
      <point x="460" y="161"/>
      <point x="430" y="119"/>
      <point x="386" y="86"/>
      <point x="334" y="66"/>
    </contour>
  </outline>
</glyph>
<glyph name="l" format="2">
  <advance width="286"/>
  <unicode hex="006C"/>
  <outline>
    <contour>
      <point x="73" y="103" type="line" smooth="yes"/>
      <point x="73" y="51"/>
      <point x="132" y="-7"/>
      <point x="183" y="-7" type="qcurve" smooth="yes"/>
      <point x="206" y="-7"/>
      <point x="266" y="5"/>
      <point x="288" y="14" type="qcurve"/>
      <point x="274" y="86" type="line"/>
      <point x="261" y="81"/>
      <point x="223" y="72"/>
      <point x="202" y="72" type="qcurve" smooth="yes"/>
      <point x="193" y="72"/>
      <point x="178" y="75"/>
      <point x="167" y="88"/>
      <point x="161" y="113"/>
      <point x="161" y="135" type="qcurve" smooth="yes"/>
      <point x="161" y="730" type="line"/>
      <point x="73" y="730" type="line"/>
    </contour>
  </outline>
</glyph>
<glyph name="m" format="2">
  <advance width="924"/>
  <unicode hex="006D"/>
  <outline>
    <contour>
      <point x="858" y="312" type="line" smooth="yes"/>
      <point x="858" y="359"/>
      <point x="842" y="439"/>
      <point x="806" y="498"/>
      <point x="745" y="531"/>
      <point x="700" y="531" type="qcurve" smooth="yes"/>
      <point x="636" y="531"/>
      <point x="536" y="467"/>
      <point x="501" y="404" type="qcurve"/>
      <point x="492" y="460"/>
      <point x="414" y="531"/>
      <point x="349" y="531" type="qcurve" smooth="yes"/>
      <point x="285" y="531"/>
      <point x="183" y="468"/>
      <point x="151" y="410" type="qcurve"/>
      <point x="151" y="522" type="line"/>
      <point x="71" y="522" type="line"/>
      <point x="71" y="0" type="line"/>
      <point x="159" y="0" type="line"/>
      <point x="159" y="315" type="line"/>
      <point x="168" y="346"/>
      <point x="200" y="396"/>
      <point x="241" y="432"/>
      <point x="290" y="452"/>
      <point x="316" y="452" type="qcurve" smooth="yes"/>
      <point x="368" y="452"/>
      <point x="420" y="376"/>
      <point x="420" y="292" type="qcurve" smooth="yes"/>
      <point x="420" y="0" type="line"/>
      <point x="508" y="0" type="line"/>
      <point x="508" y="314" type="line"/>
      <point x="517" y="344"/>
      <point x="548" y="395"/>
      <point x="589" y="432"/>
      <point x="638" y="452"/>
      <point x="665" y="452" type="qcurve" smooth="yes"/>
      <point x="717" y="452"/>
      <point x="770" y="374"/>
      <point x="770" y="292" type="qcurve" smooth="yes"/>
      <point x="770" y="0" type="line"/>
      <point x="858" y="0" type="line"/>
    </contour>
  </outline>
</glyph>
<glyph name="n" format="2">
  <advance width="590"/>
  <unicode hex="006E"/>
  <outline>
    <contour>
      <point x="524" y="312" type="line" smooth="yes"/>
      <point x="524" y="359"/>
      <point x="509" y="440"/>
      <point x="473" y="498"/>
      <point x="413" y="531"/>
      <point x="368" y="531" type="qcurve" smooth="yes"/>
      <point x="334" y="531"/>
      <point x="269" y="514"/>
      <point x="212" y="482"/>
      <point x="166" y="437"/>
      <point x="151" y="410" type="qcurve"/>
      <point x="151" y="522" type="line"/>
      <point x="71" y="522" type="line"/>
      <point x="71" y="0" type="line"/>
      <point x="159" y="0" type="line"/>
      <point x="159" y="315" type="line"/>
      <point x="168" y="345"/>
      <point x="204" y="395"/>
      <point x="252" y="431"/>
      <point x="306" y="452"/>
      <point x="333" y="452" type="qcurve" smooth="yes"/>
      <point x="385" y="452"/>
      <point x="436" y="376"/>
      <point x="436" y="292" type="qcurve" smooth="yes"/>
      <point x="436" y="0" type="line"/>
      <point x="524" y="0" type="line"/>
    </contour>
  </outline>
</glyph>
<glyph name="q" format="2">
  <advance width="623"/>
  <unicode hex="0071"/>
  <outline>
    <contour>
      <point x="271" y="-10" type="qcurve" smooth="yes"/>
      <point x="331" y="-10"/>
      <point x="429" y="47"/>
      <point x="464" y="103" type="qcurve"/>
      <point x="464" y="-213" type="line"/>
      <point x="552" y="-213" type="line"/>
      <point x="552" y="522" type="line"/>
      <point x="474" y="522" type="line"/>
      <point x="474" y="423" type="line"/>
      <point x="459" y="447"/>
      <point x="419" y="486"/>
      <point x="370" y="515"/>
      <point x="314" y="531"/>
      <point x="284" y="531" type="qcurve" smooth="yes"/>
      <point x="232" y="531"/>
      <point x="142" y="488"/>
      <point x="75" y="414"/>
      <point x="37" y="316"/>
      <point x="37" y="261" type="qcurve" smooth="yes"/>
      <point x="37" y="207"/>
      <point x="71" y="109"/>
      <point x="133" y="34"/>
      <point x="219" y="-10"/>
    </contour>
    <contour>
      <point x="301" y="66" type="qcurve" smooth="yes"/>
      <point x="263" y="66"/>
      <point x="199" y="97"/>
      <point x="153" y="149"/>
      <point x="127" y="220"/>
      <point x="127" y="259" type="qcurve" smooth="yes"/>
      <point x="127" y="296"/>
      <point x="153" y="367"/>
      <point x="200" y="422"/>
      <point x="264" y="455"/>
      <point x="303" y="455" type="qcurve" smooth="yes"/>
      <point x="329" y="455"/>
      <point x="382" y="434"/>
      <point x="427" y="400"/>
      <point x="460" y="354"/>
      <point x="464" y="328" type="qcurve"/>
      <point x="464" y="178" type="line"/>
      <point x="451" y="155"/>
      <point x="418" y="114"/>
      <point x="377" y="84"/>
      <point x="329" y="66"/>
    </contour>
  </outline>
</glyph>
<glyph name="r" format="2">
  <advance width="374"/>
  <unicode hex="0072"/>
  <outline>
    <contour>
      <point x="374" y="525" type="line"/>
      <point x="370" y="528"/>
      <point x="341" y="531"/>
      <point x="318" y="531" type="curve" smooth="yes"/>
      <point x="257" y="531"/>
      <point x="193" y="481"/>
      <point x="153" y="401" type="curve"/>
      <point x="153" y="522" type="line"/>
      <point x="71" y="522" type="line"/>
      <point x="71" y="0" type="line"/>
      <point x="159" y="0" type="line"/>
      <point x="159" y="322" type="line"/>
      <point x="174" y="361"/>
      <point x="199" y="398"/>
      <point x="227" y="421" type="curve" smooth="yes"/>
      <point x="254" y="444"/>
      <point x="283" y="456"/>
      <point x="311" y="456" type="curve" smooth="yes"/>
      <point x="323" y="456"/>
      <point x="335" y="454"/>
      <point x="347" y="450" type="curve"/>
    </contour>
  </outline>
</glyph>
<glyph name="s" format="2">
  <advance width="488"/>
  <unicode hex="0073"/>
  <outline>
    <contour>
      <point x="250" y="-10" type="qcurve" smooth="yes"/>
      <point x="296" y="-10"/>
      <point x="371" y="11"/>
      <point x="425" y="52"/>
      <point x="454" y="110"/>
      <point x="454" y="147" type="qcurve" smooth="yes"/>
      <point x="454" y="183"/>
      <point x="426" y="230"/>
      <point x="375" y="263"/>
      <point x="304" y="287"/>
      <point x="260" y="300" type="qcurve" smooth="yes"/>
      <point x="231" y="309"/>
      <point x="187" y="324"/>
      <point x="157" y="342"/>
      <point x="142" y="367"/>
      <point x="142" y="386" type="qcurve" smooth="yes"/>
      <point x="142" y="408"/>
      <point x="162" y="437"/>
      <point x="194" y="455"/>
      <point x="234" y="462"/>
      <point x="255" y="462" type="qcurve" smooth="yes"/>
      <point x="301" y="462"/>
      <point x="375" y="431"/>
      <point x="406" y="399" type="qcurve"/>
      <point x="446" y="460" type="line"/>
      <point x="412" y="495"/>
      <point x="318" y="531"/>
      <point x="260" y="531" type="qcurve" smooth="yes"/>
      <point x="216" y="531"/>
      <point x="142" y="510"/>
      <point x="89" y="471"/>
      <point x="59" y="413"/>
      <point x="59" y="376" type="qcurve" smooth="yes"/>
      <point x="59" y="345"/>
      <point x="81" y="300"/>
      <point x="123" y="266"/>
      <point x="185" y="241"/>
      <point x="225" y="229" type="qcurve" smooth="yes"/>
      <point x="258" y="220"/>
      <point x="311" y="206"/>
      <point x="348" y="188"/>
      <point x="368" y="162"/>
      <point x="368" y="141" type="qcurve" smooth="yes"/>
      <point x="368" y="101"/>
      <point x="300" y="60"/>
      <point x="246" y="60" type="qcurve" smooth="yes"/>
      <point x="198" y="60"/>
      <point x="109" y="96"/>
      <point x="64" y="138" type="qcurve"/>
      <point x="30" y="76" type="line"/>
      <point x="72" y="33"/>
      <point x="184" y="-10"/>
    </contour>
  </outline>
</glyph>
<glyph name="t" format="2">
  <advance width="352"/>
  <unicode hex="0074"/>
  <outline>
    <contour>
      <point x="320" y="96" type="line"/>
      <point x="316" y="94"/>
      <point x="301" y="86"/>
      <point x="281" y="79"/>
      <point x="256" y="74"/>
      <point x="243" y="74" type="qcurve" smooth="yes"/>
      <point x="220" y="74"/>
      <point x="186" y="100"/>
      <point x="184" y="129" type="qcurve"/>
      <point x="184" y="453" type="line"/>
      <point x="301" y="453" type="line"/>
      <point x="301" y="522" type="line"/>
      <point x="184" y="522" type="line"/>
      <point x="184" y="696" type="line"/>
      <point x="96" y="696" type="line"/>
      <point x="96" y="522" type="line"/>
      <point x="25" y="522" type="line"/>
      <point x="25" y="453" type="line"/>
      <point x="96" y="453" type="line"/>
      <point x="96" y="102" type="line" smooth="yes"/>
      <point x="96" y="74"/>
      <point x="115" y="33"/>
      <point x="147" y="6"/>
      <point x="190" y="-7"/>
      <point x="214" y="-7" type="qcurve" smooth="yes"/>
      <point x="235" y="-7"/>
      <point x="274" y="1"/>
      <point x="307" y="11"/>
      <point x="333" y="22"/>
      <point x="341" y="26" type="qcurve"/>
    </contour>
  </outline>
</glyph>
<glyph name="u" format="2">
  <advance width="596"/>
  <unicode hex="0075"/>
  <outline>
    <contour>
      <point x="525" y="0" type="line"/>
      <point x="525" y="522" type="line"/>
      <point x="437" y="522" type="line"/>
      <point x="437" y="195" type="line"/>
      <point x="427" y="168"/>
      <point x="392" y="120"/>
      <point x="348" y="86"/>
      <point x="296" y="66"/>
      <point x="269" y="66" type="qcurve" smooth="yes"/>
      <point x="235" y="66"/>
      <point x="190" y="91"/>
      <point x="164" y="134"/>
      <point x="154" y="193"/>
      <point x="154" y="226" type="qcurve" smooth="yes"/>
      <point x="154" y="522" type="line"/>
      <point x="66" y="522" type="line"/>
      <point x="66" y="209" type="line" smooth="yes"/>
      <point x="66" y="164"/>
      <point x="82" y="84"/>
      <point x="121" y="24"/>
      <point x="188" y="-10"/>
      <point x="238" y="-10" type="qcurve" smooth="yes"/>
      <point x="269" y="-10"/>
      <point x="328" y="6"/>
      <point x="381" y="36"/>
      <point x="425" y="79"/>
      <point x="440" y="107" type="qcurve"/>
      <point x="440" y="0" type="line"/>
    </contour>
  </outline>
</glyph>
<glyph name="y" format="2">
  <advance width="547"/>
  <unicode hex="0079"/>
  <outline>
    <contour>
      <point x="444" y="522" type="line"/>
      <point x="281" y="79" type="line"/>
      <point x="104" y="522" type="line"/>
      <point x="12" y="522" type="line"/>
      <point x="233" y="0" type="line"/>
      <point x="147" y="-213" type="line"/>
      <point x="247" y="-213" type="line"/>
      <point x="528" y="522" type="line"/>
    </contour>
  </outline>
</glyph>
<glyph name="braceleft" format="2">
  <advance width="271"/>
  <unicode hex="007B"/>
  <outline>
    <contour>
      <point x="224" y="668" type="line"/>
      <point x="224" y="740" type="line"/>
      <point x="112" y="740" type="line" smooth="yes"/>
      <point x="107" y="740"/>
      <point x="89" y="729"/>
      <point x="89" y="710" type="qcurve" smooth="yes"/>
      <point x="89" y="450" type="line" smooth="yes"/>
      <point x="89" y="443"/>
      <point x="84" y="423"/>
      <point x="73" y="405"/>
      <point x="58" y="393"/>
      <point x="47" y="393" type="qcurve"/>
      <point x="47" y="329" type="line"/>
      <point x="66" y="326"/>
      <point x="89" y="292"/>
      <point x="89" y="270" type="qcurve" smooth="yes"/>
      <point x="89" y="-1" type="line" smooth="yes"/>
      <point x="89" y="-18"/>
      <point x="104" y="-31"/>
      <point x="112" y="-31" type="qcurve" smooth="yes"/>
      <point x="224" y="-31" type="line"/>
      <point x="224" y="41" type="line"/>
      <point x="169" y="41" type="line"/>
      <point x="169" y="296" type="line" smooth="yes"/>
      <point x="169" y="310"/>
      <point x="155" y="346"/>
      <point x="140" y="360" type="qcurve"/>
      <point x="156" y="374"/>
      <point x="169" y="410"/>
      <point x="169" y="424" type="qcurve" smooth="yes"/>
      <point x="169" y="668" type="line"/>
    </contour>
  </outline>
</glyph>
<glyph name="braceright" format="2">
  <advance width="271"/>
  <unicode hex="007D"/>
  <outline>
    <contour>
      <point x="102" y="668" type="line"/>
      <point x="102" y="424" type="line" smooth="yes"/>
      <point x="102" y="410"/>
      <point x="115" y="374"/>
      <point x="131" y="360" type="qcurve"/>
      <point x="115" y="346"/>
      <point x="102" y="310"/>
      <point x="102" y="296" type="qcurve" smooth="yes"/>
      <point x="102" y="41" type="line"/>
      <point x="47" y="41" type="line"/>
      <point x="47" y="-31" type="line"/>
      <point x="159" y="-31" type="line" smooth="yes"/>
      <point x="166" y="-31"/>
      <point x="182" y="-18"/>
      <point x="182" y="-1" type="qcurve" smooth="yes"/>
      <point x="182" y="270" type="line" smooth="yes"/>
      <point x="182" y="292"/>
      <point x="204" y="326"/>
      <point x="224" y="329" type="qcurve"/>
      <point x="224" y="393" type="line"/>
      <point x="214" y="393"/>
      <point x="198" y="405"/>
      <point x="187" y="423"/>
      <point x="182" y="443"/>
      <point x="182" y="450" type="qcurve" smooth="yes"/>
      <point x="182" y="710" type="line" smooth="yes"/>
      <point x="182" y="729"/>
      <point x="164" y="740"/>
      <point x="159" y="740" type="qcurve" smooth="yes"/>
      <point x="47" y="740" type="line"/>
      <point x="47" y="668" type="line"/>
    </contour>
  </outline>
</glyph>
<glyph name="asciitilde" format="2">
  <advance width="532"/>
  <unicode hex="007E"/>
  <outline>
    <contour>
      <point x="65" y="237" type="qcurve"/>
      <point x="117" y="237" type="line"/>
      <point x="117" y="238"/>
      <point x="123" y="255"/>
      <point x="138" y="276"/>
      <point x="163" y="293"/>
      <point x="181" y="293" type="qcurve" smooth="yes"/>
      <point x="200" y="293"/>
      <point x="237" y="276"/>
      <point x="277" y="255"/>
      <point x="321" y="237"/>
      <point x="346" y="237" type="qcurve" smooth="yes"/>
      <point x="381" y="237"/>
      <point x="428" y="268"/>
      <point x="456" y="307"/>
      <point x="468" y="341"/>
      <point x="468" y="344" type="qcurve"/>
      <point x="416" y="344" type="line"/>
      <point x="416" y="342"/>
      <point x="409" y="325"/>
      <point x="393" y="307"/>
      <point x="367" y="292"/>
      <point x="347" y="292" type="qcurve" smooth="yes"/>
      <point x="326" y="292"/>
      <point x="287" y="310"/>
      <point x="248" y="331"/>
      <point x="206" y="349"/>
      <point x="182" y="349" type="qcurve" smooth="yes"/>
      <point x="149" y="349"/>
      <point x="105" y="319"/>
      <point x="77" y="280"/>
      <point x="65" y="243"/>
    </contour>
  </outline>
</glyph>
<glyph name="exclamdown" format="2">
  <advance width="262"/>
  <unicode hex="00A1"/>
  <outline>
    <contour>
      <point x="193" y="467" type="curve" smooth="yes"/>
      <point x="193" y="501"/>
      <point x="165" y="529"/>
      <point x="131" y="529" type="curve" smooth="yes"/>
      <point x="97" y="529"/>
      <point x="69" y="501"/>
      <point x="69" y="467" type="curve" smooth="yes"/>
      <point x="69" y="433"/>
      <point x="97" y="406"/>
      <point x="131" y="406" type="curve" smooth="yes"/>
      <point x="165" y="406"/>
      <point x="193" y="433"/>
    </contour>
    <contour>
      <point x="117" y="279" type="line"/>
      <point x="87" y="19" type="line"/>
      <point x="87" y="-198" type="line"/>
      <point x="175" y="-198" type="line"/>
      <point x="175" y="19" type="line"/>
      <point x="145" y="279" type="line"/>
    </contour>
  </outline>
</glyph>
<glyph name="cent" format="2">
  <advance width="570"/>
  <unicode hex="00A2"/>
  <outline>
    <contour>
      <point x="320" y="-120" type="line"/>
      <point x="320" y="-10" type="line"/>
      <point x="347" y="-10"/>
      <point x="410" y="6"/>
      <point x="470" y="39"/>
      <point x="519" y="88"/>
      <point x="532" y="121" type="qcurve"/>
      <point x="446" y="147" type="line"/>
      <point x="441" y="130"/>
      <point x="413" y="102"/>
      <point x="377" y="82"/>
      <point x="338" y="70"/>
      <point x="320" y="68" type="qcurve"/>
      <point x="320" y="452" type="line"/>
      <point x="358" y="450"/>
      <point x="422" y="413"/>
      <point x="442" y="377" type="qcurve"/>
      <point x="527" y="404" type="line"/>
      <point x="498" y="462"/>
      <point x="393" y="528"/>
      <point x="320" y="530" type="qcurve"/>
      <point x="320" y="645" type="line"/>
      <point x="276" y="645" type="line"/>
      <point x="276" y="530" type="line"/>
      <point x="221" y="524"/>
      <point x="134" y="475"/>
      <point x="74" y="402"/>
      <point x="42" y="309"/>
      <point x="42" y="258" type="qcurve" smooth="yes"/>
      <point x="42" y="210"/>
      <point x="77" y="118"/>
      <point x="139" y="44"/>
      <point x="225" y="-5"/>
      <point x="276" y="-9" type="qcurve"/>
      <point x="276" y="-120" type="line"/>
    </contour>
    <contour>
      <point x="132" y="258" type="qcurve" smooth="yes"/>
      <point x="132" y="291"/>
      <point x="151" y="356"/>
      <point x="188" y="409"/>
      <point x="242" y="445"/>
      <point x="276" y="449" type="qcurve"/>
      <point x="276" y="72" type="line"/>
      <point x="245" y="78"/>
      <point x="192" y="113"/>
      <point x="153" y="163"/>
      <point x="132" y="225"/>
    </contour>
  </outline>
</glyph>
<glyph name="sterling" format="2">
  <advance width="512"/>
  <unicode hex="00A3"/>
  <outline>
    <contour>
      <point x="53" y="307" type="line"/>
      <point x="402" y="307" type="line"/>
      <point x="402" y="375" type="line"/>
      <point x="53" y="375" type="line"/>
    </contour>
    <contour>
      <point x="75" y="-8" type="line"/>
      <point x="114" y="3"/>
      <point x="144" y="8"/>
      <point x="170" y="9" type="curve" smooth="yes"/>
      <point x="217" y="11"/>
      <point x="250" y="0"/>
      <point x="291" y="-8" type="curve" smooth="yes"/>
      <point x="312" y="-12"/>
      <point x="334" y="-15"/>
      <point x="361" y="-15" type="curve" smooth="yes"/>
      <point x="398" y="-15"/>
      <point x="437" y="-5"/>
      <point x="472" y="12" type="curve"/>
      <point x="450" y="79" type="line"/>
      <point x="415" y="67"/>
      <point x="392" y="61"/>
      <point x="365" y="61" type="curve" smooth="yes"/>
      <point x="342" y="61"/>
      <point x="323" y="63"/>
      <point x="305" y="66" type="curve" smooth="yes"/>
      <point x="278" y="71"/>
      <point x="254" y="77"/>
      <point x="224" y="78" type="curve"/>
      <point x="204" y="78"/>
      <point x="180" y="76"/>
      <point x="151" y="69" type="curve"/>
      <point x="187" y="108"/>
      <point x="211" y="140"/>
      <point x="227" y="171" type="curve" smooth="yes"/>
      <point x="243" y="202"/>
      <point x="249" y="232"/>
      <point x="249" y="264" type="curve" smooth="yes"/>
      <point x="249" y="324"/>
      <point x="227" y="370"/>
      <point x="204" y="413" type="curve" smooth="yes"/>
      <point x="180" y="456"/>
      <point x="158" y="494"/>
      <point x="158" y="535" type="curve" smooth="yes"/>
      <point x="158" y="566"/>
      <point x="169" y="592"/>
      <point x="189" y="611" type="curve" smooth="yes"/>
      <point x="208" y="630"/>
      <point x="235" y="642"/>
      <point x="264" y="642" type="curve" smooth="yes"/>
      <point x="317" y="642"/>
      <point x="374" y="608"/>
      <point x="406" y="556" type="curve"/>
      <point x="455" y="610" type="line"/>
      <point x="412" y="675"/>
      <point x="342" y="715"/>
      <point x="266" y="715" type="curve" smooth="yes"/>
      <point x="214" y="715"/>
      <point x="167" y="696"/>
      <point x="133" y="665" type="curve" smooth="yes"/>
      <point x="99" y="633"/>
      <point x="77" y="590"/>
      <point x="77" y="542" type="curve" smooth="yes"/>
      <point x="77" y="493"/>
      <point x="101" y="450"/>
      <point x="125" y="406" type="curve" smooth="yes"/>
      <point x="148" y="362"/>
      <point x="172" y="316"/>
      <point x="172" y="260" type="curve" smooth="yes"/>
      <point x="172" y="228"/>
      <point x="164" y="197"/>
      <point x="145" y="164" type="curve" smooth="yes"/>
      <point x="126" y="131"/>
      <point x="96" y="96"/>
      <point x="53" y="56" type="curve"/>
    </contour>
  </outline>
</glyph>
<glyph name="currency" format="2">
  <advance width="538"/>
  <unicode hex="00A4"/>
  <outline>
    <contour>
      <point x="89" y="558" type="line"/>
      <point x="48" y="517" type="line"/>
      <point x="119" y="445" type="line"/>
      <point x="103" y="422"/>
      <point x="87" y="367"/>
      <point x="87" y="337" type="qcurve" smooth="yes"/>
      <point x="87" y="307"/>
      <point x="104" y="252"/>
      <point x="120" y="229" type="qcurve"/>
      <point x="48" y="157" type="line"/>
      <point x="84" y="121" type="line"/>
      <point x="157" y="190" type="line"/>
      <point x="180" y="173"/>
      <point x="236" y="154"/>
      <point x="269" y="154" type="qcurve" smooth="yes"/>
      <point x="302" y="154"/>
      <point x="358" y="173"/>
      <point x="380" y="190" type="qcurve"/>
      <point x="454" y="121" type="line"/>
      <point x="490" y="157" type="line"/>
      <point x="417" y="229" type="line"/>
      <point x="434" y="252"/>
      <point x="451" y="307"/>
      <point x="451" y="337" type="qcurve" smooth="yes"/>
      <point x="451" y="367"/>
      <point x="434" y="422"/>
      <point x="418" y="445" type="qcurve"/>
      <point x="490" y="517" type="line"/>
      <point x="449" y="558" type="line"/>
      <point x="378" y="486" type="line"/>
      <point x="355" y="503"/>
      <point x="301" y="521"/>
      <point x="269" y="521" type="qcurve" smooth="yes"/>
      <point x="237" y="521"/>
      <point x="182" y="503"/>
      <point x="160" y="486" type="qcurve"/>
    </contour>
    <contour>
      <point x="159" y="336" type="qcurve" smooth="yes"/>
      <point x="159" y="362"/>
      <point x="176" y="407"/>
      <point x="206" y="440"/>
      <point x="246" y="459"/>
      <point x="269" y="459" type="qcurve" smooth="yes"/>
      <point x="292" y="459"/>
      <point x="332" y="441"/>
      <point x="362" y="408"/>
      <point x="379" y="364"/>
      <point x="379" y="338" type="qcurve" smooth="yes"/>
      <point x="379" y="312"/>
      <point x="362" y="267"/>
      <point x="332" y="234"/>
      <point x="292" y="215"/>
      <point x="269" y="215" type="qcurve" smooth="yes"/>
      <point x="246" y="215"/>
      <point x="206" y="234"/>
      <point x="176" y="266"/>
      <point x="159" y="311"/>
    </contour>
  </outline>
</glyph>
<glyph name="section" format="2">
  <advance width="517"/>
  <unicode hex="00A7"/>
  <outline>
    <contour>
      <point x="430" y="201" type="qcurve"/>
      <point x="441" y="214"/>
      <point x="458" y="261"/>
      <point x="458" y="290" type="qcurve" smooth="yes"/>
      <point x="458" y="334"/>
      <point x="421" y="394"/>
      <point x="363" y="432"/>
      <point x="289" y="449"/>
      <point x="253" y="449" type="qcurve" smooth="yes"/>
      <point x="228" y="449"/>
      <point x="185" y="458"/>
      <point x="154" y="479"/>
      <point x="136" y="514"/>
      <point x="136" y="539" type="qcurve" smooth="yes"/>
      <point x="136" y="562"/>
      <point x="155" y="597"/>
      <point x="188" y="623"/>
      <point x="230" y="636"/>
      <point x="252" y="636" type="qcurve" smooth="yes"/>
      <point x="270" y="636"/>
      <point x="305" y="630"/>
      <point x="337" y="616"/>
      <point x="364" y="594"/>
      <point x="372" y="579" type="qcurve"/>
      <point x="440" y="611" type="line"/>
      <point x="428" y="629"/>
      <point x="394" y="666"/>
      <point x="347" y="696"/>
      <point x="286" y="715"/>
      <point x="247" y="715" type="qcurve" smooth="yes"/>
      <point x="208" y="715"/>
      <point x="136" y="688"/>
      <point x="81" y="641"/>
      <point x="47" y="576"/>
      <point x="47" y="538" type="qcurve" smooth="yes"/>
      <point x="47" y="498"/>
      <point x="76" y="438"/>
      <point x="95" y="423" type="qcurve"/>
      <point x="86" y="411"/>
      <point x="71" y="369"/>
      <point x="71" y="341" type="qcurve" smooth="yes"/>
      <point x="71" y="302"/>
      <point x="100" y="243"/>
      <point x="152" y="201"/>
      <point x="225" y="177"/>
      <point x="270" y="174" type="qcurve" smooth="yes"/>
      <point x="290" y="173"/>
      <point x="329" y="166"/>
      <point x="362" y="150"/>
      <point x="382" y="119"/>
      <point x="382" y="94" type="qcurve" smooth="yes"/>
      <point x="382" y="71"/>
      <point x="361" y="34"/>
      <point x="327" y="9"/>
      <point x="284" y="-4"/>
      <point x="262" y="-4" type="qcurve" smooth="yes"/>
      <point x="222" y="-4"/>
      <point x="153" y="27"/>
      <point x="118" y="61" type="qcurve"/>
      <point x="61" y="7" type="line"/>
      <point x="75" y="-8"/>
      <point x="115" y="-42"/>
      <point x="166" y="-70"/>
      <point x="229" y="-88"/>
      <point x="265" y="-88" type="qcurve" smooth="yes"/>
      <point x="299" y="-88"/>
      <point x="372" y="-66"/>
      <point x="433" y="-21"/>
      <point x="473" y="49"/>
      <point x="473" y="97" type="qcurve" smooth="yes"/>
      <point x="473" y="135"/>
      <point x="451" y="187"/>
    </contour>
    <contour>
      <point x="157" y="330" type="qcurve" smooth="yes"/>
      <point x="157" y="347"/>
      <point x="169" y="380"/>
      <point x="179" y="390" type="qcurve"/>
      <point x="193" y="384"/>
      <point x="234" y="377"/>
      <point x="256" y="377" type="qcurve" smooth="yes"/>
      <point x="275" y="377"/>
      <point x="317" y="368"/>
      <point x="351" y="348"/>
      <point x="374" y="314"/>
      <point x="374" y="288" type="qcurve" smooth="yes"/>
      <point x="374" y="270"/>
      <point x="360" y="235"/>
      <point x="348" y="225" type="qcurve"/>
      <point x="333" y="231"/>
      <point x="293" y="235"/>
      <point x="251" y="240"/>
      <point x="210" y="249"/>
      <point x="177" y="268"/>
      <point x="157" y="302"/>
    </contour>
  </outline>
</glyph>
<glyph name="copyright" format="2">
  <advance width="836"/>
  <unicode hex="00A9"/>
  <outline>
    <contour>
      <point x="416" y="-7" type="qcurve" smooth="yes"/>
      <point x="496" y="-7"/>
      <point x="633" y="48"/>
      <point x="733" y="145"/>
      <point x="789" y="277"/>
      <point x="789" y="355" type="qcurve" smooth="yes"/>
      <point x="789" y="432"/>
      <point x="733" y="564"/>
      <point x="633" y="660"/>
      <point x="496" y="715"/>
      <point x="416" y="715" type="qcurve" smooth="yes"/>
      <point x="337" y="715"/>
      <point x="201" y="660"/>
      <point x="103" y="564"/>
      <point x="47" y="432"/>
      <point x="47" y="355" type="qcurve" smooth="yes"/>
      <point x="47" y="277"/>
      <point x="103" y="145"/>
      <point x="201" y="48"/>
      <point x="337" y="-7"/>
    </contour>
    <contour>
      <point x="416" y="37" type="qcurve" smooth="yes"/>
      <point x="347" y="37"/>
      <point x="228" y="86"/>
      <point x="142" y="171"/>
      <point x="93" y="287"/>
      <point x="93" y="354" type="qcurve" smooth="yes"/>
      <point x="93" y="422"/>
      <point x="142" y="537"/>
      <point x="229" y="623"/>
      <point x="347" y="671"/>
      <point x="416" y="671" type="qcurve" smooth="yes"/>
      <point x="486" y="671"/>
      <point x="606" y="623"/>
      <point x="693" y="537"/>
      <point x="742" y="421"/>
      <point x="742" y="353" type="qcurve" smooth="yes"/>
      <point x="742" y="283"/>
      <point x="692" y="167"/>
      <point x="604" y="83"/>
      <point x="485" y="37"/>
    </contour>
    <contour>
      <point x="424" y="121" type="qcurve" smooth="yes"/>
      <point x="463" y="121"/>
      <point x="530" y="143"/>
      <point x="582" y="178"/>
      <point x="618" y="221"/>
      <point x="626" y="241" type="qcurve"/>
      <point x="541" y="267" type="line"/>
      <point x="533" y="251"/>
      <point x="507" y="225"/>
      <point x="474" y="207"/>
      <point x="438" y="197"/>
      <point x="421" y="197" type="qcurve" smooth="yes"/>
      <point x="396" y="197"/>
      <point x="344" y="218"/>
      <point x="302" y="258"/>
      <point x="275" y="317"/>
      <point x="275" y="355" type="qcurve" smooth="yes"/>
      <point x="275" y="385"/>
      <point x="293" y="442"/>
      <point x="329" y="487"/>
      <point x="383" y="514"/>
      <point x="419" y="514" type="qcurve" smooth="yes"/>
      <point x="433" y="514"/>
      <point x="466" y="508"/>
      <point x="497" y="493"/>
      <point x="526" y="467"/>
      <point x="535" y="447" type="qcurve"/>
      <point x="620" y="474" type="line"/>
      <point x="596" y="530"/>
      <point x="489" y="590"/>
      <point x="419" y="590" type="qcurve" smooth="yes"/>
      <point x="360" y="590"/>
      <point x="272" y="549"/>
      <point x="214" y="482"/>
      <point x="185" y="398"/>
      <point x="185" y="355" type="qcurve" smooth="yes"/>
      <point x="185" y="303"/>
      <point x="223" y="217"/>
      <point x="288" y="155"/>
      <point x="375" y="121"/>
    </contour>
  </outline>
</glyph>
<glyph name="ordfeminine" format="2">
  <advance width="438"/>
  <unicode hex="00AA"/>
  <outline>
    <contour>
      <point x="165" y="344" type="qcurve" smooth="yes"/>
      <point x="206" y="344"/>
      <point x="277" y="377"/>
      <point x="302" y="409" type="qcurve"/>
      <point x="303" y="351" type="line"/>
      <point x="362" y="351" type="line"/>
      <point x="362" y="567" type="line" smooth="yes"/>
      <point x="362" y="637"/>
      <point x="280" y="711"/>
      <point x="208" y="711" type="qcurve" smooth="yes"/>
      <point x="171" y="711"/>
      <point x="101" y="688"/>
      <point x="66" y="665" type="qcurve"/>
      <point x="89" y="620" type="line"/>
      <point x="119" y="640"/>
      <point x="174" y="661"/>
      <point x="202" y="661" type="qcurve" smooth="yes"/>
      <point x="245" y="661"/>
      <point x="291" y="615"/>
      <point x="291" y="575" type="qcurve" smooth="yes"/>
      <point x="291" y="550" type="line"/>
      <point x="271" y="558"/>
      <point x="221" y="567"/>
      <point x="195" y="567" type="qcurve" smooth="yes"/>
      <point x="129" y="567"/>
      <point x="46" y="505"/>
      <point x="46" y="455" type="qcurve" smooth="yes"/>
      <point x="46" y="431"/>
      <point x="64" y="391"/>
      <point x="96" y="361"/>
      <point x="140" y="344"/>
    </contour>
    <contour>
      <point x="185" y="397" type="qcurve" smooth="yes"/>
      <point x="154" y="397"/>
      <point x="113" y="434"/>
      <point x="113" y="461" type="qcurve" smooth="yes"/>
      <point x="113" y="490"/>
      <point x="165" y="524"/>
      <point x="207" y="524" type="qcurve" smooth="yes"/>
      <point x="228" y="524"/>
      <point x="272" y="517"/>
      <point x="291" y="509" type="qcurve"/>
      <point x="291" y="461" type="line" smooth="yes"/>
      <point x="291" y="455"/>
      <point x="285" y="441"/>
      <point x="278" y="435" type="qcurve"/>
      <point x="264" y="418"/>
      <point x="214" y="397"/>
    </contour>
  </outline>
</glyph>
<glyph name="registered" format="2">
  <advance width="836"/>
  <unicode hex="00AE"/>
  <outline>
    <contour>
      <point x="417" y="-7" type="qcurve" smooth="yes"/>
      <point x="497" y="-7"/>
      <point x="633" y="48"/>
      <point x="733" y="145"/>
      <point x="789" y="277"/>
      <point x="789" y="355" type="qcurve" smooth="yes"/>
      <point x="789" y="432"/>
      <point x="733" y="564"/>
      <point x="633" y="660"/>
      <point x="497" y="715"/>
      <point x="417" y="715" type="qcurve" smooth="yes"/>
      <point x="337" y="715"/>
      <point x="202" y="660"/>
      <point x="103" y="564"/>
      <point x="47" y="432"/>
      <point x="47" y="355" type="qcurve" smooth="yes"/>
      <point x="47" y="277"/>
      <point x="103" y="145"/>
      <point x="202" y="48"/>
      <point x="337" y="-7"/>
    </contour>
    <contour>
      <point x="417" y="36" type="qcurve" smooth="yes"/>
      <point x="347" y="36"/>
      <point x="229" y="85"/>
      <point x="143" y="171"/>
      <point x="95" y="288"/>
      <point x="95" y="355" type="qcurve" smooth="yes"/>
      <point x="95" y="422"/>
      <point x="143" y="537"/>
      <point x="229" y="622"/>
      <point x="347" y="671"/>
      <point x="417" y="671" type="qcurve" smooth="yes"/>
      <point x="487" y="671"/>
      <point x="605" y="622"/>
      <point x="692" y="537"/>
      <point x="741" y="421"/>
      <point x="741" y="354" type="qcurve" smooth="yes"/>
      <point x="741" y="284"/>
      <point x="691" y="167"/>
      <point x="604" y="83"/>
      <point x="485" y="36"/>
    </contour>
    <contour>
      <point x="262" y="130" type="line"/>
      <point x="327" y="130" type="line"/>
      <point x="327" y="292" type="line"/>
      <point x="428" y="292" type="line"/>
      <point x="530" y="130" type="line"/>
      <point x="603" y="130" type="line"/>
      <point x="494" y="302" type="line"/>
      <point x="515" y="307"/>
      <point x="551" y="333"/>
      <point x="576" y="368"/>
      <point x="590" y="412"/>
      <point x="590" y="435" type="qcurve" smooth="yes"/>
      <point x="590" y="461"/>
      <point x="570" y="513"/>
      <point x="534" y="554"/>
      <point x="484" y="579"/>
      <point x="454" y="579" type="qcurve" smooth="yes"/>
      <point x="262" y="579" type="line"/>
    </contour>
    <contour>
      <point x="327" y="349" type="line"/>
      <point x="327" y="520" type="line"/>
      <point x="448" y="520" type="line" smooth="yes"/>
      <point x="465" y="520"/>
      <point x="493" y="508"/>
      <point x="514" y="485"/>
      <point x="526" y="454"/>
      <point x="526" y="435" type="qcurve" smooth="yes"/>
      <point x="526" y="416"/>
      <point x="516" y="385"/>
      <point x="497" y="362"/>
      <point x="469" y="349"/>
      <point x="451" y="349" type="qcurve" smooth="yes"/>
    </contour>
  </outline>
</glyph>
<glyph name="degree" format="2">
  <advance width="272"/>
  <unicode hex="00B0"/>
  <outline>
    <contour>
      <point x="47" y="637" type="qcurve" smooth="yes"/>
      <point x="47" y="598"/>
      <point x="98" y="546"/>
      <point x="136" y="546" type="qcurve" smooth="yes"/>
      <point x="174" y="546"/>
      <point x="225" y="597"/>
      <point x="225" y="637" type="qcurve" smooth="yes"/>
      <point x="225" y="674"/>
      <point x="174" y="724"/>
      <point x="136" y="724" type="qcurve" smooth="yes"/>
      <point x="98" y="724"/>
      <point x="47" y="674"/>
    </contour>
    <contour>
      <point x="106" y="665" type="qcurve"/>
      <point x="112" y="671"/>
      <point x="127" y="677"/>
      <point x="136" y="677" type="qcurve" smooth="yes"/>
      <point x="144" y="677"/>
      <point x="161" y="671"/>
      <point x="166" y="665" type="qcurve" smooth="yes"/>
      <point x="171" y="659"/>
      <point x="178" y="644"/>
      <point x="178" y="635" type="qcurve" smooth="yes"/>
      <point x="178" y="627"/>
      <point x="171" y="611"/>
      <point x="166" y="606" type="qcurve"/>
      <point x="161" y="600"/>
      <point x="144" y="593"/>
      <point x="136" y="593" type="qcurve" smooth="yes"/>
      <point x="127" y="593"/>
      <point x="112" y="600"/>
      <point x="106" y="606" type="qcurve" smooth="yes"/>
      <point x="101" y="611"/>
      <point x="94" y="627"/>
      <point x="94" y="635" type="qcurve" smooth="yes"/>
      <point x="94" y="644"/>
      <point x="101" y="659"/>
    </contour>
  </outline>
</glyph>
<glyph name="twosuperior" format="2">
  <advance width="396"/>
  <unicode hex="00B2"/>
  <outline>
    <contour>
      <point x="352" y="400" type="line"/>
      <point x="352" y="454" type="line"/>
      <point x="101" y="454" type="line"/>
      <point x="101" y="467"/>
      <point x="115" y="496"/>
      <point x="145" y="524"/>
      <point x="190" y="550"/>
      <point x="221" y="560" type="qcurve" smooth="yes"/>
      <point x="241" y="566"/>
      <point x="289" y="584"/>
      <point x="331" y="613"/>
      <point x="359" y="657"/>
      <point x="359" y="688" type="qcurve" smooth="yes"/>
      <point x="359" y="715"/>
      <point x="340" y="760"/>
      <point x="302" y="793"/>
      <point x="246" y="811"/>
      <point x="208" y="811" type="qcurve" smooth="yes"/>
      <point x="171" y="811"/>
      <point x="112" y="795"/>
      <point x="69" y="773"/>
      <point x="43" y="750"/>
      <point x="38" y="743" type="qcurve"/>
      <point x="74" y="704" type="line"/>
      <point x="82" y="712"/>
      <point x="105" y="731"/>
      <point x="137" y="747"/>
      <point x="176" y="757"/>
      <point x="200" y="757" type="qcurve" smooth="yes"/>
      <point x="248" y="757"/>
      <point x="297" y="718"/>
      <point x="297" y="689" type="qcurve" smooth="yes"/>
      <point x="297" y="667"/>
      <point x="272" y="637"/>
      <point x="233" y="614"/>
      <point x="184" y="597"/>
      <point x="161" y="588" type="qcurve" smooth="yes"/>
      <point x="128" y="575"/>
      <point x="80" y="542"/>
      <point x="49" y="498"/>
      <point x="34" y="439"/>
      <point x="34" y="400" type="qcurve"/>
    </contour>
  </outline>
</glyph>
<glyph name="threesuperior" format="2">
  <advance width="394"/>
  <unicode hex="00B3"/>
  <outline>
    <contour>
      <point x="190" y="394" type="qcurve" smooth="yes"/>
      <point x="223" y="394"/>
      <point x="283" y="409"/>
      <point x="330" y="437"/>
      <point x="357" y="480"/>
      <point x="357" y="507" type="qcurve" smooth="yes"/>
      <point x="357" y="546"/>
      <point x="302" y="604"/>
      <point x="254" y="611" type="qcurve"/>
      <point x="299" y="620"/>
      <point x="346" y="664"/>
      <point x="346" y="699" type="qcurve" smooth="yes"/>
      <point x="346" y="723"/>
      <point x="322" y="764"/>
      <point x="279" y="794"/>
      <point x="221" y="811"/>
      <point x="187" y="811" type="qcurve" smooth="yes"/>
      <point x="163" y="811"/>
      <point x="117" y="803"/>
      <point x="77" y="787"/>
      <point x="45" y="764"/>
      <point x="35" y="749" type="qcurve"/>
      <point x="72" y="706" type="line"/>
      <point x="88" y="730"/>
      <point x="146" y="760"/>
      <point x="187" y="760" type="qcurve" smooth="yes"/>
      <point x="207" y="760"/>
      <point x="243" y="751"/>
      <point x="270" y="735"/>
      <point x="287" y="711"/>
      <point x="287" y="696" type="qcurve" smooth="yes"/>
      <point x="287" y="664"/>
      <point x="215" y="634"/>
      <point x="152" y="634" type="qcurve" smooth="yes"/>
      <point x="129" y="634" type="line"/>
      <point x="129" y="583" type="line"/>
      <point x="152" y="583" type="line" smooth="yes"/>
      <point x="221" y="583"/>
      <point x="301" y="548"/>
      <point x="301" y="515" type="qcurve" smooth="yes"/>
      <point x="301" y="485"/>
      <point x="236" y="450"/>
      <point x="189" y="450" type="qcurve" smooth="yes"/>
      <point x="162" y="450"/>
      <point x="117" y="463"/>
      <point x="84" y="484"/>
      <point x="66" y="508"/>
      <point x="64" y="518" type="qcurve"/>
      <point x="32" y="480" type="line"/>
      <point x="42" y="440"/>
      <point x="127" y="394"/>
    </contour>
  </outline>
</glyph>
<glyph name="micro" format="2">
  <advance width="628"/>
  <unicode hex="00B5"/>
  <outline>
    <contour>
      <point x="78" y="-212" type="line"/>
      <point x="166" y="-212" type="line"/>
      <point x="161" y="67" type="line"/>
      <point x="167" y="51"/>
      <point x="186" y="23"/>
      <point x="214" y="2"/>
      <point x="251" y="-10"/>
      <point x="274" y="-10" type="qcurve" smooth="yes"/>
      <point x="304" y="-10"/>
      <point x="361" y="10"/>
      <point x="410" y="44"/>
      <point x="450" y="88"/>
      <point x="462" y="112" type="qcurve"/>
      <point x="472" y="0" type="line"/>
      <point x="538" y="0" type="line"/>
      <point x="538" y="522" type="line"/>
      <point x="450" y="522" type="line"/>
      <point x="450" y="195" type="line"/>
      <point x="438" y="165"/>
      <point x="402" y="117"/>
      <point x="357" y="84"/>
      <point x="305" y="66"/>
      <point x="279" y="66" type="qcurve" smooth="yes"/>
      <point x="222" y="66"/>
      <point x="166" y="145"/>
      <point x="166" y="226" type="qcurve" smooth="yes"/>
      <point x="166" y="522" type="line"/>
      <point x="78" y="522" type="line"/>
    </contour>
  </outline>
</glyph>
<glyph name="paragraph" format="2">
  <advance width="618"/>
  <unicode hex="00B6"/>
  <outline>
    <contour>
      <point x="35" y="465" type="qcurve" smooth="yes"/>
      <point x="35" y="410"/>
      <point x="70" y="321"/>
      <point x="135" y="259"/>
      <point x="228" y="225"/>
      <point x="285" y="224" type="qcurve"/>
      <point x="285" y="-80" type="line"/>
      <point x="361" y="-80" type="line"/>
      <point x="361" y="224" type="line"/>
      <point x="428" y="224" type="line"/>
      <point x="428" y="-80" type="line"/>
      <point x="504" y="-80" type="line"/>
      <point x="504" y="642" type="line"/>
      <point x="574" y="642" type="line"/>
      <point x="574" y="710" type="line"/>
      <point x="317" y="710" type="line" smooth="yes"/>
      <point x="183" y="710"/>
      <point x="35" y="581"/>
    </contour>
    <contour>
      <point x="110" y="467" type="qcurve" smooth="yes"/>
      <point x="110" y="547"/>
      <point x="200" y="640"/>
      <point x="285" y="642" type="qcurve"/>
      <point x="285" y="292" type="line"/>
      <point x="249" y="294"/>
      <point x="186" y="317"/>
      <point x="138" y="361"/>
      <point x="110" y="424"/>
    </contour>
    <contour>
      <point x="428" y="292" type="line"/>
      <point x="361" y="292" type="line"/>
      <point x="361" y="642" type="line"/>
      <point x="428" y="642" type="line"/>
    </contour>
  </outline>
</glyph>
<glyph name="onesuperior" format="2">
  <advance width="280"/>
  <unicode hex="00B9"/>
  <outline>
    <contour>
      <point x="185" y="455" type="line"/>
      <point x="185" y="811" type="line"/>
      <point x="129" y="811" type="line"/>
      <point x="129" y="810"/>
      <point x="111" y="792"/>
      <point x="83" y="772"/>
      <point x="50" y="755"/>
      <point x="34" y="755" type="qcurve"/>
      <point x="34" y="700" type="line"/>
      <point x="46" y="700"/>
      <point x="75" y="711"/>
      <point x="102" y="726"/>
      <point x="124" y="743"/>
      <point x="129" y="749" type="qcurve"/>
      <point x="129" y="455" type="line"/>
      <point x="49" y="455" type="line"/>
      <point x="49" y="400" type="line"/>
      <point x="259" y="400" type="line"/>
      <point x="259" y="455" type="line"/>
    </contour>
  </outline>
</glyph>
<glyph name="ordmasculine" format="2">
  <advance width="448"/>
  <unicode hex="00BA"/>
  <outline>
    <contour>
      <point x="224" y="344" type="qcurve" smooth="yes"/>
      <point x="265" y="344"/>
      <point x="332" y="374"/>
      <point x="380" y="424"/>
      <point x="406" y="491"/>
      <point x="406" y="527" type="qcurve" smooth="yes"/>
      <point x="406" y="565"/>
      <point x="380" y="631"/>
      <point x="332" y="682"/>
      <point x="265" y="711"/>
      <point x="224" y="711" type="qcurve" smooth="yes"/>
      <point x="183" y="711"/>
      <point x="116" y="682"/>
      <point x="68" y="631"/>
      <point x="42" y="565"/>
      <point x="42" y="527" type="qcurve" smooth="yes"/>
      <point x="42" y="491"/>
      <point x="68" y="424"/>
      <point x="116" y="374"/>
      <point x="183" y="344"/>
    </contour>
    <contour>
      <point x="114" y="526" type="qcurve" smooth="yes"/>
      <point x="114" y="552"/>
      <point x="131" y="597"/>
      <point x="161" y="630"/>
      <point x="201" y="649"/>
      <point x="224" y="649" type="qcurve" smooth="yes"/>
      <point x="247" y="649"/>
      <point x="287" y="631"/>
      <point x="317" y="598"/>
      <point x="334" y="554"/>
      <point x="334" y="528" type="qcurve" smooth="yes"/>
      <point x="334" y="502"/>
      <point x="317" y="457"/>
      <point x="287" y="424"/>
      <point x="247" y="405"/>
      <point x="224" y="405" type="qcurve" smooth="yes"/>
      <point x="201" y="405"/>
      <point x="161" y="424"/>
      <point x="131" y="456"/>
      <point x="114" y="501"/>
    </contour>
  </outline>
</glyph>
<glyph name="onehalf" format="2">
  <advance width="834"/>
  <unicode hex="00BD"/>
  <outline>
    <contour>
      <point x="185" y="375" type="line"/>
      <point x="185" y="731" type="line"/>
      <point x="129" y="731" type="line"/>
      <point x="129" y="730"/>
      <point x="111" y="712"/>
      <point x="83" y="692"/>
      <point x="50" y="675"/>
      <point x="34" y="675" type="qcurve"/>
      <point x="34" y="620" type="line"/>
      <point x="46" y="620"/>
      <point x="75" y="631"/>
      <point x="102" y="646"/>
      <point x="124" y="663"/>
      <point x="129" y="669" type="qcurve"/>
      <point x="129" y="375" type="line"/>
      <point x="49" y="375" type="line"/>
      <point x="49" y="320" type="line"/>
      <point x="259" y="320" type="line"/>
      <point x="259" y="375" type="line"/>
    </contour>
    <contour>
      <point x="110" y="-5" type="line"/>
      <point x="382" y="343" type="line"/>
      <point x="659" y="678" type="line"/>
      <point x="616" y="715" type="line"/>
      <point x="348" y="370" type="line"/>
      <point x="68" y="33" type="line"/>
    </contour>
    <contour>
      <point x="795" y="0" type="line"/>
      <point x="795" y="54" type="line"/>
      <point x="546" y="54" type="line"/>
      <point x="546" y="67"/>
      <point x="560" y="96"/>
      <point x="588" y="124"/>
      <point x="632" y="150"/>
      <point x="662" y="160" type="qcurve"/>
      <point x="682" y="166"/>
      <point x="728" y="184"/>
      <point x="767" y="213"/>
      <point x="794" y="256"/>
      <point x="794" y="287" type="qcurve" smooth="yes"/>
      <point x="794" y="314"/>
      <point x="776" y="360"/>
      <point x="739" y="393"/>
      <point x="685" y="411"/>
      <point x="649" y="411" type="qcurve" smooth="yes"/>
      <point x="613" y="411"/>
      <point x="556" y="395"/>
      <point x="515" y="373"/>
      <point x="490" y="350"/>
      <point x="485" y="343" type="qcurve"/>
      <point x="519" y="303" type="line"/>
      <point x="527" y="312"/>
      <point x="549" y="331"/>
      <point x="580" y="347"/>
      <point x="618" y="357"/>
      <point x="641" y="357" type="qcurve" smooth="yes"/>
      <point x="687" y="357"/>
      <point x="734" y="318"/>
      <point x="734" y="288" type="qcurve" smooth="yes"/>
      <point x="734" y="266"/>
      <point x="710" y="236"/>
      <point x="672" y="214"/>
      <point x="626" y="197"/>
      <point x="604" y="188" type="qcurve" smooth="yes"/>
      <point x="572" y="175"/>
      <point x="525" y="142"/>
      <point x="495" y="98"/>
      <point x="481" y="39"/>
      <point x="481" y="0" type="qcurve"/>
    </contour>
  </outline>
</glyph>
<glyph name="questiondown" format="2">
  <advance width="479"/>
  <unicode hex="00BF"/>
  <outline>
    <contour>
      <point x="289" y="308" type="line"/>
      <point x="286" y="296"/>
      <point x="263" y="273"/>
      <point x="232" y="250" type="curve" smooth="yes"/>
      <point x="216" y="238"/>
      <point x="197" y="225"/>
      <point x="178" y="210" type="curve" smooth="yes"/>
      <point x="144" y="183"/>
      <point x="108" y="152"/>
      <point x="81" y="115" type="curve" smooth="yes"/>
      <point x="55" y="80"/>
      <point x="37" y="39"/>
      <point x="37" y="-8" type="curve" smooth="yes"/>
      <point x="37" y="-125"/>
      <point x="121" y="-200"/>
      <point x="236" y="-200" type="curve" smooth="yes"/>
      <point x="325" y="-200"/>
      <point x="408" y="-154"/>
      <point x="445" y="-71" type="curve"/>
      <point x="386" y="-32" type="line"/>
      <point x="357" y="-87"/>
      <point x="301" y="-127"/>
      <point x="238" y="-127" type="curve" smooth="yes"/>
      <point x="171" y="-127"/>
      <point x="115" y="-82"/>
      <point x="115" y="-12" type="curve" smooth="yes"/>
      <point x="115" y="36"/>
      <point x="136" y="70"/>
      <point x="164" y="99" type="curve" smooth="yes"/>
      <point x="181" y="117"/>
      <point x="221" y="149"/>
      <point x="256" y="181" type="curve" smooth="yes"/>
      <point x="291" y="213"/>
      <point x="322" y="245"/>
      <point x="323" y="266" type="curve" smooth="yes"/>
      <point x="324" y="287"/>
      <point x="317" y="297"/>
      <point x="307" y="308" type="curve"/>
    </contour>
    <contour>
      <point x="353" y="473" type="curve" smooth="yes"/>
      <point x="353" y="504"/>
      <point x="328" y="529"/>
      <point x="297" y="529" type="curve" smooth="yes"/>
      <point x="266" y="529"/>
      <point x="241" y="504"/>
      <point x="241" y="473" type="curve" smooth="yes"/>
      <point x="241" y="442"/>
      <point x="266" y="417"/>
      <point x="297" y="417" type="curve" smooth="yes"/>
      <point x="328" y="417"/>
      <point x="353" y="442"/>
    </contour>
  </outline>
</glyph>
<glyph name="Eth" format="2">
  <advance width="722"/>
  <unicode hex="00D0"/>
  <outline>
    <component base="D" xOffset="6"/>
    <contour>
      <point x="342" y="323" type="line"/>
      <point x="342" y="391" type="line"/>
      <point x="34" y="391" type="line"/>
      <point x="34" y="323" type="line"/>
    </contour>
  </outline>
</glyph>
<glyph name="germandbls" format="2">
  <advance width="553"/>
  <unicode hex="00DF"/>
  <outline>
    <contour>
      <point x="241" y="-6" type="line"/>
      <point x="301" y="-4"/>
      <point x="403" y="25"/>
      <point x="477" y="78"/>
      <point x="518" y="157"/>
      <point x="518" y="208" type="qcurve" smooth="yes"/>
      <point x="518" y="280"/>
      <point x="439" y="387"/>
      <point x="367" y="402" type="qcurve"/>
      <point x="388" y="408"/>
      <point x="424" y="436"/>
      <point x="451" y="477"/>
      <point x="467" y="526"/>
      <point x="467" y="553" type="qcurve" smooth="yes"/>
      <point x="467" y="589"/>
      <point x="438" y="648"/>
      <point x="387" y="691"/>
      <point x="318" y="714"/>
      <point x="278" y="714" type="qcurve" smooth="yes"/>
      <point x="233" y="714"/>
      <point x="157" y="685"/>
      <point x="102" y="633"/>
      <point x="71" y="561"/>
      <point x="71" y="517" type="qcurve" smooth="yes"/>
      <point x="71" y="0" type="line"/>
      <point x="155" y="0" type="line"/>
      <point x="155" y="503" type="line" smooth="yes"/>
      <point x="155" y="530"/>
      <point x="169" y="578"/>
      <point x="199" y="616"/>
      <point x="244" y="638"/>
      <point x="275" y="638" type="qcurve" smooth="yes"/>
      <point x="296" y="638"/>
      <point x="335" y="626"/>
      <point x="365" y="602"/>
      <point x="383" y="565"/>
      <point x="383" y="540" type="qcurve" smooth="yes"/>
      <point x="383" y="517"/>
      <point x="367" y="479"/>
      <point x="339" y="452"/>
      <point x="299" y="437"/>
      <point x="275" y="437" type="qcurve" smooth="yes"/>
      <point x="257" y="437" type="line"/>
      <point x="257" y="357" type="line"/>
      <point x="276" y="357" type="line" smooth="yes"/>
      <point x="310" y="357"/>
      <point x="365" y="337"/>
      <point x="405" y="300"/>
      <point x="427" y="247"/>
      <point x="427" y="215" type="qcurve" smooth="yes"/>
      <point x="427" y="179"/>
      <point x="400" y="126"/>
      <point x="350" y="92"/>
      <point x="282" y="76"/>
      <point x="241" y="75" type="qcurve"/>
    </contour>
  </outline>
</glyph>
<glyph name="idieresis" format="2">
  <advance width="230"/>
  <unicode hex="00EF"/>
  <anchor x="115" y="522" name="_top"/>
  <anchor x="115" y="721" name="top"/>
  <outline>
    <component base="idotless"/>
    <contour>
      <point x="73" y="625" type="line"/>
      <point x="73" y="727" type="line"/>
      <point x="3" y="727" type="line"/>
      <point x="3" y="625" type="line"/>
    </contour>
    <contour>
      <point x="227" y="625" type="line"/>
      <point x="227" y="727" type="line"/>
      <point x="157" y="727" type="line"/>
      <point x="157" y="625" type="line"/>
    </contour>
  </outline>
</glyph>
<glyph name="eth" format="2">
  <advance width="606"/>
  <unicode hex="00F0"/>
  <outline>
    <contour>
      <point x="566" y="290" type="qcurve" smooth="yes"/>
      <point x="566" y="340"/>
      <point x="540" y="457"/>
      <point x="479" y="575"/>
      <point x="377" y="686"/>
      <point x="301" y="730" type="qcurve"/>
      <point x="177" y="730" type="line"/>
      <point x="256" y="687"/>
      <point x="363" y="598"/>
      <point x="432" y="508"/>
      <point x="468" y="416"/>
      <point x="476" y="368" type="qcurve"/>
      <point x="463" y="392"/>
      <point x="422" y="430"/>
      <point x="372" y="458"/>
      <point x="314" y="473"/>
      <point x="283" y="473" type="qcurve" smooth="yes"/>
      <point x="232" y="473"/>
      <point x="143" y="435"/>
      <point x="77" y="369"/>
      <point x="39" y="282"/>
      <point x="39" y="233" type="qcurve" smooth="yes"/>
      <point x="39" y="182"/>
      <point x="80" y="93"/>
      <point x="150" y="28"/>
      <point x="244" y="-10"/>
      <point x="297" y="-10" type="qcurve" smooth="yes"/>
      <point x="351" y="-10"/>
      <point x="449" y="31"/>
      <point x="523" y="109"/>
      <point x="566" y="220"/>
    </contour>
    <contour>
      <point x="129" y="233" type="qcurve" smooth="yes"/>
      <point x="129" y="268"/>
      <point x="156" y="329"/>
      <point x="203" y="375"/>
      <point x="267" y="401"/>
      <point x="304" y="401" type="qcurve" smooth="yes"/>
      <point x="340" y="401"/>
      <point x="402" y="376"/>
      <point x="449" y="333"/>
      <point x="476" y="274"/>
      <point x="476" y="239" type="qcurve" smooth="yes"/>
      <point x="476" y="204"/>
      <point x="449" y="141"/>
      <point x="401" y="94"/>
      <point x="337" y="66"/>
      <point x="300" y="66" type="qcurve" smooth="yes"/>
      <point x="264" y="66"/>
      <point x="202" y="92"/>
      <point x="156" y="137"/>
      <point x="129" y="198"/>
    </contour>
    <contour>
      <point x="478" y="713" type="line"/>
      <point x="369" y="647" type="line"/>
      <point x="343" y="639" type="line"/>
      <point x="226" y="569" type="line"/>
      <point x="253" y="532" type="line"/>
      <point x="372" y="604" type="line"/>
      <point x="400" y="614" type="line"/>
      <point x="505" y="676" type="line"/>
    </contour>
  </outline>
</glyph>
<glyph name="divide" format="2">
  <advance width="533"/>
  <unicode hex="00F7"/>
  <outline>
    <contour>
      <point x="468" y="251" type="line"/>
      <point x="468" y="323" type="line"/>
      <point x="65" y="323" type="line"/>
      <point x="65" y="251" type="line"/>
    </contour>
    <contour>
      <point x="210" y="112" type="qcurve" smooth="yes"/>
      <point x="210" y="89"/>
      <point x="243" y="56"/>
      <point x="266" y="56" type="qcurve" smooth="yes"/>
      <point x="289" y="56"/>
      <point x="322" y="89"/>
      <point x="322" y="112" type="qcurve" smooth="yes"/>
      <point x="322" y="135"/>
      <point x="289" y="168"/>
      <point x="266" y="168" type="qcurve" smooth="yes"/>
      <point x="243" y="168"/>
      <point x="210" y="135"/>
    </contour>
    <contour>
      <point x="211" y="463" type="qcurve" smooth="yes"/>
      <point x="211" y="440"/>
      <point x="244" y="406"/>
      <point x="267" y="406" type="qcurve" smooth="yes"/>
      <point x="290" y="406"/>
      <point x="323" y="440"/>
      <point x="323" y="463" type="qcurve" smooth="yes"/>
      <point x="323" y="486"/>
      <point x="290" y="519"/>
      <point x="267" y="519" type="qcurve" smooth="yes"/>
      <point x="244" y="519"/>
      <point x="211" y="486"/>
    </contour>
  </outline>
</glyph>
<glyph name="thorn" format="2">
  <advance width="603"/>
  <unicode hex="00FE"/>
  <outline>
    <contour>
      <point x="568" y="257" type="qcurve"/>
      <point x="568" y="307"/>
      <point x="534" y="405"/>
      <point x="469" y="485"/>
      <point x="377" y="534"/>
      <point x="319" y="534" type="qcurve" smooth="yes"/>
      <point x="261" y="534"/>
      <point x="185" y="483"/>
      <point x="161" y="449" type="qcurve"/>
      <point x="161" y="710" type="line"/>
      <point x="71" y="710" type="line"/>
      <point x="71" y="-213" type="line"/>
      <point x="161" y="-213" type="line"/>
      <point x="161" y="60" type="line"/>
      <point x="170" y="45"/>
      <point x="200" y="16"/>
      <point x="238" y="-5"/>
      <point x="284" y="-18"/>
      <point x="310" y="-18" type="qcurve" smooth="yes"/>
      <point x="364" y="-18"/>
      <point x="457" y="27"/>
      <point x="527" y="103"/>
      <point x="567" y="203"/>
    </contour>
    <contour>
      <point x="478" y="258" type="qcurve" smooth="yes"/>
      <point x="478" y="220"/>
      <point x="453" y="149"/>
      <point x="408" y="95"/>
      <point x="345" y="62"/>
      <point x="308" y="62" type="qcurve" smooth="yes"/>
      <point x="284" y="62"/>
      <point x="233" y="81"/>
      <point x="189" y="112"/>
      <point x="161" y="152"/>
      <point x="161" y="173" type="qcurve" smooth="yes"/>
      <point x="161" y="344" type="line"/>
      <point x="172" y="366"/>
      <point x="203" y="406"/>
      <point x="241" y="436"/>
      <point x="287" y="454"/>
      <point x="314" y="454" type="qcurve" smooth="yes"/>
      <point x="351" y="454"/>
      <point x="412" y="422"/>
      <point x="455" y="368"/>
      <point x="478" y="297"/>
    </contour>
  </outline>
</glyph>
<glyph name="dcroat" format="2">
  <advance width="629"/>
  <unicode hex="0111"/>
  <outline>
    <component base="d"/>
    <contour>
      <point x="621" y="611" type="line"/>
      <point x="621" y="667" type="line"/>
      <point x="355" y="667" type="line"/>
      <point x="355" y="611" type="line"/>
    </contour>
  </outline>
</glyph>
<glyph name="Hbar" format="2">
  <advance width="751"/>
  <unicode hex="0126"/>
  <outline>
    <component base="H" xOffset="5"/>
    <contour>
      <point x="711" y="529" type="line"/>
      <point x="711" y="595" type="line"/>
      <point x="40" y="595" type="line"/>
      <point x="40" y="529" type="line"/>
    </contour>
  </outline>
</glyph>
<glyph name="hbar" format="2">
  <advance width="590"/>
  <unicode hex="0127"/>
  <outline>
    <contour>
      <point x="281" y="611" type="line"/>
      <point x="281" y="667" type="line"/>
      <point x="15" y="667" type="line"/>
      <point x="15" y="611" type="line"/>
    </contour>
    <contour>
      <point x="524" y="312" type="line" smooth="yes"/>
      <point x="524" y="359"/>
      <point x="507" y="439"/>
      <point x="469" y="497"/>
      <point x="406" y="531"/>
      <point x="359" y="531" type="qcurve" smooth="yes"/>
      <point x="296" y="531"/>
      <point x="190" y="467"/>
      <point x="159" y="410" type="qcurve"/>
      <point x="159" y="730" type="line"/>
      <point x="71" y="730" type="line"/>
      <point x="71" y="0" type="line"/>
      <point x="159" y="0" type="line"/>
      <point x="159" y="315" type="line"/>
      <point x="168" y="345"/>
      <point x="203" y="395"/>
      <point x="248" y="431"/>
      <point x="300" y="452"/>
      <point x="326" y="452" type="qcurve" smooth="yes"/>
      <point x="380" y="452"/>
      <point x="436" y="373"/>
      <point x="436" y="292" type="qcurve" smooth="yes"/>
      <point x="436" y="0" type="line"/>
      <point x="524" y="0" type="line"/>
    </contour>
  </outline>
</glyph>
<glyph name="dotlessi" format="2">
  <advance width="230"/>
  <unicode hex="0131"/>
  <outline>
    <contour>
      <point x="159" y="0" type="line"/>
      <point x="159" y="522" type="line"/>
      <point x="71" y="522" type="line"/>
      <point x="71" y="0" type="line"/>
    </contour>
  </outline>
</glyph>
<glyph name="idotless" format="2">
  <advance width="230"/>
  <unicode hex="0131"/>
  <anchor x="115" y="522" name="top"/>
  <outline>
    <contour>
      <point x="159" y="0" type="line"/>
      <point x="159" y="522" type="line"/>
      <point x="71" y="522" type="line"/>
      <point x="71" y="0" type="line"/>
    </contour>
  </outline>
</glyph>
<glyph name="Lslash" format="2">
  <advance width="591"/>
  <unicode hex="0141"/>
  <outline>
    <contour>
      <point x="349" y="474" type="line"/>
      <point x="324" y="523" type="line"/>
      <point x="10" y="283" type="line"/>
      <point x="36" y="233" type="line"/>
    </contour>
    <contour>
      <point x="578" y="0" type="line"/>
      <point x="578" y="80" type="line"/>
      <point x="182" y="80" type="line"/>
      <point x="182" y="710" type="line"/>
      <point x="92" y="710" type="line"/>
      <point x="92" y="0" type="line"/>
    </contour>
  </outline>
</glyph>
<glyph name="lslash" format="2">
  <advance width="308"/>
  <unicode hex="0142"/>
  <outline>
    <contour>
      <point x="297" y="473" type="line"/>
      <point x="270" y="522" type="line"/>
      <point x="8" y="332" type="line"/>
      <point x="34" y="283" type="line"/>
    </contour>
    <contour>
      <point x="94" y="103" type="line" smooth="yes"/>
      <point x="94" y="51"/>
      <point x="153" y="-7"/>
      <point x="204" y="-7" type="qcurve" smooth="yes"/>
      <point x="227" y="-7"/>
      <point x="287" y="5"/>
      <point x="309" y="14" type="qcurve"/>
      <point x="295" y="86" type="line"/>
      <point x="282" y="81"/>
      <point x="244" y="72"/>
      <point x="223" y="72" type="qcurve" smooth="yes"/>
      <point x="214" y="72"/>
      <point x="199" y="75"/>
      <point x="188" y="88"/>
      <point x="182" y="113"/>
      <point x="182" y="135" type="qcurve" smooth="yes"/>
      <point x="182" y="730" type="line"/>
      <point x="94" y="730" type="line"/>
    </contour>
  </outline>
</glyph>
<glyph name="oe" format="2">
  <advance width="1028"/>
  <unicode hex="0153"/>
  <outline>
    <contour>
      <point x="298" y="-10" type="qcurve" smooth="yes"/>
      <point x="333" y="-10"/>
      <point x="397" y="10"/>
      <point x="453" y="48"/>
      <point x="500" y="104"/>
      <point x="518" y="139" type="qcurve"/>
      <point x="536" y="105"/>
      <point x="585" y="50"/>
      <point x="643" y="11"/>
      <point x="709" y="-10"/>
      <point x="745" y="-10" type="qcurve" smooth="yes"/>
      <point x="783" y="-10"/>
      <point x="853" y="9"/>
      <point x="913" y="44"/>
      <point x="960" y="92"/>
      <point x="973" y="122" type="qcurve"/>
      <point x="899" y="143" type="line"/>
      <point x="892" y="124"/>
      <point x="862" y="91"/>
      <point x="822" y="68"/>
      <point x="774" y="55"/>
      <point x="749" y="55" type="qcurve" smooth="yes"/>
      <point x="713" y="55"/>
      <point x="649" y="82"/>
      <point x="600" y="130"/>
      <point x="569" y="194"/>
      <point x="566" y="231" type="qcurve"/>
      <point x="999" y="231" type="line"/>
      <point x="1000" y="236"/>
      <point x="1000" y="255"/>
      <point x="1000" y="261" type="qcurve"/>
      <point x="997" y="322"/>
      <point x="956" y="421"/>
      <point x="887" y="492"/>
      <point x="794" y="531"/>
      <point x="738" y="531" type="qcurve" smooth="yes"/>
      <point x="661" y="531"/>
      <point x="548" y="452"/>
      <point x="517" y="379" type="qcurve"/>
      <point x="502" y="414"/>
      <point x="458" y="471"/>
      <point x="402" y="510"/>
      <point x="336" y="531"/>
      <point x="299" y="531" type="qcurve" smooth="yes"/>
      <point x="243" y="531"/>
      <point x="147" y="489"/>
      <point x="76" y="416"/>
      <point x="36" y="317"/>
      <point x="36" y="259" type="qcurve" smooth="yes"/>
      <point x="36" y="202"/>
      <point x="76" y="104"/>
      <point x="146" y="31"/>
      <point x="242" y="-10"/>
    </contour>
    <contour>
      <point x="299" y="66" type="qcurve" smooth="yes"/>
      <point x="263" y="66"/>
      <point x="199" y="95"/>
      <point x="153" y="147"/>
      <point x="126" y="217"/>
      <point x="126" y="258" type="qcurve" smooth="yes"/>
      <point x="126" y="299"/>
      <point x="153" y="371"/>
      <point x="200" y="424"/>
      <point x="264" y="455"/>
      <point x="300" y="455" type="qcurve" smooth="yes"/>
      <point x="336" y="455"/>
      <point x="400" y="425"/>
      <point x="446" y="372"/>
      <point x="473" y="301"/>
      <point x="473" y="260" type="qcurve" smooth="yes"/>
      <point x="473" y="219"/>
      <point x="446" y="148"/>
      <point x="399" y="96"/>
      <point x="336" y="66"/>
    </contour>
    <contour>
      <point x="564" y="288" type="line"/>
      <point x="566" y="327"/>
      <point x="594" y="392"/>
      <point x="640" y="439"/>
      <point x="701" y="465"/>
      <point x="736" y="465" type="qcurve" smooth="yes"/>
      <point x="771" y="465"/>
      <point x="834" y="439"/>
      <point x="882" y="392"/>
      <point x="912" y="327"/>
      <point x="915" y="288" type="qcurve"/>
    </contour>
  </outline>
</glyph>
<glyph name="Tbar" format="2">
  <advance width="642"/>
  <unicode hex="0166"/>
  <outline>
    <component base="T" xOffset="14"/>
    <contour>
      <point x="567" y="309" type="line"/>
      <point x="567" y="375" type="line"/>
      <point x="75" y="375" type="line"/>
      <point x="75" y="309" type="line"/>
    </contour>
  </outline>
</glyph>
<glyph name="tbar" format="2">
  <advance width="353"/>
  <unicode hex="0167"/>
  <outline>
    <contour>
      <point x="289" y="272" type="line"/>
      <point x="289" y="328" type="line"/>
      <point x="36" y="328" type="line"/>
      <point x="36" y="272" type="line"/>
    </contour>
    <contour>
      <point x="321" y="96" type="line"/>
      <point x="317" y="94"/>
      <point x="302" y="86"/>
      <point x="282" y="79"/>
      <point x="257" y="74"/>
      <point x="244" y="74" type="qcurve" smooth="yes"/>
      <point x="221" y="74"/>
      <point x="187" y="100"/>
      <point x="185" y="129" type="qcurve"/>
      <point x="185" y="453" type="line"/>
      <point x="302" y="453" type="line"/>
      <point x="302" y="522" type="line"/>
      <point x="185" y="522" type="line"/>
      <point x="185" y="696" type="line"/>
      <point x="97" y="696" type="line"/>
      <point x="97" y="522" type="line"/>
      <point x="26" y="522" type="line"/>
      <point x="26" y="453" type="line"/>
      <point x="97" y="453" type="line"/>
      <point x="97" y="102" type="line" smooth="yes"/>
      <point x="97" y="74"/>
      <point x="116" y="33"/>
      <point x="148" y="6"/>
      <point x="191" y="-7"/>
      <point x="215" y="-7" type="qcurve" smooth="yes"/>
      <point x="236" y="-7"/>
      <point x="275" y="1"/>
      <point x="308" y="11"/>
      <point x="334" y="22"/>
      <point x="342" y="26" type="qcurve"/>
    </contour>
  </outline>
</glyph>
<glyph name="florin" format="2">
  <advance width="534"/>
  <unicode hex="0192"/>
  <outline>
    <contour>
      <point x="150" y="-186" type="qcurve" smooth="yes"/>
      <point x="182" y="-186"/>
      <point x="240" y="-162"/>
      <point x="285" y="-118"/>
      <point x="312" y="-57"/>
      <point x="312" y="-21" type="qcurve" smooth="yes"/>
      <point x="312" y="392" type="line"/>
      <point x="451" y="392" type="line"/>
      <point x="451" y="461" type="line"/>
      <point x="312" y="461" type="line"/>
      <point x="312" y="536" type="line" smooth="yes"/>
      <point x="312" y="599"/>
      <point x="357" y="665"/>
      <point x="401" y="665" type="qcurve" smooth="yes"/>
      <point x="421" y="665"/>
      <point x="463" y="653"/>
      <point x="477" y="643" type="qcurve"/>
      <point x="499" y="708" type="line"/>
      <point x="475" y="723"/>
      <point x="414" y="740"/>
      <point x="384" y="740" type="qcurve" smooth="yes"/>
      <point x="347" y="740"/>
      <point x="288" y="711"/>
      <point x="246" y="658"/>
      <point x="224" y="581"/>
      <point x="224" y="533" type="qcurve" smooth="yes"/>
      <point x="224" y="461" type="line"/>
      <point x="153" y="461" type="line"/>
      <point x="153" y="392" type="line"/>
      <point x="224" y="392" type="line"/>
      <point x="224" y="-23" type="line" smooth="yes"/>
      <point x="224" y="-41"/>
      <point x="210" y="-73"/>
      <point x="186" y="-95"/>
      <point x="156" y="-108"/>
      <point x="140" y="-108" type="qcurve" smooth="yes"/>
      <point x="122" y="-108"/>
      <point x="85" y="-98"/>
      <point x="71" y="-85" type="qcurve"/>
      <point x="30" y="-144" type="line"/>
      <point x="54" y="-166"/>
      <point x="116" y="-186"/>
    </contour>
  </outline>
</glyph>
<glyph name="Aringacute" format="2">
  <advance width="677"/>
  <unicode hex="01FA"/>
  <outline>
    <contour>
      <point x="10" y="0" type="line"/>
      <point x="106" y="0" type="line"/>
      <point x="189" y="208" type="line"/>
      <point x="487" y="208" type="line"/>
      <point x="571" y="0" type="line"/>
      <point x="667" y="0" type="line"/>
      <point x="377" y="710" type="line"/>
      <point x="301" y="710" type="line"/>
    </contour>
    <contour>
      <point x="207" y="278" type="line"/>
      <point x="339" y="606" type="line"/>
      <point x="467" y="278" type="line"/>
    </contour>
    <contour>
      <point x="244" y="770" type="qcurve" smooth="yes"/>
      <point x="244" y="731"/>
      <point x="297" y="684"/>
      <point x="339" y="684" type="qcurve" smooth="yes"/>
      <point x="381" y="684"/>
      <point x="434" y="731"/>
      <point x="434" y="770" type="qcurve" smooth="yes"/>
      <point x="434" y="810"/>
      <point x="381" y="858"/>
      <point x="339" y="858" type="qcurve" smooth="yes"/>
      <point x="297" y="858"/>
      <point x="244" y="810"/>
    </contour>
    <contour>
      <point x="339" y="818" type="qcurve" smooth="yes"/>
      <point x="359" y="818"/>
      <point x="387" y="793"/>
      <point x="387" y="770" type="qcurve" smooth="yes"/>
      <point x="387" y="749"/>
      <point x="358" y="723"/>
      <point x="339" y="723" type="qcurve" smooth="yes"/>
      <point x="319" y="723"/>
      <point x="292" y="750"/>
      <point x="292" y="770" type="qcurve" smooth="yes"/>
      <point x="292" y="793"/>
      <point x="319" y="818"/>
    </contour>
    <contour>
      <point x="477" y="973" type="line"/>
      <point x="389" y="973" type="line"/>
      <point x="310" y="821" type="line"/>
      <point x="359" y="821" type="line"/>
    </contour>
  </outline>
</glyph>
<glyph name="uni0237" format="2">
  <advance width="230"/>
  <unicode hex="0237"/>
  <outline>
    <contour>
      <point x="-3" y="-186" type="qcurve" smooth="yes"/>
      <point x="29" y="-186"/>
      <point x="87" y="-161"/>
      <point x="132" y="-116"/>
      <point x="159" y="-54"/>
      <point x="159" y="-17" type="qcurve" smooth="yes"/>
      <point x="159" y="522" type="line"/>
      <point x="71" y="522" type="line"/>
      <point x="71" y="-23" type="line" smooth="yes"/>
      <point x="71" y="-41"/>
      <point x="57" y="-73"/>
      <point x="33" y="-95"/>
      <point x="3" y="-108"/>
      <point x="-13" y="-108" type="qcurve" smooth="yes"/>
      <point x="-31" y="-108"/>
      <point x="-68" y="-98"/>
      <point x="-82" y="-85" type="qcurve"/>
      <point x="-123" y="-144" type="line"/>
      <point x="-99" y="-166"/>
      <point x="-38" y="-186"/>
    </contour>
  </outline>
</glyph>
<glyph name="uni02BE" format="2">
  <advance width="157"/>
  <unicode hex="02BE"/>
  <outline>
    <contour>
      <point x="31" y="579" type="line"/>
      <point x="73" y="579"/>
      <point x="126" y="626"/>
      <point x="126" y="665" type="qcurve" smooth="yes"/>
      <point x="126" y="705"/>
      <point x="73" y="753"/>
      <point x="31" y="753" type="qcurve"/>
      <point x="31" y="713" type="line"/>
      <point x="51" y="713"/>
      <point x="79" y="688"/>
      <point x="79" y="665" type="qcurve" smooth="yes"/>
      <point x="79" y="644"/>
      <point x="50" y="618"/>
      <point x="31" y="618" type="qcurve"/>
    </contour>
  </outline>
</glyph>
<glyph name="uni02BF" format="2">
  <advance width="157"/>
  <unicode hex="02BF"/>
  <outline>
    <contour>
      <point x="126" y="618" type="line"/>
      <point x="106" y="618"/>
      <point x="79" y="645"/>
      <point x="79" y="665" type="qcurve" smooth="yes"/>
      <point x="79" y="688"/>
      <point x="106" y="713"/>
      <point x="126" y="713" type="qcurve"/>
      <point x="126" y="753" type="line"/>
      <point x="84" y="753"/>
      <point x="31" y="705"/>
      <point x="31" y="665" type="qcurve" smooth="yes"/>
      <point x="31" y="626"/>
      <point x="84" y="579"/>
      <point x="126" y="579" type="qcurve"/>
    </contour>
  </outline>
</glyph>
<glyph name="uni02CA" format="2">
  <advance width="210"/>
  <unicode hex="02CA"/>
  <outline>
    <contour>
      <point x="113" y="501" type="line"/>
      <point x="143" y="718" type="line"/>
      <point x="67" y="718" type="line"/>
      <point x="67" y="501" type="line"/>
    </contour>
  </outline>
</glyph>
<glyph name="gravecomb" format="2">
  <advance width="240"/>
  <unicode hex="0300"/>
  <outline>
    <contour>
      <point x="37" y="760" type="line"/>
      <point x="158" y="600" type="line"/>
      <point x="213" y="600" type="line"/>
      <point x="137" y="760" type="line"/>
    </contour>
  </outline>
</glyph>
<glyph name="acutecomb" format="2">
  <advance width="250"/>
  <unicode hex="0301"/>
  <outline>
    <contour>
      <point x="224" y="760" type="line"/>
      <point x="109" y="760" type="line"/>
      <point x="37" y="600" type="line"/>
      <point x="99" y="600" type="line"/>
    </contour>
  </outline>
</glyph>
<glyph name="circumflexcomb" format="2">
  <advance width="342"/>
  <unicode hex="0302"/>
  <anchor x="171" y="522" name="_top"/>
  <anchor x="171" y="730" name="top"/>
  <outline>
    <contour>
      <point x="204" y="730" type="line"/>
      <point x="116" y="730" type="line"/>
      <point x="27" y="590" type="line"/>
      <point x="76" y="590" type="line"/>
    </contour>
    <contour>
      <point x="137" y="730" type="line"/>
      <point x="265" y="590" type="line"/>
      <point x="314" y="590" type="line"/>
      <point x="225" y="730" type="line"/>
    </contour>
  </outline>
</glyph>
<glyph name="tildecomb" format="2">
  <advance width="432"/>
  <unicode hex="0303"/>
  <outline>
    <contour>
      <point x="281" y="622" type="qcurve" smooth="yes"/>
      <point x="315" y="622"/>
      <point x="361" y="655"/>
      <point x="388" y="698"/>
      <point x="399" y="736"/>
      <point x="399" y="744" type="qcurve"/>
      <point x="331" y="744" type="line"/>
      <point x="331" y="743"/>
      <point x="328" y="727"/>
      <point x="316" y="708"/>
      <point x="295" y="694"/>
      <point x="277" y="694" type="qcurve" smooth="yes"/>
      <point x="259" y="694"/>
      <point x="231" y="708"/>
      <point x="201" y="725"/>
      <point x="168" y="740"/>
      <point x="146" y="740" type="qcurve" smooth="yes"/>
      <point x="114" y="740"/>
      <point x="71" y="708"/>
      <point x="44" y="667"/>
      <point x="33" y="627"/>
      <point x="33" y="618" type="qcurve"/>
      <point x="102" y="618" type="line"/>
      <point x="102" y="620"/>
      <point x="105" y="635"/>
      <point x="114" y="652"/>
      <point x="134" y="666"/>
      <point x="150" y="666" type="qcurve" smooth="yes"/>
      <point x="166" y="666"/>
      <point x="195" y="652"/>
      <point x="224" y="636"/>
      <point x="259" y="622"/>
    </contour>
  </outline>
</glyph>
<glyph name="brevecomb" format="2">
  <advance width="296"/>
  <unicode hex="0306"/>
  <outline>
    <contour>
      <point x="148" y="662" type="qcurve" smooth="yes"/>
      <point x="125" y="662"/>
      <point x="91" y="703"/>
      <point x="91" y="730" type="qcurve"/>
      <point x="40" y="730" type="line"/>
      <point x="40" y="706"/>
      <point x="57" y="666"/>
      <point x="86" y="636"/>
      <point x="125" y="619"/>
      <point x="148" y="619" type="qcurve" smooth="yes"/>
      <point x="171" y="619"/>
      <point x="210" y="636"/>
      <point x="239" y="666"/>
      <point x="256" y="706"/>
      <point x="256" y="730" type="qcurve"/>
      <point x="206" y="730" type="line"/>
      <point x="203" y="701"/>
      <point x="170" y="662"/>
    </contour>
  </outline>
</glyph>
<glyph name="dotaccentcomb" format="2">
  <advance width="180"/>
  <unicode hex="0307"/>
  <anchor x="90" y="522" name="_top"/>
  <anchor x="90" y="730" name="top"/>
  <outline>
    <contour>
      <point x="34" y="674" type="curve" smooth="yes"/>
      <point x="34" y="643"/>
      <point x="59" y="618"/>
      <point x="90" y="618" type="curve" smooth="yes"/>
      <point x="121" y="618"/>
      <point x="146" y="643"/>
      <point x="146" y="674" type="curve" smooth="yes"/>
      <point x="146" y="705"/>
      <point x="121" y="730"/>
      <point x="90" y="730" type="curve" smooth="yes"/>
      <point x="59" y="730"/>
      <point x="34" y="705"/>
    </contour>
  </outline>
</glyph>
<glyph name="dieresiscomb" format="2">
  <advance width="368"/>
  <unicode hex="0308"/>
  <outline>
    <contour>
      <point x="38" y="674" type="qcurve" smooth="yes"/>
      <point x="38" y="651"/>
      <point x="71" y="618"/>
      <point x="94" y="618" type="qcurve" smooth="yes"/>
      <point x="117" y="618"/>
      <point x="150" y="651"/>
      <point x="150" y="674" type="qcurve" smooth="yes"/>
      <point x="150" y="697"/>
      <point x="117" y="730"/>
      <point x="94" y="730" type="qcurve" smooth="yes"/>
      <point x="71" y="730"/>
      <point x="38" y="697"/>
    </contour>
    <contour>
      <point x="219" y="674" type="qcurve" smooth="yes"/>
      <point x="219" y="651"/>
      <point x="252" y="618"/>
      <point x="275" y="618" type="qcurve" smooth="yes"/>
      <point x="298" y="618"/>
      <point x="331" y="651"/>
      <point x="331" y="674" type="qcurve" smooth="yes"/>
      <point x="331" y="697"/>
      <point x="298" y="730"/>
      <point x="275" y="730" type="qcurve" smooth="yes"/>
      <point x="252" y="730"/>
      <point x="219" y="697"/>
    </contour>
  </outline>
</glyph>
<glyph name="hookabovecomb" format="2">
  <advance width="600"/>
  <unicode hex="0309"/>
  <outline>
    <contour>
      <point x="258" y="696" type="line"/>
      <point x="272" y="709"/>
      <point x="291" y="718"/>
      <point x="304" y="718" type="qcurve" smooth="yes"/>
      <point x="316" y="718"/>
      <point x="331" y="702"/>
      <point x="331" y="691" type="qcurve" smooth="yes"/>
      <point x="331" y="679"/>
      <point x="319" y="656"/>
      <point x="302" y="640" type="qcurve"/>
      <point x="327" y="611" type="line"/>
      <point x="356" y="635"/>
      <point x="383" y="679"/>
      <point x="383" y="699" type="qcurve" smooth="yes"/>
      <point x="383" y="724"/>
      <point x="348" y="765"/>
      <point x="312" y="765" type="qcurve" smooth="yes"/>
      <point x="286" y="765"/>
      <point x="244" y="746"/>
      <point x="225" y="729" type="qcurve"/>
    </contour>
  </outline>
</glyph>
<glyph name="uni030A" format="2">
  <advance width="252"/>
  <unicode hex="030A"/>
  <outline>
    <contour>
      <point x="31" y="665" type="qcurve" smooth="yes"/>
      <point x="31" y="626"/>
      <point x="84" y="579"/>
      <point x="126" y="579" type="qcurve" smooth="yes"/>
      <point x="168" y="579"/>
      <point x="221" y="626"/>
      <point x="221" y="665" type="qcurve" smooth="yes"/>
      <point x="221" y="705"/>
      <point x="168" y="753"/>
      <point x="126" y="753" type="qcurve" smooth="yes"/>
      <point x="84" y="753"/>
      <point x="31" y="705"/>
    </contour>
    <contour>
      <point x="126" y="713" type="qcurve" smooth="yes"/>
      <point x="146" y="713"/>
      <point x="174" y="688"/>
      <point x="174" y="665" type="qcurve" smooth="yes"/>
      <point x="174" y="644"/>
      <point x="145" y="618"/>
      <point x="126" y="618" type="qcurve" smooth="yes"/>
      <point x="106" y="618"/>
      <point x="79" y="645"/>
      <point x="79" y="665" type="qcurve" smooth="yes"/>
      <point x="79" y="688"/>
      <point x="106" y="713"/>
    </contour>
  </outline>
</glyph>
<glyph name="hungarumlautcomb" format="2">
  <advance width="338"/>
  <unicode hex="030B"/>
  <anchor x="149" y="521" name="_top"/>
  <outline>
    <contour>
      <point x="205" y="590" type="line"/>
      <point x="254" y="590" type="line"/>
      <point x="362" y="730" type="line"/>
      <point x="274" y="730" type="line"/>
    </contour>
    <contour>
      <point x="29" y="590" type="line"/>
      <point x="78" y="590" type="line"/>
      <point x="186" y="730" type="line"/>
      <point x="98" y="730" type="line"/>
    </contour>
  </outline>
</glyph>
<glyph name="caroncomb" format="2">
  <advance width="342"/>
  <unicode hex="030C"/>
  <anchor x="171" y="522" name="_top"/>
  <anchor x="171" y="798" name="top"/>
  <outline>
    <contour>
      <point x="204" y="590" type="line"/>
      <point x="76" y="730" type="line"/>
      <point x="27" y="730" type="line"/>
      <point x="116" y="590" type="line"/>
    </contour>
    <contour>
      <point x="137" y="590" type="line"/>
      <point x="225" y="590" type="line"/>
      <point x="314" y="730" type="line"/>
      <point x="265" y="730" type="line"/>
    </contour>
  </outline>
</glyph>
<glyph name="uni030C" format="2">
  <advance width="342"/>
  <unicode hex="030C"/>
  <outline>
    <contour>
      <point x="27" y="740" type="line"/>
      <point x="126" y="600" type="line"/>
      <point x="215" y="600" type="line"/>
      <point x="314" y="740" type="line"/>
      <point x="265" y="740" type="line"/>
      <point x="171" y="650" type="line"/>
      <point x="76" y="740" type="line"/>
    </contour>
  </outline>
</glyph>
<glyph name="dblgravecomb" format="2">
  <advance width="338"/>
  <unicode hex="030F"/>
  <anchor x="195" y="521" name="_top"/>
  <outline>
    <contour>
      <point x="79" y="590" type="line"/>
      <point x="128" y="590" type="line"/>
      <point x="59" y="730" type="line"/>
      <point x="-29" y="730" type="line"/>
    </contour>
    <contour>
      <point x="255" y="590" type="line"/>
      <point x="304" y="590" type="line"/>
      <point x="235" y="730" type="line"/>
      <point x="147" y="730" type="line"/>
    </contour>
  </outline>
</glyph>
<glyph name="breveinvertedcomb" format="2">
  <advance width="296"/>
  <unicode hex="0311"/>
  <outline>
    <contour>
      <point x="148" y="687" type="qcurve" smooth="yes"/>
      <point x="170" y="687"/>
      <point x="203" y="648"/>
      <point x="206" y="619" type="qcurve"/>
      <point x="256" y="619" type="line"/>
      <point x="256" y="643"/>
      <point x="239" y="683"/>
      <point x="210" y="713"/>
      <point x="171" y="730"/>
      <point x="148" y="730" type="qcurve" smooth="yes"/>
      <point x="125" y="730"/>
      <point x="86" y="713"/>
      <point x="57" y="683"/>
      <point x="40" y="643"/>
      <point x="40" y="619" type="qcurve"/>
      <point x="91" y="619" type="line"/>
      <point x="91" y="646"/>
      <point x="125" y="687"/>
    </contour>
  </outline>
</glyph>
<glyph name="commaturnedabovecomb" format="2">
  <advance width="179"/>
  <unicode hex="0312"/>
  <outline>
    <contour>
      <point x="22" y="586" type="line"/>
      <point x="122" y="586" type="line"/>
      <point x="190" y="731" type="line"/>
      <point x="135" y="731" type="line"/>
    </contour>
  </outline>
</glyph>
<glyph name="uni0312" format="2">
  <advance width="168"/>
  <unicode hex="0312"/>
  <outline>
    <contour>
      <point x="24" y="588" type="line"/>
      <point x="112" y="588" type="line"/>
      <point x="181" y="728" type="line"/>
      <point x="132" y="728" type="line"/>
    </contour>
  </outline>
</glyph>
<glyph name="horncomb" format="2">
  <advance width="271"/>
  <unicode hex="031B"/>
  <outline>
    <contour>
      <point x="50" y="493" type="line"/>
      <point x="72" y="493"/>
      <point x="113" y="499"/>
      <point x="148" y="510"/>
      <point x="176" y="527"/>
      <point x="186" y="539" type="qcurve"/>
      <point x="196" y="550"/>
      <point x="208" y="575"/>
      <point x="216" y="600"/>
      <point x="220" y="627"/>
      <point x="221" y="641" type="qcurve"/>
      <point x="149" y="641" type="line"/>
      <point x="148" y="621"/>
      <point x="142" y="593"/>
      <point x="132" y="580" type="qcurve"/>
      <point x="122" y="569"/>
      <point x="87" y="557"/>
      <point x="52" y="557" type="qcurve"/>
    </contour>
  </outline>
</glyph>
<glyph name="dotbelowcomb" format="2">
  <advance width="180"/>
  <unicode hex="0323"/>
  <anchor x="90" y="0" name="_bottom"/>
  <anchor x="90" y="-187" name="bottom"/>
  <outline>
    <contour>
      <point x="34" y="-136" type="curve" smooth="yes"/>
      <point x="34" y="-167"/>
      <point x="59" y="-192"/>
      <point x="90" y="-192" type="curve" smooth="yes"/>
      <point x="121" y="-192"/>
      <point x="146" y="-167"/>
      <point x="146" y="-136" type="curve" smooth="yes"/>
      <point x="146" y="-105"/>
      <point x="121" y="-80"/>
      <point x="90" y="-80" type="curve" smooth="yes"/>
      <point x="59" y="-80"/>
      <point x="34" y="-105"/>
    </contour>
  </outline>
</glyph>
<glyph name="dieresisbelowcomb" format="2">
  <advance width="368"/>
  <unicode hex="0324"/>
  <anchor x="184" y="0" name="_bottom"/>
  <anchor x="184" y="-187" name="bottom"/>
  <outline>
    <contour>
      <point x="208" y="-136" type="curve" smooth="yes"/>
      <point x="208" y="-167"/>
      <point x="233" y="-192"/>
      <point x="264" y="-192" type="curve" smooth="yes"/>
      <point x="295" y="-192"/>
      <point x="320" y="-167"/>
      <point x="320" y="-136" type="curve" smooth="yes"/>
      <point x="320" y="-105"/>
      <point x="295" y="-80"/>
      <point x="264" y="-80" type="curve" smooth="yes"/>
      <point x="233" y="-80"/>
      <point x="208" y="-105"/>
    </contour>
    <contour>
      <point x="47" y="-136" type="curve" smooth="yes"/>
      <point x="47" y="-167"/>
      <point x="72" y="-192"/>
      <point x="103" y="-192" type="curve" smooth="yes"/>
      <point x="134" y="-192"/>
      <point x="159" y="-167"/>
      <point x="159" y="-136" type="curve" smooth="yes"/>
      <point x="159" y="-105"/>
      <point x="134" y="-80"/>
      <point x="103" y="-80" type="curve" smooth="yes"/>
      <point x="72" y="-80"/>
      <point x="47" y="-105"/>
    </contour>
  </outline>
</glyph>
<glyph name="uni0324" format="2">
  <advance width="368"/>
  <unicode hex="0324"/>
  <outline>
    <contour>
      <point x="208" y="-136" type="qcurve" smooth="yes"/>
      <point x="208" y="-159"/>
      <point x="241" y="-192"/>
      <point x="264" y="-192" type="qcurve" smooth="yes"/>
      <point x="287" y="-192"/>
      <point x="320" y="-159"/>
      <point x="320" y="-136" type="qcurve" smooth="yes"/>
      <point x="320" y="-113"/>
      <point x="287" y="-80"/>
      <point x="264" y="-80" type="qcurve" smooth="yes"/>
      <point x="241" y="-80"/>
      <point x="208" y="-113"/>
    </contour>
    <contour>
      <point x="47" y="-136" type="qcurve" smooth="yes"/>
      <point x="47" y="-159"/>
      <point x="80" y="-192"/>
      <point x="103" y="-192" type="qcurve" smooth="yes"/>
      <point x="126" y="-192"/>
      <point x="159" y="-159"/>
      <point x="159" y="-136" type="qcurve" smooth="yes"/>
      <point x="159" y="-113"/>
      <point x="126" y="-80"/>
      <point x="103" y="-80" type="qcurve" smooth="yes"/>
      <point x="80" y="-80"/>
      <point x="47" y="-113"/>
    </contour>
  </outline>
</glyph>
<glyph name="commaaccentcomb" format="2">
  <advance width="168"/>
  <unicode hex="0326"/>
  <anchor x="100" y="0" name="_bottom"/>
  <outline>
    <contour>
      <point x="76" y="-241" type="line"/>
      <point x="146" y="-48" type="line"/>
      <point x="63" y="-48" type="line"/>
      <point x="33" y="-241" type="line"/>
    </contour>
  </outline>
</glyph>
<glyph name="uni0326" format="2">
  <advance width="168"/>
  <unicode hex="0326"/>
  <outline>
    <contour>
      <point x="76" y="-241" type="line"/>
      <point x="146" y="-48" type="line"/>
      <point x="63" y="-48" type="line"/>
      <point x="33" y="-241" type="line"/>
    </contour>
  </outline>
</glyph>
<glyph name="cedillacomb" format="2">
  <advance width="296"/>
  <unicode hex="0327"/>
  <outline>
    <contour>
      <point x="52" y="-166" type="qcurve"/>
      <point x="74" y="-181"/>
      <point x="127" y="-185"/>
      <point x="153" y="-185" type="qcurve" smooth="yes"/>
      <point x="171" y="-185"/>
      <point x="210" y="-178"/>
      <point x="242" y="-162"/>
      <point x="263" y="-133"/>
      <point x="263" y="-110" type="qcurve" smooth="yes"/>
      <point x="263" y="-75"/>
      <point x="215" y="-46"/>
      <point x="184" y="-46" type="qcurve" smooth="yes"/>
      <point x="175" y="-46"/>
      <point x="156" y="-48"/>
      <point x="148" y="-51" type="qcurve"/>
      <point x="183" y="4" type="line"/>
      <point x="181" y="5"/>
      <point x="170" y="9"/>
      <point x="158" y="13"/>
      <point x="147" y="17"/>
      <point x="144" y="18" type="qcurve"/>
      <point x="86" y="-91" type="line"/>
      <point x="106" y="-85"/>
      <point x="146" y="-78"/>
      <point x="166" y="-78" type="qcurve" smooth="yes"/>
      <point x="185" y="-78"/>
      <point x="217" y="-90"/>
      <point x="217" y="-113" type="qcurve" smooth="yes"/>
      <point x="217" y="-125"/>
      <point x="206" y="-138"/>
      <point x="189" y="-146"/>
      <point x="169" y="-148"/>
      <point x="160" y="-148" type="qcurve" smooth="yes"/>
      <point x="140" y="-148"/>
      <point x="90" y="-139"/>
      <point x="72" y="-129" type="qcurve"/>
      <point x="71" y="-131"/>
      <point x="63" y="-142"/>
      <point x="55" y="-154"/>
      <point x="50" y="-165"/>
    </contour>
  </outline>
</glyph>
<glyph name="ogonekcomb" format="2">
  <advance width="255"/>
  <unicode hex="0328"/>
  <outline>
    <contour>
      <point x="54" y="-107" type="qcurve" smooth="yes"/>
      <point x="54" y="-120"/>
      <point x="63" y="-147"/>
      <point x="88" y="-170"/>
      <point x="134" y="-186"/>
      <point x="171" y="-189" type="qcurve"/>
      <point x="191" y="-133" type="line"/>
      <point x="155" y="-131"/>
      <point x="113" y="-115"/>
      <point x="113" y="-95" type="qcurve" smooth="yes"/>
      <point x="113" y="-76"/>
      <point x="149" y="-32"/>
      <point x="191" y="0" type="qcurve"/>
      <point x="171" y="18" type="line"/>
      <point x="147" y="18" type="line"/>
      <point x="99" y="-13"/>
      <point x="54" y="-74"/>
    </contour>
  </outline>
</glyph>
<glyph name="brevebelowcomb" format="2">
  <advance width="296"/>
  <unicode hex="032E"/>
  <anchor x="148" y="0" name="_bottom"/>
  <anchor x="148" y="-166" name="bottom"/>
  <outline>
    <contour>
      <point x="148" y="-123" type="curve" smooth="yes"/>
      <point x="118" y="-123"/>
      <point x="91" y="-91"/>
      <point x="91" y="-55" type="curve"/>
      <point x="40" y="-55" type="line"/>
      <point x="40" y="-118"/>
      <point x="87" y="-166"/>
      <point x="148" y="-166" type="curve" smooth="yes"/>
      <point x="209" y="-166"/>
      <point x="256" y="-118"/>
      <point x="256" y="-55" type="curve"/>
      <point x="206" y="-55" type="line"/>
      <point x="202" y="-94"/>
      <point x="177" y="-123"/>
    </contour>
  </outline>
</glyph>
<glyph name="uni032E" format="2">
  <advance width="296"/>
  <unicode hex="032E"/>
  <outline>
    <contour>
      <point x="148" y="-123" type="qcurve" smooth="yes"/>
      <point x="125" y="-123"/>
      <point x="91" y="-82"/>
      <point x="91" y="-55" type="qcurve"/>
      <point x="40" y="-55" type="line"/>
      <point x="40" y="-79"/>
      <point x="57" y="-119"/>
      <point x="86" y="-149"/>
      <point x="125" y="-166"/>
      <point x="148" y="-166" type="qcurve" smooth="yes"/>
      <point x="171" y="-166"/>
      <point x="210" y="-149"/>
      <point x="239" y="-119"/>
      <point x="256" y="-79"/>
      <point x="256" y="-55" type="qcurve"/>
      <point x="206" y="-55" type="line"/>
      <point x="203" y="-84"/>
      <point x="170" y="-123"/>
    </contour>
  </outline>
</glyph>
<glyph name="uni0335" format="2">
  <advance width="353"/>
  <unicode hex="0335"/>
  <outline>
    <contour>
      <point x="303" y="272" type="line"/>
      <point x="303" y="328" type="line"/>
      <point x="50" y="328" type="line"/>
      <point x="50" y="272" type="line"/>
    </contour>
  </outline>
</glyph>
<glyph name="tonos" format="2">
  <advance width="176"/>
  <unicode hex="0384"/>
  <outline>
    <contour>
      <point x="67" y="800" type="line"/>
      <point x="42" y="578" type="line"/>
      <point x="96" y="570" type="line"/>
      <point x="135" y="786" type="line"/>
    </contour>
  </outline>
</glyph>
<glyph name="dieresistonos" format="2">
  <advance width="431"/>
  <unicode hex="0385"/>
  <anchor x="208" y="531" name="_top"/>
  <outline>
    <component base="tonos" xOffset="138" yOffset="13"/>
    <contour>
      <point x="17" y="647" type="curve" smooth="yes"/>
      <point x="17" y="613"/>
      <point x="44" y="585"/>
      <point x="79" y="585" type="curve" smooth="yes"/>
      <point x="115" y="585"/>
      <point x="140" y="613"/>
      <point x="140" y="647" type="curve" smooth="yes"/>
      <point x="140" y="683"/>
      <point x="115" y="708"/>
      <point x="79" y="708" type="curve" smooth="yes"/>
      <point x="44" y="708"/>
      <point x="17" y="683"/>
    </contour>
    <contour>
      <point x="292" y="647" type="curve"/>
      <point x="292" y="613"/>
      <point x="320" y="585"/>
      <point x="354" y="585" type="curve" smooth="yes"/>
      <point x="390" y="585"/>
      <point x="415" y="613"/>
      <point x="415" y="647" type="curve" smooth="yes"/>
      <point x="415" y="683"/>
      <point x="390" y="708"/>
      <point x="354" y="708" type="curve" smooth="yes"/>
      <point x="320" y="708"/>
      <point x="292" y="683"/>
    </contour>
  </outline>
</glyph>
<glyph name="Etatonos" format="2">
  <advance width="762"/>
  <unicode hex="0389"/>
  <outline>
    <contour>
      <point x="613" y="710" type="line"/>
      <point x="613" y="403" type="line"/>
      <point x="222" y="403" type="line"/>
      <point x="222" y="710" type="line"/>
      <point x="132" y="710" type="line"/>
      <point x="132" y="0" type="line"/>
      <point x="222" y="0" type="line"/>
      <point x="222" y="323" type="line"/>
      <point x="613" y="323" type="line"/>
      <point x="613" y="0" type="line"/>
      <point x="703" y="0" type="line"/>
      <point x="703" y="710" type="line"/>
    </contour>
    <contour>
      <point x="76" y="874" type="line"/>
      <point x="-20" y="658" type="line"/>
      <point x="30" y="633" type="line"/>
      <point x="147" y="823" type="line"/>
    </contour>
  </outline>
</glyph>
<glyph name="Iotatonos" format="2">
  <advance width="323"/>
  <unicode hex="038A"/>
  <outline>
    <contour>
      <point x="218" y="0" type="line"/>
      <point x="218" y="710" type="line"/>
      <point x="128" y="710" type="line"/>
      <point x="128" y="0" type="line"/>
    </contour>
    <contour>
      <point x="85" y="871" type="line"/>
      <point x="-11" y="655" type="line"/>
      <point x="39" y="630" type="line"/>
      <point x="156" y="820" type="line"/>
    </contour>
  </outline>
</glyph>
<glyph name="Upsilontonos" format="2">
  <advance width="686"/>
  <unicode hex="038E"/>
  <outline>
    <contour>
      <point x="325" y="0" type="line"/>
      <point x="413" y="0" type="line"/>
      <point x="413" y="239" type="line"/>
      <point x="414" y="307"/>
      <point x="452" y="421"/>
      <point x="514" y="523"/>
      <point x="595" y="614"/>
      <point x="639" y="659" type="qcurve"/>
      <point x="575" y="709" type="line"/>
      <point x="530" y="664"/>
      <point x="464" y="593"/>
      <point x="416" y="525"/>
      <point x="383" y="453"/>
      <point x="371" y="407" type="qcurve"/>
      <point x="366" y="407" type="line"/>
      <point x="353" y="453"/>
      <point x="320" y="526"/>
      <point x="273" y="594"/>
      <point x="208" y="665"/>
      <point x="163" y="709" type="qcurve"/>
      <point x="100" y="659" type="line"/>
      <point x="141" y="618"/>
      <point x="221" y="530"/>
      <point x="286" y="428"/>
      <point x="325" y="310"/>
      <point x="325" y="239" type="qcurve" smooth="yes"/>
    </contour>
    <contour>
      <point x="95" y="871" type="line"/>
      <point x="-1" y="655" type="line"/>
      <point x="49" y="630" type="line"/>
      <point x="166" y="820" type="line"/>
    </contour>
  </outline>
</glyph>
<glyph name="iotadieresistonos" format="2">
  <advance width="353"/>
  <unicode hex="0390"/>
  <outline>
    <contour>
      <point x="218" y="-8" type="qcurve" smooth="yes"/>
      <point x="233" y="-8"/>
      <point x="270" y="-3"/>
      <point x="287" y="5" type="qcurve"/>
      <point x="271" y="82" type="line"/>
      <point x="261" y="79"/>
      <point x="243" y="73"/>
      <point x="234" y="71" type="qcurve"/>
      <point x="215" y="73"/>
      <point x="198" y="107"/>
      <point x="198" y="160" type="qcurve" smooth="yes"/>
      <point x="198" y="183"/>
      <point x="201" y="268"/>
      <point x="205" y="368"/>
      <point x="209" y="474"/>
      <point x="211" y="518" type="qcurve"/>
      <point x="123" y="518" type="line"/>
      <point x="122" y="463"/>
      <point x="120" y="360"/>
      <point x="119" y="261"/>
      <point x="118" y="165"/>
      <point x="118" y="119" type="qcurve" smooth="yes"/>
      <point x="118" y="85"/>
      <point x="133" y="37"/>
      <point x="159" y="6"/>
      <point x="196" y="-8"/>
    </contour>
    <contour>
      <point x="-33" y="653" type="qcurve" smooth="yes"/>
      <point x="-33" y="627"/>
      <point x="2" y="591"/>
      <point x="28" y="591" type="qcurve" smooth="yes"/>
      <point x="55" y="591"/>
      <point x="89" y="627"/>
      <point x="89" y="653" type="qcurve" smooth="yes"/>
      <point x="89" y="680"/>
      <point x="55" y="713"/>
      <point x="28" y="713" type="qcurve" smooth="yes"/>
      <point x="2" y="713"/>
      <point x="-33" y="680"/>
    </contour>
    <contour>
      <point x="240" y="653" type="qcurve" smooth="yes"/>
      <point x="240" y="627"/>
      <point x="276" y="591"/>
      <point x="301" y="591" type="qcurve" smooth="yes"/>
      <point x="328" y="591"/>
      <point x="362" y="627"/>
      <point x="362" y="653" type="qcurve" smooth="yes"/>
      <point x="362" y="680"/>
      <point x="328" y="713"/>
      <point x="301" y="713" type="qcurve" smooth="yes"/>
      <point x="276" y="713"/>
      <point x="240" y="680"/>
    </contour>
    <contour>
      <point x="153" y="817" type="line"/>
      <point x="128" y="597" type="line"/>
      <point x="182" y="589" type="line"/>
      <point x="221" y="803" type="line"/>
    </contour>
  </outline>
</glyph>
<glyph name="Delta" format="2">
  <advance width="633"/>
  <unicode hex="0394"/>
  <outline>
    <contour>
      <point x="16" y="0" type="line"/>
      <point x="617" y="0" type="line"/>
      <point x="617" y="20" type="line"/>
      <point x="370" y="708" type="line"/>
      <point x="263" y="708" type="line"/>
      <point x="16" y="20" type="line"/>
    </contour>
    <contour>
      <point x="120" y="75" type="line"/>
      <point x="241" y="402" type="line"/>
      <point x="314" y="624" type="line"/>
      <point x="318" y="624" type="line"/>
      <point x="394" y="402" type="line"/>
      <point x="511" y="75" type="line"/>
    </contour>
  </outline>
</glyph>
<glyph name="Theta" format="2">
  <advance width="748"/>
  <unicode hex="0398"/>
  <anchor x="395" y="0" name="bottom"/>
  <anchor x="395" y="353" name="center"/>
  <anchor x="551" y="680" name="horn"/>
  <anchor x="396" y="0" name="ogonek"/>
  <anchor x="395" y="708" name="top"/>
  <anchor x="25" y="708" name="topleft"/>
  <anchor x="765" y="708" name="topright"/>
  <outline>
    <component base="O" xScale="0.983271" yScale="0.983271"/>
    <contour>
      <point x="192" y="314" type="line"/>
      <point x="548" y="314" type="line"/>
      <point x="548" y="395" type="line"/>
      <point x="192" y="395" type="line"/>
    </contour>
  </outline>
</glyph>
<glyph name="Lambda" format="2">
  <advance width="662"/>
  <unicode hex="039B"/>
  <outline>
    <contour>
      <point x="21" y="0" type="line"/>
      <point x="112" y="0" type="line"/>
      <point x="250" y="393" type="line"/>
      <point x="329" y="622" type="line"/>
      <point x="333" y="622" type="line"/>
      <point x="412" y="392" type="line"/>
      <point x="550" y="0" type="line"/>
      <point x="641" y="0" type="line"/>
      <point x="388" y="708" type="line"/>
      <point x="275" y="708" type="line"/>
    </contour>
  </outline>
</glyph>
<glyph name="Xi" format="2">
  <advance width="630"/>
  <unicode hex="039E"/>
  <outline>
    <contour>
      <point x="69" y="0" type="line"/>
      <point x="559" y="0" type="line"/>
      <point x="559" y="75" type="line"/>
      <point x="69" y="75" type="line"/>
    </contour>
    <contour>
      <point x="139" y="320" type="line"/>
      <point x="489" y="320" type="line"/>
      <point x="489" y="394" type="line"/>
      <point x="139" y="394" type="line"/>
    </contour>
    <contour>
      <point x="69" y="634" type="line"/>
      <point x="559" y="634" type="line"/>
      <point x="559" y="710" type="line"/>
      <point x="69" y="710" type="line"/>
    </contour>
  </outline>
</glyph>
<glyph name="Pi" format="2">
  <advance width="642"/>
  <unicode hex="03A0"/>
  <outline>
    <contour>
      <point x="82" y="0" type="line"/>
      <point x="172" y="0" type="line"/>
      <point x="172" y="634" type="line"/>
      <point x="471" y="634" type="line"/>
      <point x="471" y="0" type="line"/>
      <point x="560" y="0" type="line"/>
      <point x="560" y="710" type="line"/>
      <point x="82" y="710" type="line"/>
    </contour>
  </outline>
</glyph>
<glyph name="Sigma" format="2">
  <advance width="551"/>
  <unicode hex="03A3"/>
  <outline>
    <contour>
      <point x="50" y="0" type="line"/>
      <point x="508" y="0" type="line"/>
      <point x="508" y="75" type="line"/>
      <point x="171" y="75" type="line"/>
      <point x="389" y="362" type="line"/>
      <point x="174" y="634" type="line"/>
      <point x="482" y="634" type="line"/>
      <point x="482" y="710" type="line"/>
      <point x="54" y="710" type="line"/>
      <point x="54" y="657" type="line"/>
      <point x="293" y="361" type="line"/>
      <point x="50" y="52" type="line"/>
    </contour>
  </outline>
</glyph>
<glyph name="Upsilon" format="2">
  <advance width="621"/>
  <unicode hex="03A5"/>
  <outline>
    <contour>
      <point x="266" y="0" type="line"/>
      <point x="354" y="0" type="line"/>
      <point x="354" y="239" type="line"/>
      <point x="355" y="307"/>
      <point x="393" y="421"/>
      <point x="455" y="523"/>
      <point x="536" y="614"/>
      <point x="580" y="659" type="qcurve"/>
      <point x="516" y="709" type="line"/>
      <point x="471" y="664"/>
      <point x="405" y="593"/>
      <point x="357" y="525"/>
      <point x="324" y="453"/>
      <point x="312" y="407" type="qcurve"/>
      <point x="307" y="407" type="line"/>
      <point x="294" y="453"/>
      <point x="261" y="526"/>
      <point x="214" y="594"/>
      <point x="149" y="665"/>
      <point x="104" y="709" type="qcurve"/>
      <point x="41" y="659" type="line"/>
      <point x="82" y="618"/>
      <point x="162" y="530"/>
      <point x="227" y="428"/>
      <point x="266" y="310"/>
      <point x="266" y="239" type="qcurve" smooth="yes"/>
    </contour>
  </outline>
</glyph>
<glyph name="Phi" format="2">
  <advance width="720"/>
  <unicode hex="03A6"/>
  <outline>
    <contour>
      <point x="344" y="152" type="line"/>
      <point x="221" y="152"/>
      <point x="129" y="238"/>
      <point x="129" y="356" type="curve" smooth="yes"/>
      <point x="129" y="475"/>
      <point x="221" y="559"/>
      <point x="344" y="559" type="curve"/>
      <point x="344" y="635" type="line"/>
      <point x="170" y="635"/>
      <point x="47" y="519"/>
      <point x="47" y="356" type="curve" smooth="yes"/>
      <point x="47" y="194"/>
      <point x="170" y="77"/>
      <point x="344" y="77" type="curve"/>
    </contour>
    <contour>
      <point x="403" y="-29" type="line"/>
      <point x="403" y="739" type="line"/>
      <point x="319" y="739" type="line"/>
      <point x="319" y="-29" type="line"/>
    </contour>
    <contour>
      <point x="381" y="77" type="line"/>
      <point x="556" y="77"/>
      <point x="677" y="194"/>
      <point x="677" y="356" type="curve" smooth="yes"/>
      <point x="677" y="519"/>
      <point x="556" y="635"/>
      <point x="381" y="635" type="curve"/>
      <point x="381" y="559" type="line"/>
      <point x="505" y="559"/>
      <point x="593" y="475"/>
      <point x="592" y="356" type="curve"/>
      <point x="593" y="238"/>
      <point x="505" y="152"/>
      <point x="381" y="152" type="curve"/>
    </contour>
  </outline>
</glyph>
<glyph name="Psi" format="2">
  <advance width="742"/>
  <unicode hex="03A8"/>
  <outline>
    <contour>
      <point x="329" y="0" type="line"/>
      <point x="414" y="0" type="line"/>
      <point x="414" y="708" type="line"/>
      <point x="329" y="708" type="line"/>
    </contour>
    <contour>
      <point x="79" y="432" type="line" smooth="yes"/>
      <point x="79" y="281"/>
      <point x="164" y="180"/>
      <point x="346" y="179" type="curve"/>
      <point x="344" y="250" type="line"/>
      <point x="216" y="250"/>
      <point x="160" y="322"/>
      <point x="159" y="428" type="curve"/>
      <point x="160" y="462"/>
      <point x="163" y="527"/>
      <point x="162" y="588" type="curve"/>
      <point x="163" y="635"/>
      <point x="162" y="678"/>
      <point x="152" y="708" type="curve"/>
      <point x="67" y="708" type="line"/>
      <point x="80" y="650"/>
      <point x="79" y="607"/>
      <point x="79" y="564" type="curve" smooth="yes"/>
    </contour>
    <contour>
      <point x="662" y="564" type="line"/>
      <point x="662" y="610"/>
      <point x="662" y="650"/>
      <point x="673" y="708" type="curve"/>
      <point x="589" y="708" type="line"/>
      <point x="579" y="678"/>
      <point x="579" y="634"/>
      <point x="579" y="588" type="curve" smooth="yes"/>
      <point x="579" y="527"/>
      <point x="581" y="462"/>
      <point x="581" y="428" type="curve" smooth="yes"/>
      <point x="581" y="323"/>
      <point x="526" y="250"/>
      <point x="400" y="250" type="curve"/>
      <point x="397" y="179" type="line"/>
      <point x="580" y="180"/>
      <point x="662" y="283"/>
      <point x="662" y="432" type="curve"/>
    </contour>
  </outline>
</glyph>
<glyph name="Omega" format="2">
  <advance width="707"/>
  <unicode hex="03A9"/>
  <anchor x="356" y="0" name="bottom"/>
  <anchor x="32" y="627" name="topleft"/>
  <outline>
    <contour>
      <point x="50" y="0" type="line"/>
      <point x="311" y="0" type="line"/>
      <point x="311" y="181" type="line"/>
      <point x="206" y="212"/>
      <point x="148" y="298"/>
      <point x="148" y="406" type="curve" smooth="yes"/>
      <point x="148" y="530"/>
      <point x="231" y="628"/>
      <point x="352" y="627" type="curve" smooth="yes"/>
      <point x="474" y="628"/>
      <point x="561" y="529"/>
      <point x="561" y="410" type="curve" smooth="yes"/>
      <point x="561" y="296"/>
      <point x="489" y="206"/>
      <point x="394" y="181" type="curve"/>
      <point x="394" y="0" type="line"/>
      <point x="657" y="0" type="line"/>
      <point x="657" y="85" type="line"/>
      <point x="425" y="85" type="line"/>
      <point x="479" y="38" type="line"/>
      <point x="479" y="171" type="line"/>
      <point x="442" y="112" type="line"/>
      <point x="573" y="148"/>
      <point x="659" y="268"/>
      <point x="659" y="411" type="curve" smooth="yes"/>
      <point x="659" y="589"/>
      <point x="523" y="716"/>
      <point x="352" y="716" type="curve" smooth="yes"/>
      <point x="180" y="716"/>
      <point x="49" y="591"/>
      <point x="49" y="411" type="curve" smooth="yes"/>
      <point x="49" y="268"/>
      <point x="134" y="148"/>
      <point x="269" y="110" type="curve"/>
      <point x="228" y="171" type="line"/>
      <point x="228" y="38" type="line"/>
      <point x="284" y="85" type="line"/>
      <point x="52" y="85" type="line"/>
    </contour>
  </outline>
</glyph>
<glyph name="Iotadieresis" format="2">
  <advance width="319"/>
  <unicode hex="03AA"/>
  <outline>
    <contour>
      <point x="172" y="0" type="line"/>
      <point x="172" y="698" type="line"/>
      <point x="84" y="698" type="line"/>
      <point x="84" y="0" type="line"/>
    </contour>
    <contour>
      <point x="11" y="848" type="qcurve" smooth="yes"/>
      <point x="11" y="825"/>
      <point x="38" y="793"/>
      <point x="58" y="793" type="qcurve" smooth="yes"/>
      <point x="78" y="793"/>
      <point x="106" y="825"/>
      <point x="106" y="848" type="qcurve" smooth="yes"/>
      <point x="106" y="871"/>
      <point x="78" y="903"/>
      <point x="58" y="903" type="qcurve" smooth="yes"/>
      <point x="38" y="903"/>
      <point x="11" y="871"/>
    </contour>
    <contour>
      <point x="148" y="848" type="qcurve" smooth="yes"/>
      <point x="148" y="825"/>
      <point x="177" y="793"/>
      <point x="197" y="793" type="qcurve" smooth="yes"/>
      <point x="217" y="793"/>
      <point x="244" y="825"/>
      <point x="244" y="848" type="qcurve" smooth="yes"/>
      <point x="244" y="871"/>
      <point x="217" y="903"/>
      <point x="197" y="903" type="qcurve" smooth="yes"/>
      <point x="177" y="903"/>
      <point x="148" y="871"/>
    </contour>
  </outline>
</glyph>
<glyph name="upsilondieresistonos" format="2">
  <advance width="561"/>
  <unicode hex="03B0"/>
  <outline>
    <contour>
      <point x="76" y="176" type="qcurve" smooth="yes"/>
      <point x="76" y="127"/>
      <point x="110" y="57"/>
      <point x="166" y="12"/>
      <point x="241" y="-8"/>
      <point x="281" y="-8" type="qcurve" smooth="yes"/>
      <point x="332" y="-8"/>
      <point x="413" y="25"/>
      <point x="471" y="95"/>
      <point x="502" y="203"/>
      <point x="502" y="277" type="qcurve" smooth="yes"/>
      <point x="502" y="302"/>
      <point x="501" y="364"/>
      <point x="496" y="430"/>
      <point x="488" y="495"/>
      <point x="482" y="522" type="qcurve"/>
      <point x="398" y="522" type="line"/>
      <point x="405" y="487"/>
      <point x="414" y="419"/>
      <point x="419" y="356"/>
      <point x="420" y="300"/>
      <point x="420" y="279" type="qcurve"/>
      <point x="421" y="169"/>
      <point x="349" y="73"/>
      <point x="281" y="72" type="qcurve"/>
      <point x="256" y="72"/>
      <point x="211" y="85"/>
      <point x="178" y="112"/>
      <point x="158" y="155"/>
      <point x="157" y="186" type="qcurve"/>
      <point x="158" y="197"/>
      <point x="160" y="230"/>
      <point x="162" y="270"/>
      <point x="164" y="314"/>
      <point x="164" y="336" type="qcurve" smooth="yes"/>
      <point x="164" y="367"/>
      <point x="161" y="417"/>
      <point x="154" y="461"/>
      <point x="145" y="501"/>
      <point x="139" y="522" type="qcurve"/>
      <point x="58" y="522" type="line"/>
      <point x="69" y="481"/>
      <point x="82" y="391"/>
      <point x="82" y="334" type="qcurve" smooth="yes"/>
      <point x="82" y="312"/>
      <point x="80" y="266"/>
      <point x="78" y="224"/>
      <point x="76" y="188"/>
    </contour>
    <contour>
      <point x="61" y="650" type="qcurve" smooth="yes"/>
      <point x="61" y="624"/>
      <point x="97" y="588"/>
      <point x="124" y="588" type="qcurve" smooth="yes"/>
      <point x="151" y="588"/>
      <point x="185" y="624"/>
      <point x="185" y="650" type="qcurve" smooth="yes"/>
      <point x="185" y="677"/>
      <point x="151" y="711"/>
      <point x="124" y="711" type="qcurve" smooth="yes"/>
      <point x="97" y="711"/>
      <point x="61" y="677"/>
    </contour>
    <contour>
      <point x="338" y="650" type="qcurve" smooth="yes"/>
      <point x="338" y="624"/>
      <point x="375" y="588"/>
      <point x="401" y="588" type="qcurve" smooth="yes"/>
      <point x="428" y="588"/>
      <point x="462" y="624"/>
      <point x="462" y="650" type="qcurve" smooth="yes"/>
      <point x="462" y="677"/>
      <point x="428" y="711"/>
      <point x="401" y="711" type="qcurve" smooth="yes"/>
      <point x="375" y="711"/>
      <point x="338" y="677"/>
    </contour>
    <contour>
      <point x="251" y="816" type="line"/>
      <point x="225" y="594" type="line"/>
      <point x="280" y="586" type="line"/>
      <point x="319" y="802" type="line"/>
    </contour>
  </outline>
</glyph>
<glyph name="alpha" format="2">
  <advance width="619"/>
  <unicode hex="03B1"/>
  <anchor x="267" y="0" name="bottom"/>
  <anchor x="281" y="520" name="top"/>
  <outline>
    <contour>
      <point x="420" y="248" type="line" smooth="yes"/>
      <point x="401" y="186"/>
      <point x="375" y="79"/>
      <point x="269" y="79" type="curve" smooth="yes"/>
      <point x="192" y="79"/>
      <point x="125" y="133"/>
      <point x="126" y="256" type="curve"/>
      <point x="125" y="387"/>
      <point x="197" y="443"/>
      <point x="259" y="443" type="curve" smooth="yes"/>
      <point x="359" y="443"/>
      <point x="400" y="300"/>
      <point x="417" y="201" type="curve"/>
      <point x="464" y="284" type="line"/>
      <point x="445" y="407"/>
      <point x="379" y="528"/>
      <point x="253" y="528" type="curve" smooth="yes"/>
      <point x="130" y="528"/>
      <point x="42" y="413"/>
      <point x="43" y="258" type="curve"/>
      <point x="42" y="103"/>
      <point x="135" y="-8"/>
      <point x="258" y="-8" type="curve" smooth="yes"/>
      <point x="365" y="-8"/>
      <point x="445" y="73"/>
      <point x="479" y="184" type="curve"/>
      <point x="587" y="520" type="line"/>
      <point x="501" y="520" type="line"/>
    </contour>
    <contour>
      <point x="594" y="71" type="line"/>
      <point x="570" y="84" type="line"/>
      <point x="544" y="97"/>
      <point x="508" y="132"/>
      <point x="481" y="203" type="curve"/>
      <point x="433" y="141" type="line"/>
      <point x="443" y="66"/>
      <point x="482" y="25"/>
      <point x="529" y="1" type="curve"/>
      <point x="549" y="-8" type="line"/>
    </contour>
  </outline>
</glyph>
<glyph name="beta" format="2">
  <advance width="657"/>
  <unicode hex="03B2"/>
  <outline>
    <contour>
      <point x="156" y="58" type="line"/>
      <point x="212" y="10"/>
      <point x="293" y="-8"/>
      <point x="356" y="-8" type="curve" smooth="yes"/>
      <point x="494" y="-8"/>
      <point x="597" y="99"/>
      <point x="596" y="220" type="curve"/>
      <point x="597" y="320"/>
      <point x="531" y="405"/>
      <point x="411" y="419" type="curve"/>
      <point x="411" y="423" type="line"/>
      <point x="479" y="462"/>
      <point x="519" y="526"/>
      <point x="519" y="598" type="curve" smooth="yes"/>
      <point x="519" y="689"/>
      <point x="441" y="768"/>
      <point x="317" y="766" type="curve"/>
      <point x="160" y="768"/>
      <point x="87" y="642"/>
      <point x="87" y="475" type="curve" smooth="yes"/>
      <point x="87" y="-207" type="line"/>
      <point x="174" y="-207" type="line"/>
      <point x="171" y="-97"/>
      <point x="167" y="-3"/>
      <point x="163" y="61" type="curve"/>
      <point x="164" y="122" type="line"/>
      <point x="168" y="227"/>
      <point x="168" y="302"/>
      <point x="168" y="474" type="curve" smooth="yes"/>
      <point x="168" y="603"/>
      <point x="211" y="690"/>
      <point x="314" y="690" type="curve"/>
      <point x="395" y="690"/>
      <point x="437" y="637"/>
      <point x="437" y="581" type="curve" smooth="yes"/>
      <point x="437" y="517"/>
      <point x="379" y="453"/>
      <point x="271" y="432" type="curve"/>
      <point x="271" y="370" type="line"/>
      <point x="276" y="372"/>
      <point x="316" y="376"/>
      <point x="341" y="374" type="curve"/>
      <point x="448" y="376"/>
      <point x="520" y="310"/>
      <point x="520" y="225" type="curve" smooth="yes"/>
      <point x="520" y="138"/>
      <point x="442" y="68"/>
      <point x="346" y="67" type="curve"/>
      <point x="294" y="68"/>
      <point x="215" y="88"/>
      <point x="156" y="143" type="curve"/>
    </contour>
  </outline>
</glyph>
<glyph name="gamma" format="2">
  <advance width="559"/>
  <unicode hex="03B3"/>
  <outline>
    <contour>
      <point x="280" y="-207" type="line"/>
      <point x="309" y="92"/>
      <point x="315" y="383"/>
      <point x="102" y="537" type="curve"/>
      <point x="53" y="469" type="line"/>
      <point x="228" y="347"/>
      <point x="225" y="47"/>
      <point x="198" y="-207" type="curve"/>
    </contour>
    <contour>
      <point x="274" y="0" type="line"/>
      <point x="428" y="203"/>
      <point x="489" y="343"/>
      <point x="529" y="522" type="curve"/>
      <point x="440" y="522" type="line"/>
      <point x="418" y="374"/>
      <point x="341" y="220"/>
      <point x="261" y="109" type="curve"/>
    </contour>
  </outline>
</glyph>
<glyph name="delta" format="2">
  <advance width="611"/>
  <unicode hex="03B4"/>
  <outline>
    <contour>
      <point x="312" y="-8" type="qcurve" smooth="yes"/>
      <point x="366" y="-8"/>
      <point x="457" y="31"/>
      <point x="524" y="100"/>
      <point x="562" y="195"/>
      <point x="562" y="252" type="qcurve" smooth="yes"/>
      <point x="562" y="310"/>
      <point x="525" y="398"/>
      <point x="470" y="464"/>
      <point x="406" y="511"/>
      <point x="378" y="529" type="qcurve"/>
      <point x="353" y="543"/>
      <point x="305" y="570"/>
      <point x="266" y="598"/>
      <point x="242" y="627"/>
      <point x="242" y="642" type="qcurve" smooth="yes"/>
      <point x="242" y="659"/>
      <point x="275" y="678"/>
      <point x="306" y="678" type="qcurve" smooth="yes"/>
      <point x="331" y="678"/>
      <point x="391" y="665"/>
      <point x="453" y="642"/>
      <point x="512" y="610"/>
      <point x="535" y="591" type="qcurve"/>
      <point x="577" y="664" type="line"/>
      <point x="557" y="681"/>
      <point x="495" y="717"/>
      <point x="421" y="745"/>
      <point x="340" y="763"/>
      <point x="299" y="763" type="qcurve"/>
      <point x="227" y="764"/>
      <point x="144" y="703"/>
      <point x="144" y="651" type="qcurve" smooth="yes"/>
      <point x="144" y="618"/>
      <point x="176" y="568"/>
      <point x="225" y="526"/>
      <point x="286" y="491"/>
      <point x="314" y="474" type="qcurve" smooth="yes"/>
      <point x="343" y="457"/>
      <point x="402" y="415"/>
      <point x="450" y="362"/>
      <point x="479" y="294"/>
      <point x="479" y="252" type="qcurve" smooth="yes"/>
      <point x="479" y="213"/>
      <point x="454" y="150"/>
      <point x="409" y="104"/>
      <point x="347" y="79"/>
      <point x="312" y="79" type="qcurve" smooth="yes"/>
      <point x="277" y="79"/>
      <point x="214" y="105"/>
      <point x="166" y="151"/>
      <point x="138" y="214"/>
      <point x="138" y="252" type="qcurve" smooth="yes"/>
      <point x="138" y="290"/>
      <point x="165" y="355"/>
      <point x="213" y="404"/>
      <point x="277" y="432"/>
      <point x="314" y="432" type="qcurve" smooth="yes"/>
      <point x="345" y="432"/>
      <point x="409" y="413"/>
      <point x="433" y="393" type="qcurve"/>
      <point x="387" y="476" type="line"/>
      <point x="368" y="488"/>
      <point x="313" y="500"/>
      <point x="287" y="501" type="qcurve" smooth="yes"/>
      <point x="238" y="502"/>
      <point x="153" y="464"/>
      <point x="92" y="397"/>
      <point x="57" y="306"/>
      <point x="57" y="253" type="qcurve" smooth="yes"/>
      <point x="57" y="199"/>
      <point x="95" y="104"/>
      <point x="162" y="33"/>
      <point x="256" y="-8"/>
    </contour>
  </outline>
</glyph>
<glyph name="epsilon" format="2">
  <advance width="475"/>
  <unicode hex="03B5"/>
  <anchor x="284" y="-24" name="bottom"/>
  <anchor x="274" y="563" name="top"/>
  <outline>
    <contour>
      <point x="419" y="99" type="line"/>
      <point x="361" y="83"/>
      <point x="321" y="77"/>
      <point x="280" y="77" type="curve" smooth="yes"/>
      <point x="191" y="77"/>
      <point x="142" y="107"/>
      <point x="142" y="158" type="curve" smooth="yes"/>
      <point x="142" y="212"/>
      <point x="204" y="225"/>
      <point x="281" y="225" type="curve"/>
      <point x="329" y="225" type="line"/>
      <point x="329" y="310" type="line"/>
      <point x="277" y="310" type="line" smooth="yes"/>
      <point x="210" y="310"/>
      <point x="160" y="333"/>
      <point x="160" y="376" type="curve" smooth="yes"/>
      <point x="160" y="412"/>
      <point x="190" y="441"/>
      <point x="279" y="441" type="curve" smooth="yes"/>
      <point x="324" y="441"/>
      <point x="376" y="433"/>
      <point x="405" y="421" type="curve"/>
      <point x="432" y="504" type="line"/>
      <point x="385" y="527"/>
      <point x="328" y="528"/>
      <point x="283" y="528" type="curve" smooth="yes"/>
      <point x="144" y="528"/>
      <point x="75" y="467"/>
      <point x="75" y="391" type="curve" smooth="yes"/>
      <point x="75" y="336"/>
      <point x="115" y="288"/>
      <point x="147" y="276" type="curve"/>
      <point x="147" y="274" type="line"/>
      <point x="105" y="257"/>
      <point x="54" y="208"/>
      <point x="55" y="141" type="curve"/>
      <point x="54" y="47"/>
      <point x="154" y="-8"/>
      <point x="276" y="-8" type="curve" smooth="yes"/>
      <point x="335" y="-8"/>
      <point x="405" y="2"/>
      <point x="438" y="12" type="curve"/>
    </contour>
  </outline>
</glyph>
<glyph name="zeta" format="2">
  <advance width="492"/>
  <unicode hex="03B6"/>
  <outline>
    <contour>
      <point x="332" y="-179" type="qcurve"/>
      <point x="368" y="-179"/>
      <point x="430" y="-157"/>
      <point x="477" y="-118"/>
      <point x="504" y="-64"/>
      <point x="504" y="-32" type="qcurve" smooth="yes"/>
      <point x="504" y="-7"/>
      <point x="486" y="35"/>
      <point x="454" y="66"/>
      <point x="409" y="83"/>
      <point x="382" y="83" type="qcurve" smooth="yes"/>
      <point x="366" y="83"/>
      <point x="303" y="79"/>
      <point x="276" y="79" type="qcurve" smooth="yes"/>
      <point x="257" y="79"/>
      <point x="212" y="85"/>
      <point x="174" y="109"/>
      <point x="149" y="156"/>
      <point x="150" y="196" type="qcurve" smooth="yes"/>
      <point x="151" y="235"/>
      <point x="176" y="319"/>
      <point x="219" y="405"/>
      <point x="277" y="490"/>
      <point x="345" y="567"/>
      <point x="418" y="633"/>
      <point x="455" y="658" type="qcurve"/>
      <point x="453" y="721" type="line"/>
      <point x="285" y="721" type="line" smooth="yes"/>
      <point x="272" y="721"/>
      <point x="249" y="724"/>
      <point x="231" y="731"/>
      <point x="221" y="744"/>
      <point x="221" y="753" type="qcurve" smooth="yes"/>
      <point x="221" y="761"/>
      <point x="227" y="784"/>
      <point x="233" y="792" type="qcurve"/>
      <point x="157" y="822" type="line"/>
      <point x="146" y="803"/>
      <point x="134" y="771"/>
      <point x="134" y="753" type="qcurve" smooth="yes"/>
      <point x="134" y="705"/>
      <point x="207" y="644"/>
      <point x="274" y="645" type="qcurve"/>
      <point x="367" y="645" type="line"/>
      <point x="344" y="683" type="line"/>
      <point x="298" y="648"/>
      <point x="197" y="540"/>
      <point x="115" y="409"/>
      <point x="61" y="262"/>
      <point x="61" y="187" type="qcurve" smooth="yes"/>
      <point x="61" y="126"/>
      <point x="97" y="49"/>
      <point x="155" y="7"/>
      <point x="227" y="-8"/>
      <point x="263" y="-8" type="qcurve" smooth="yes"/>
      <point x="281" y="-8"/>
      <point x="312" y="-6"/>
      <point x="339" y="-4"/>
      <point x="361" y="-2"/>
      <point x="369" y="-2" type="qcurve" smooth="yes"/>
      <point x="396" y="-2"/>
      <point x="416" y="-28"/>
      <point x="417" y="-37" type="qcurve"/>
      <point x="417" y="-49"/>
      <point x="401" y="-68"/>
      <point x="374" y="-83"/>
      <point x="337" y="-91"/>
      <point x="314" y="-91" type="qcurve" smooth="yes"/>
      <point x="296" y="-91"/>
      <point x="253" y="-86"/>
      <point x="238" y="-82" type="qcurve"/>
      <point x="238" y="-169" type="line"/>
      <point x="264" y="-174"/>
      <point x="315" y="-180"/>
    </contour>
  </outline>
</glyph>
<glyph name="eta" format="2">
  <advance width="558"/>
  <unicode hex="03B7"/>
  <anchor x="122" y="0" name="bottom"/>
  <anchor x="302" y="520" name="top"/>
  <outline>
    <contour>
      <point x="147" y="0" type="line"/>
      <point x="159" y="125"/>
      <point x="170" y="233"/>
      <point x="169" y="339" type="curve"/>
      <point x="170" y="432"/>
      <point x="148" y="492"/>
      <point x="72" y="528" type="curve"/>
      <point x="24" y="451" type="line"/>
      <point x="65" y="430"/>
      <point x="80" y="398"/>
      <point x="80" y="291" type="curve"/>
      <point x="80" y="208"/>
      <point x="71" y="101"/>
      <point x="59" y="0" type="curve"/>
    </contour>
    <contour>
      <point x="451" y="-206" type="line"/>
      <point x="477" y="-90"/>
      <point x="502" y="120"/>
      <point x="503" y="258" type="curve"/>
      <point x="502" y="448"/>
      <point x="455" y="528"/>
      <point x="348" y="528" type="curve" smooth="yes"/>
      <point x="255" y="528"/>
      <point x="159" y="457"/>
      <point x="144" y="367" type="curve"/>
      <point x="165" y="202" type="line"/>
      <point x="171" y="329"/>
      <point x="231" y="436"/>
      <point x="316" y="436" type="curve" smooth="yes"/>
      <point x="384" y="436"/>
      <point x="414" y="376"/>
      <point x="415" y="231" type="curve"/>
      <point x="414" y="127"/>
      <point x="399" y="-25"/>
      <point x="362" y="-206" type="curve"/>
    </contour>
  </outline>
</glyph>
<glyph name="theta" format="2">
  <advance width="648"/>
  <unicode hex="03B8"/>
  <outline>
    <contour>
      <point x="326" y="-8" type="curve" smooth="yes"/>
      <point x="479" y="-8"/>
      <point x="580" y="154"/>
      <point x="579" y="381" type="curve"/>
      <point x="580" y="614"/>
      <point x="476" y="768"/>
      <point x="326" y="766" type="curve"/>
      <point x="179" y="768"/>
      <point x="69" y="612"/>
      <point x="69" y="381" type="curve" smooth="yes"/>
      <point x="69" y="140"/>
      <point x="176" y="-8"/>
    </contour>
    <contour>
      <point x="316" y="69" type="curve"/>
      <point x="210" y="70"/>
      <point x="144" y="213"/>
      <point x="146" y="374" type="curve"/>
      <point x="150" y="561"/>
      <point x="236" y="686"/>
      <point x="334" y="686" type="curve" smooth="yes"/>
      <point x="439" y="686"/>
      <point x="505" y="555"/>
      <point x="502" y="386" type="curve"/>
      <point x="500" y="204"/>
      <point x="418" y="70"/>
    </contour>
    <contour>
      <point x="533" y="350" type="line"/>
      <point x="533" y="412" type="line"/>
      <point x="117" y="412" type="line"/>
      <point x="117" y="350" type="line"/>
    </contour>
  </outline>
</glyph>
<glyph name="iota" format="2">
  <advance width="292"/>
  <unicode hex="03B9"/>
  <outline>
    <contour>
      <point x="180" y="-8" type="qcurve" smooth="yes"/>
      <point x="195" y="-8"/>
      <point x="232" y="-3"/>
      <point x="249" y="5" type="qcurve"/>
      <point x="233" y="83" type="line"/>
      <point x="223" y="79"/>
      <point x="205" y="74"/>
      <point x="196" y="72" type="qcurve"/>
      <point x="177" y="74"/>
      <point x="160" y="108"/>
      <point x="159" y="161" type="qcurve"/>
      <point x="159" y="185"/>
      <point x="162" y="270"/>
      <point x="166" y="372"/>
      <point x="171" y="478"/>
      <point x="172" y="522" type="qcurve"/>
      <point x="84" y="522" type="line"/>
      <point x="83" y="467"/>
      <point x="81" y="363"/>
      <point x="79" y="263"/>
      <point x="79" y="167"/>
      <point x="79" y="120" type="qcurve" smooth="yes"/>
      <point x="79" y="86"/>
      <point x="94" y="37"/>
      <point x="120" y="6"/>
      <point x="158" y="-8"/>
    </contour>
  </outline>
</glyph>
<glyph name="kappa" format="2">
  <advance width="579"/>
  <unicode hex="03BA"/>
  <outline>
    <contour>
      <point x="161" y="0" type="line"/>
      <point x="226" y="235"/>
      <point x="397" y="420"/>
      <point x="526" y="436" type="curve"/>
      <point x="526" y="528" type="line"/>
      <point x="417" y="512"/>
      <point x="242" y="415"/>
      <point x="151" y="163" type="curve"/>
      <point x="166" y="165" type="line"/>
      <point x="174" y="241"/>
      <point x="178" y="299"/>
      <point x="177" y="348" type="curve"/>
      <point x="178" y="453"/>
      <point x="142" y="506"/>
      <point x="90" y="528" type="curve"/>
      <point x="47" y="453" type="line"/>
      <point x="95" y="432"/>
      <point x="105" y="376"/>
      <point x="104" y="293" type="curve" smooth="yes"/>
      <point x="105" y="202"/>
      <point x="89" y="101"/>
      <point x="72" y="0" type="curve"/>
    </contour>
    <contour>
      <point x="528" y="64" type="line"/>
      <point x="426" y="112"/>
      <point x="346" y="229"/>
      <point x="325" y="331" type="curve"/>
      <point x="267" y="275" type="line"/>
      <point x="284" y="167"/>
      <point x="383" y="35"/>
      <point x="485" y="-8" type="curve"/>
    </contour>
  </outline>
</glyph>
<glyph name="lambda" format="2">
  <advance width="616"/>
  <unicode hex="03BB"/>
  <outline>
    <contour>
      <point x="519" y="-8" type="curve" smooth="yes"/>
      <point x="542" y="-8"/>
      <point x="574" y="-1"/>
      <point x="588" y="6" type="curve"/>
      <point x="569" y="84" type="line"/>
      <point x="556" y="79"/>
      <point x="544" y="75"/>
      <point x="535" y="74" type="curve"/>
      <point x="506" y="75"/>
      <point x="480" y="109"/>
      <point x="430" y="261" type="curve" smooth="yes"/>
      <point x="342" y="535" type="line"/>
      <point x="298" y="678"/>
      <point x="248" y="768"/>
      <point x="145" y="766" type="curve"/>
      <point x="103" y="768"/>
      <point x="71" y="756"/>
      <point x="50" y="746" type="curve"/>
      <point x="72" y="672" type="line"/>
      <point x="87" y="680"/>
      <point x="107" y="688"/>
      <point x="136" y="688" type="curve" smooth="yes"/>
      <point x="190" y="688"/>
      <point x="222" y="633"/>
      <point x="249" y="543" type="curve"/>
      <point x="270" y="483" type="line"/>
      <point x="273" y="558" type="line"/>
      <point x="17" y="0" type="line"/>
      <point x="113" y="0" type="line"/>
      <point x="294" y="414" type="line"/>
      <point x="298" y="414" type="line"/>
      <point x="364" y="207" type="line"/>
      <point x="411" y="55"/>
      <point x="446" y="-8"/>
    </contour>
  </outline>
</glyph>
<glyph name="mu" format="2">
  <advance width="608"/>
  <unicode hex="03BC"/>
  <anchor x="321" y="0" name="bottom"/>
  <anchor x="466" y="522" name="horn"/>
  <anchor x="464" y="0" name="ogonek"/>
  <anchor x="301" y="522" name="top"/>
  <outline>
    <contour>
      <point x="177" y="-202" type="line"/>
      <point x="160" y="-113"/>
      <point x="159" y="-22"/>
      <point x="158" y="75" type="curve"/>
      <point x="138" y="67" type="line"/>
      <point x="161" y="18"/>
      <point x="211" y="-8"/>
      <point x="276" y="-8" type="curve" smooth="yes"/>
      <point x="370" y="-8"/>
      <point x="421" y="46"/>
      <point x="456" y="110" type="curve"/>
      <point x="436" y="192" type="line"/>
      <point x="408" y="136"/>
      <point x="359" y="75"/>
      <point x="274" y="74" type="curve"/>
      <point x="172" y="75"/>
      <point x="162" y="176"/>
      <point x="162" y="247" type="curve" smooth="yes"/>
      <point x="162" y="522" type="line"/>
      <point x="76" y="522" type="line"/>
      <point x="76" y="231" type="line" smooth="yes"/>
      <point x="76" y="94"/>
      <point x="75" y="-73"/>
      <point x="90" y="-211" type="curve"/>
    </contour>
    <contour>
      <point x="563" y="64" type="line"/>
      <point x="547" y="70" type="line"/>
      <point x="523" y="82"/>
      <point x="508" y="107"/>
      <point x="508" y="160" type="curve" smooth="yes"/>
      <point x="508" y="522" type="line"/>
      <point x="424" y="522" type="line"/>
      <point x="424" y="149" type="line"/>
      <point x="434" y="108" type="line"/>
      <point x="439" y="47"/>
      <point x="463" y="15"/>
      <point x="505" y="-3" type="curve"/>
      <point x="521" y="-8" type="line"/>
    </contour>
  </outline>
</glyph>
<glyph name="nu" format="2">
  <advance width="536"/>
  <unicode hex="03BD"/>
  <outline>
    <contour>
      <point x="308" y="0" type="line"/>
      <point x="355" y="81"/>
      <point x="422" y="216"/>
      <point x="469" y="339"/>
      <point x="499" y="457"/>
      <point x="508" y="522" type="qcurve"/>
      <point x="418" y="522" type="line"/>
      <point x="415" y="467"/>
      <point x="390" y="360"/>
      <point x="353" y="253"/>
      <point x="305" y="146"/>
      <point x="278" y="92" type="qcurve"/>
    </contour>
    <contour>
      <point x="308" y="0" type="line"/>
      <point x="289" y="96"/>
      <point x="245" y="252"/>
      <point x="195" y="379"/>
      <point x="139" y="481"/>
      <point x="109" y="522" type="qcurve"/>
      <point x="13" y="522" type="line"/>
      <point x="51" y="471"/>
      <point x="120" y="337"/>
      <point x="176" y="195"/>
      <point x="218" y="57"/>
      <point x="228" y="0" type="qcurve"/>
    </contour>
  </outline>
</glyph>
<glyph name="xi" format="2">
  <advance width="517"/>
  <unicode hex="03BE"/>
  <outline>
    <contour>
      <point x="333" y="-179" type="curve"/>
      <point x="428" y="-180"/>
      <point x="504" y="-116"/>
      <point x="504" y="-32" type="curve" smooth="yes"/>
      <point x="504" y="35"/>
      <point x="453" y="83"/>
      <point x="384" y="83" type="curve" smooth="yes"/>
      <point x="363" y="83"/>
      <point x="307" y="79"/>
      <point x="281" y="79" type="curve" smooth="yes"/>
      <point x="194" y="79"/>
      <point x="131" y="131"/>
      <point x="131" y="200" type="curve" smooth="yes"/>
      <point x="131" y="275"/>
      <point x="213" y="326"/>
      <point x="330" y="325" type="curve"/>
      <point x="366" y="325" type="line"/>
      <point x="366" y="415" type="line"/>
      <point x="334" y="415" type="line"/>
      <point x="229" y="414"/>
      <point x="162" y="461"/>
      <point x="164" y="525" type="curve" smooth="yes"/>
      <point x="165" y="589"/>
      <point x="232" y="632"/>
      <point x="338" y="630" type="curve"/>
      <point x="371" y="632"/>
      <point x="418" y="628"/>
      <point x="452" y="619" type="curve"/>
      <point x="459" y="721" type="line"/>
      <point x="272" y="721" type="line"/>
      <point x="238" y="720"/>
      <point x="209" y="728"/>
      <point x="209" y="753" type="curve" smooth="yes"/>
      <point x="209" y="763"/>
      <point x="213" y="781"/>
      <point x="221" y="792" type="curve"/>
      <point x="145" y="822" type="line"/>
      <point x="129" y="797"/>
      <point x="121" y="777"/>
      <point x="122" y="753" type="curve"/>
      <point x="121" y="690"/>
      <point x="173" y="651"/>
      <point x="261" y="652" type="curve"/>
      <point x="301" y="698" type="line"/>
      <point x="173" y="699"/>
      <point x="75" y="629"/>
      <point x="75" y="530" type="curve" smooth="yes"/>
      <point x="75" y="430"/>
      <point x="171" y="353"/>
      <point x="287" y="358" type="curve"/>
      <point x="287" y="391" type="line"/>
      <point x="152" y="392"/>
      <point x="41" y="313"/>
      <point x="42" y="193" type="curve"/>
      <point x="41" y="76"/>
      <point x="142" y="-8"/>
      <point x="274" y="-8" type="curve" smooth="yes"/>
      <point x="312" y="-8"/>
      <point x="348" y="-2"/>
      <point x="369" y="-2" type="curve" smooth="yes"/>
      <point x="405" y="-2"/>
      <point x="417" y="-25"/>
      <point x="417" y="-37" type="curve"/>
      <point x="417" y="-68"/>
      <point x="373" y="-91"/>
      <point x="315" y="-91" type="curve" smooth="yes"/>
      <point x="290" y="-91"/>
      <point x="259" y="-87"/>
      <point x="239" y="-82" type="curve"/>
      <point x="239" y="-169" type="line"/>
      <point x="272" y="-176"/>
      <point x="309" y="-180"/>
    </contour>
  </outline>
</glyph>
<glyph name="omicron" format="2">
  <advance width="622"/>
  <unicode hex="03BF"/>
  <anchor x="310" y="522" name="top"/>
  <outline>
    <contour>
      <point x="310" y="-8" type="curve" smooth="yes"/>
      <point x="465" y="-8"/>
      <point x="579" y="109"/>
      <point x="577" y="261" type="curve"/>
      <point x="579" y="416"/>
      <point x="465" y="531"/>
      <point x="310" y="531" type="curve" smooth="yes"/>
      <point x="156" y="531"/>
      <point x="44" y="416"/>
      <point x="43" y="261" type="curve"/>
      <point x="44" y="109"/>
      <point x="156" y="-8"/>
    </contour>
    <contour>
      <point x="310" y="70" type="curve"/>
      <point x="206" y="71"/>
      <point x="124" y="150"/>
      <point x="124" y="261" type="curve" smooth="yes"/>
      <point x="124" y="373"/>
      <point x="206" y="453"/>
      <point x="310" y="453" type="curve" smooth="yes"/>
      <point x="419" y="453"/>
      <point x="497" y="373"/>
      <point x="497" y="261" type="curve" smooth="yes"/>
      <point x="497" y="150"/>
      <point x="419" y="71"/>
    </contour>
  </outline>
</glyph>
<glyph name="pi" format="2">
  <advance width="654"/>
  <unicode hex="03C0"/>
  <anchor x="321" y="595" name="top"/>
  <outline>
    <contour>
      <point x="194" y="452" type="line"/>
      <point x="200" y="306"/>
      <point x="175" y="173"/>
      <point x="147" y="0" type="curve"/>
      <point x="243" y="0" type="line"/>
      <point x="266" y="149"/>
      <point x="287" y="303"/>
      <point x="286" y="452" type="curve"/>
    </contour>
    <contour>
      <point x="112" y="382" type="line"/>
      <point x="131" y="426"/>
      <point x="152" y="437"/>
      <point x="212" y="437" type="curve" smooth="yes"/>
      <point x="613" y="437" type="line"/>
      <point x="613" y="520" type="line"/>
      <point x="216" y="520" type="line" smooth="yes"/>
      <point x="118" y="520"/>
      <point x="65" y="497"/>
      <point x="29" y="420" type="curve"/>
    </contour>
    <contour>
      <point x="526" y="-8" type="curve" smooth="yes"/>
      <point x="557" y="-8"/>
      <point x="588" y="0"/>
      <point x="601" y="8" type="curve"/>
      <point x="569" y="83" type="line"/>
      <point x="559" y="78"/>
      <point x="546" y="74"/>
      <point x="535" y="75" type="curve"/>
      <point x="508" y="74"/>
      <point x="494" y="92"/>
      <point x="497" y="151" type="curve" smooth="yes"/>
      <point x="511" y="462" type="line"/>
      <point x="421" y="462" type="line"/>
      <point x="406" y="144" type="line" smooth="yes"/>
      <point x="401" y="28"/>
      <point x="451" y="-8"/>
    </contour>
  </outline>
</glyph>
<glyph name="rho" format="2">
  <advance width="606"/>
  <unicode hex="03C1"/>
  <outline>
    <contour>
      <point x="198" y="-202" type="line"/>
      <point x="184" y="-142"/>
      <point x="162" y="-34"/>
      <point x="147" y="69"/>
      <point x="140" y="172"/>
      <point x="141" y="226" type="qcurve" smooth="yes"/>
      <point x="143" y="285"/>
      <point x="168" y="371"/>
      <point x="212" y="426"/>
      <point x="272" y="453"/>
      <point x="308" y="453" type="qcurve" smooth="yes"/>
      <point x="350" y="453"/>
      <point x="414" y="422"/>
      <point x="456" y="370"/>
      <point x="478" y="302"/>
      <point x="478" y="266" type="qcurve" smooth="yes"/>
      <point x="478" y="224"/>
      <point x="451" y="150"/>
      <point x="403" y="95"/>
      <point x="339" y="63"/>
      <point x="302" y="63" type="qcurve" smooth="yes"/>
      <point x="280" y="63"/>
      <point x="236" y="76"/>
      <point x="191" y="104"/>
      <point x="148" y="152"/>
      <point x="128" y="186" type="qcurve"/>
      <point x="128" y="101" type="line"/>
      <point x="147" y="71"/>
      <point x="193" y="29"/>
      <point x="242" y="4"/>
      <point x="295" y="-8"/>
      <point x="320" y="-8" type="qcurve" smooth="yes"/>
      <point x="366" y="-8"/>
      <point x="452" y="30"/>
      <point x="519" y="102"/>
      <point x="559" y="204"/>
      <point x="559" y="268" type="qcurve" smooth="yes"/>
      <point x="559" y="325"/>
      <point x="526" y="422"/>
      <point x="461" y="492"/>
      <point x="366" y="532"/>
      <point x="304" y="531" type="qcurve"/>
      <point x="243" y="532"/>
      <point x="153" y="490"/>
      <point x="93" y="403"/>
      <point x="63" y="268"/>
      <point x="63" y="176" type="qcurve" smooth="yes"/>
      <point x="63" y="125"/>
      <point x="71" y="16"/>
      <point x="83" y="-86"/>
      <point x="99" y="-175"/>
      <point x="107" y="-207" type="qcurve"/>
    </contour>
  </outline>
</glyph>
<glyph name="sigmafinal" format="2">
  <advance width="544"/>
  <unicode hex="03C2"/>
  <outline>
    <contour>
      <point x="336" y="-177" type="curve" smooth="yes"/>
      <point x="430" y="-177"/>
      <point x="505" y="-115"/>
      <point x="504" y="-33" type="curve"/>
      <point x="505" y="32"/>
      <point x="455" y="77"/>
      <point x="388" y="76" type="curve"/>
      <point x="361" y="77"/>
      <point x="320" y="69"/>
      <point x="291" y="68" type="curve"/>
      <point x="190" y="69"/>
      <point x="129" y="159"/>
      <point x="129" y="257" type="curve" smooth="yes"/>
      <point x="129" y="367"/>
      <point x="207" y="451"/>
      <point x="316" y="451" type="curve" smooth="yes"/>
      <point x="380" y="451"/>
      <point x="438" y="424"/>
      <point x="461" y="396" type="curve"/>
      <point x="508" y="464" type="line"/>
      <point x="466" y="505"/>
      <point x="384" y="531"/>
      <point x="312" y="531" type="curve" smooth="yes"/>
      <point x="168" y="531"/>
      <point x="48" y="422"/>
      <point x="48" y="260" type="curve"/>
      <point x="48" y="108"/>
      <point x="155" y="-8"/>
      <point x="279" y="-8" type="curve" smooth="yes"/>
      <point x="310" y="-8"/>
      <point x="358" y="-2"/>
      <point x="377" y="-2" type="curve" smooth="yes"/>
      <point x="409" y="-2"/>
      <point x="430" y="-20"/>
      <point x="430" y="-43" type="curve" smooth="yes"/>
      <point x="430" y="-77"/>
      <point x="384" y="-104"/>
      <point x="322" y="-104" type="curve" smooth="yes"/>
      <point x="294" y="-104"/>
      <point x="264" y="-99"/>
      <point x="239" y="-93" type="curve"/>
      <point x="239" y="-166" type="line"/>
      <point x="282" y="-174"/>
      <point x="314" y="-177"/>
    </contour>
  </outline>
</glyph>
